<?xml version="1.0"?>
<svg xmlns="http://www.w3.org/2000/svg" xmlns:xlink="http://www.w3.org/1999/xlink" width="868.423584" height="357.968994">
	<defs />
	<rect x="-681.438843" y="-273.075195" width="1362.87769" height="546.150391" stroke="none" fill="#FFFFFF" fill-opacity="0" transform="matrix(0.625 0 0 0.625 434.024 179.172)" />
	<rect x="-606.013672" y="-199.466644" width="1212.02734" height="398.933289" stroke="none" fill="#D0F8FF" transform="matrix(0.625 0 0 0.625 434.229 177.722)" />
	<path d="M -606.014 -199.467 L 606.014 -199.467, 606.014 199.467, -606.014 199.467 Z" fill="none" stroke="#000000" stroke-width="4.26666689" stroke-linecap="round" stroke-linejoin="round" transform="matrix(0.625 0 0 0.625 434.229 177.722)" />
	<path d="M 0 0 L 0 398.933" fill="none" stroke="#000000" stroke-width="1.60000002" stroke-linecap="round" stroke-linejoin="round" transform="matrix(0.625 0 0 0.625 434.024 53.0555)" />
	<g transform="matrix(1 0 -0 1 177.523 129.455)">
		<svg width="482.999908" height="273.139496">
			<defs />
			<path d="M 82.6766 29.5853 C 82.5539 29.9125, 82.3402 30.0761, 82.0366 30.0761, 80.9141 30.0106, 79.7956 29.9779, 78.6833 29.9779 L 78.1272 29.9779 C 76.8135 30.0004, 75.4936 30.0331, 74.1687 30.0761, 73.8661 30.0761, 73.7025 29.935, 73.68 29.6508 L 73.68 29.5199, 73.7475 29.2418 C 73.8375 28.883, 74.0562 28.7082, 74.4038 28.7184, 74.8199 28.7194, 75.191 28.7061, 75.5161 28.6785, 75.8423 28.6519, 76.1571 28.5558, 76.4598 28.3913, 76.5722 28.3381, 76.6683 28.2614, 76.746 28.1622, 76.791 28.0764, 76.8196 27.9884, 76.8298 27.9005 L 76.8298 27.8024, 76.426 22.3717, 68.8106 22.3717, 66.1321 26.9518 C 65.9859 27.2145, 65.9123 27.4548, 65.9123 27.6715, 65.9123 27.8576, 65.9685 28.0273, 66.081 28.1786, 66.3284 28.5395, 66.7895 28.7194, 67.4622 28.7184, 67.7658 28.7194, 67.9283 28.8503, 67.9508 29.111, 67.9508 29.1774, 67.9396 29.248, 67.9171 29.3236 L 67.8506 29.5853 C 67.7269 29.9125, 67.5082 30.0761, 67.1933 30.0761, 66.1607 30.0331, 65.1384 30.0004, 64.1263 29.9779 L 63.6723 29.9779 C 62.7962 29.9779, 61.9088 30.0106, 61.0102 30.0761, 60.8415 30.0761, 60.7178 30.0219, 60.6391 29.9125, 60.5716 29.8481, 60.5379 29.7714, 60.5379 29.6835, 60.5379 29.6191, 60.5491 29.5536, 60.5716 29.4872 L 60.6391 29.2418 C 60.729 28.883, 60.9488 28.7082, 61.2964 28.7184, 61.6563 28.7194, 62.01 28.6816, 62.3576 28.6049, 62.7062 28.5293, 63.0324 28.3923, 63.335 28.196, 63.6386 27.9997, 63.9198 27.7625, 64.1774 27.4844, 64.436 27.2064, 64.6661 26.8925, 64.8685 26.5429 L 76.7624 6.17787 C 76.9648 5.87321, 77.2234 5.726, 77.5383 5.73622 L 77.8583 5.73622 C 78.2182 5.73724, 78.4196 5.90593, 78.4646 6.2433 L 79.947 27.557 C 79.9694 27.8412, 80.0032 28.0569, 80.0482 28.2042, 80.0931 28.3514, 80.1719 28.4577, 80.2843 28.5221, 80.4418 28.6213, 80.7025 28.6785, 81.0674 28.6949, 81.4334 28.7112, 81.8454 28.7194, 82.3055 28.7184, 82.6204 28.7194, 82.7778 28.8503, 82.7778 29.111, 82.7778 29.1774, 82.7666 29.248, 82.7441 29.3236 Z M 75.6173 10.7743 L 69.6193 21.0468, 76.3248 21.0468 Z" stroke="none" fill="#000000" />
			<path d="M 4.2449 5.70916 C 3.08786 5.67252, 1.96173 5.6542, 0.867092 5.6542, -0.226974 5.6542, -1.3531 5.67252, -2.51072 5.70916 L -2.51072 4.92139, -1.8592 4.92139 C -1.65195 4.92196, -1.45673 4.9191, -1.27467 4.9128, -1.09204 4.90707, -0.919138 4.89162, -0.755401 4.867, -0.591663 4.84295, -0.450253 4.81833, -0.331171 4.79314, -0.230409 4.7754, -0.146823 4.71929, -0.0809841 4.62425, -0.0145731 4.52979, 0.0180597 4.42445, 0.0180597 4.30766 L 0.0180597 -6.01584 C -0.296248 -5.86241, -0.683264 -5.74619, -1.14242 -5.66718, -1.60157 -5.5876, -2.10481 -5.5481, -2.65213 -5.54867 L -2.65213 -6.32729 C -1.89699 -6.32671, -1.20024 -6.4166, -0.561893 -6.59694, 0.0764561 -6.77671, 0.628356 -7.11449, 1.09381 -7.60971 L 1.38636 -7.60971 C 1.59361 -7.60914, 1.69723 -7.50837, 1.69723 -7.30742 L 1.69723 4.30766 C 1.69723 4.43017, 1.72872 4.53723, 1.7917 4.62883, 1.85467 4.72044, 1.94627 4.7754, 2.06535 4.79314, 2.16612 4.81833, 2.2955 4.84295, 2.45237 4.867, 2.60981 4.89162, 2.78729 4.90707, 2.98538 4.9128, 3.18347 4.9191, 3.37697 4.92196, 3.56533 4.92139 L 4.2449 4.92139, 4.2449 5.70916 Z" stroke="none" fill="#000000" transform="matrix(1.12 0 0 1 87.175 29.1184)" />
			<path d="M 38.7878 65.8946 C 38.7551 66.0377, 38.6795 66.1573, 38.5609 66.2555, 38.4423 66.3536, 38.2991 66.4027, 38.1305 66.4017, 37.7266 66.4027, 37.3341 66.4333, 36.9517 66.4926, 36.5693 66.553, 36.2156 66.6971, 35.8895 66.9251, 35.6206 67.0897, 35.4069 67.3054, 35.2495 67.5722, 35.0921 67.8401, 34.9745 68.1253, 34.8958 68.43 L 29.9262 87.7808 C 29.8025 88.108, 29.5837 88.2715, 29.2688 88.2715 L 28.8814 88.2715 C 28.6789 88.2715, 28.5276 88.1846, 28.4264 88.0098, 27.1577 84.587, 25.8972 81.1714, 24.6448 77.7629, 23.3924 74.3555, 22.1932 71.1351, 21.0472 68.1028 L 16.7002 85 C 16.6327 85.1861, 16.599 85.3722, 16.599 85.5562, 16.599 85.6339, 16.6102 85.7157, 16.6327 85.8016, 16.6665 86.0643, 16.7677 86.2718, 16.9353 86.4231, 17.1378 86.6205, 17.4076 86.7513, 17.745 86.8167, 18.0824 86.8822, 18.4637 86.9149, 18.89 86.9139, 19.2049 86.9149, 19.3624 87.0457, 19.3624 87.3064, 19.3624 87.3729, 19.3511 87.4434, 19.3286 87.5191 L 19.2612 87.7645 C 19.2274 87.9178, 19.1456 88.0405, 19.0168 88.1325, 18.888 88.2255, 18.75 88.2715, 18.6038 88.2715, 17.4813 88.2061, 16.3414 88.1734, 15.1841 88.1734, 14.039 88.1734, 12.8818 88.2061, 11.7132 88.2715, 11.5445 88.2715, 11.4208 88.2225, 11.3421 88.1243, 11.2644 88.0487, 11.2256 87.9669, 11.2245 87.879, 11.2256 87.8145, 11.2368 87.7491, 11.2583 87.6827 L 11.3258 87.4373 C 11.3595 87.2962, 11.4382 87.1746, 11.5619 87.0703, 11.6856 86.967, 11.8257 86.9149, 11.9821 86.9139, 12.4094 86.9149, 12.8092 86.8822, 13.1793 86.8167, 13.5493 86.7513, 13.9031 86.6153, 14.2404 86.4068, 14.4991 86.2442, 14.7066 86.0295, 14.8641 85.7617, 15.0215 85.4949, 15.1442 85.2086, 15.2342 84.9019 L 19.9512 66.5652 C 19.7611 66.5008, 19.4155 66.4579, 18.9156 66.4354, 18.4157 66.4139, 17.8851 66.4027, 17.3228 66.4017, 17.1551 66.4027, 17.0314 66.3485, 16.9527 66.2381, 16.8852 66.1737, 16.8515 66.0919, 16.8515 65.9927, 16.8515 65.9283, 16.8689 65.868, 16.9016 65.8128 L 16.9527 65.5511 C 17.0764 65.2249, 17.2952 65.0614, 17.6101 65.0603 L 22.8833 65.0603 C 23.097 65.0614, 23.237 65.1483, 23.3045 65.3221 L 29.7238 82.6282, 33.4134 68.3318 C 33.4809 68.1366, 33.5146 67.9403, 33.5146 67.743, 33.5146 67.4056, 33.4083 67.1275, 33.1946 66.9087, 32.9595 66.6808, 32.6814 66.5397, 32.3604 66.4845, 32.0404 66.4303, 31.6672 66.4027, 31.2399 66.4017, 31.0722 66.4027, 30.9485 66.3536, 30.8688 66.2544, 30.7911 66.1788, 30.7512 66.0919, 30.7512 65.9927, 30.7512 65.9283, 30.7686 65.868, 30.8013 65.8128 L 30.8524 65.5511 C 30.9761 65.2249, 31.1949 65.0614, 31.5098 65.0603, 32.6558 65.1053, 33.807 65.1268, 34.9633 65.1258, 36.1093 65.1268, 37.2604 65.1053, 38.4167 65.0603, 38.5742 65.0614, 38.7091 65.1156, 38.8216 65.2239, 38.8665 65.3118, 38.889 65.3936, 38.889 65.4693, 38.889 65.5357, 38.8727 65.5961, 38.8379 65.6492 Z" stroke="none" fill="#000000" />
			<path d="M 4.2449 5.70916 C 3.08786 5.67252, 1.96173 5.6542, 0.867092 5.6542, -0.226974 5.6542, -1.3531 5.67252, -2.51072 5.70916 L -2.51072 4.92139, -1.8592 4.92139 C -1.65195 4.92196, -1.45673 4.9191, -1.27467 4.9128, -1.09204 4.90707, -0.919138 4.89162, -0.755401 4.867, -0.591663 4.84295, -0.450253 4.81833, -0.331171 4.79314, -0.230409 4.7754, -0.146823 4.71929, -0.0809841 4.62425, -0.0145731 4.52979, 0.0180597 4.42445, 0.0180597 4.30766 L 0.0180597 -6.01584 C -0.296248 -5.86241, -0.683264 -5.74619, -1.14242 -5.66718, -1.60157 -5.5876, -2.10481 -5.5481, -2.65213 -5.54867 L -2.65213 -6.32729 C -1.89699 -6.32671, -1.20024 -6.4166, -0.561893 -6.59694, 0.0764561 -6.77671, 0.628356 -7.11449, 1.09381 -7.60971 L 1.38636 -7.60971 C 1.59361 -7.60914, 1.69723 -7.50837, 1.69723 -7.30742 L 1.69723 4.30766 C 1.69723 4.43017, 1.72872 4.53723, 1.7917 4.62883, 1.85467 4.72044, 1.94627 4.7754, 2.06535 4.79314, 2.16612 4.81833, 2.2955 4.84295, 2.45237 4.867, 2.60981 4.89162, 2.78729 4.90707, 2.98538 4.9128, 3.18347 4.9191, 3.37697 4.92196, 3.56533 4.92139 L 4.2449 4.92139, 4.2449 5.70916 Z" stroke="none" fill="#000000" transform="matrix(1.12 0 0 1 41.6102 87.3139)" />
			<path d="M 56.0139 88.0098 C 56.0139 89.2857, 55.7532 90.491, 55.2308 91.6248, 54.7084 92.7596, 53.9753 93.7625, 53.0317 94.6346, 52.9315 94.7, 52.8191 94.7327, 52.6944 94.7327, 52.6054 94.7327, 52.4878 94.7, 52.3406 94.6346 L 52.2568 94.5037 C 52.1668 94.4168, 52.1218 94.3187, 52.1218 94.2093, 52.1218 94.1111, 52.1668 93.9966, 52.2568 93.8658, 53.1104 93.0806, 53.7647 92.1871, 54.2197 91.1832, 54.6746 90.1802, 54.9016 89.1221, 54.9016 88.0098, 54.9016 87.9342, 54.8965 87.8503, 54.8852 87.7573, 54.874 87.6653, 54.8678 87.7215, 54.8678 87.928, 54.6889 88.1356, 54.2739 88.2388, 53.6216 88.2388, 52.9704 88.2388, 52.4766 88.0384, 52.1392 87.6346, 51.8018 87.2318, 51.6332 86.784, 51.6332 86.2923, 51.6332 85.8026, 51.8018 85.3589, 52.1392 84.9602, 52.4766 84.5625, 52.9704 84.3631, 53.6216 84.3621, 54.1042 84.3631, 54.4978 84.4858, 54.8004 84.7312, 55.104 84.9765, 55.3453 85.274, 55.5252 85.6227, 55.7051 85.9723, 55.8319 86.3587, 55.9045 86.784, 55.9781 87.2093, 56.0139 87.6183, 56.0139 88.0098 Z" stroke="none" fill="#000000" />
			<path d="M 85.9203 65.9109 C 85.8538 66.2391, 85.6514 66.4027, 85.314 66.4017, 84.9552 66.4027, 84.6127 66.4436, 84.2866 66.5254, 83.9615 66.6071, 83.6435 66.7462, 83.3348 66.9425, 83.026 67.1388, 82.7428 67.3759, 82.4842 67.654, 82.2255 67.9321, 81.9894 68.246, 81.7757 68.5936 L 69.4933 88.566 C 69.3257 88.8716, 69.067 89.0189, 68.7184 89.0076 L 68.3984 89.0076 C 67.9833 89.0076, 67.7809 88.8338, 67.7921 88.4842 L 65.6861 67.5957 C 65.6411 67.3136, 65.5962 67.0928, 65.5512 66.9343, 65.5062 66.7769, 65.4387 66.6644, 65.3488 66.5979, 65.1923 66.5121, 64.9429 66.4579, 64.5994 66.4354, 64.2569 66.4139, 63.8664 66.4027, 63.4288 66.4017, 63.2601 66.4027, 63.1364 66.3485, 63.0577 66.2381, 62.9902 66.1737, 62.9565 66.0919, 62.9565 65.9927, 62.9565 65.9283, 62.9739 65.868, 63.0076 65.8128 L 63.0577 65.5674 C 63.0925 65.4263, 63.1681 65.3067, 63.2857 65.2086, 63.4043 65.1104, 63.5474 65.0614, 63.7151 65.0603, 64.7936 65.1268, 65.8834 65.1595, 66.9835 65.1585, 67.1522 65.1595, 67.3321 65.1483, 67.5222 65.1258, 68.8257 65.1268, 70.1292 65.1053, 71.4317 65.0603, 71.5891 65.0614, 71.7292 65.1156, 71.8529 65.2239, 71.8979 65.3118, 71.9203 65.3936, 71.9203 65.4693, 71.9203 65.5357, 71.904 65.5961, 71.8692 65.6492 L 71.8191 65.8946 C 71.7854 66.0479, 71.7036 66.1716, 71.5748 66.2636, 71.446 66.3567, 71.308 66.4027, 71.1618 66.4017, 70.7692 66.4027, 70.4093 66.419, 70.0832 66.4518, 69.7581 66.4845, 69.4381 66.5714, 69.1232 66.7124, 68.9331 66.8116, 68.8431 66.9752, 68.8533 67.2032 L 68.8533 67.3177 C 69.2469 70.2191, 69.5618 73.1338, 69.797 76.0617, 70.0331 78.9897, 70.2856 81.7623, 70.5555 84.3785 L 80.4957 68.201 C 80.6419 67.973, 80.7319 67.7327, 80.7656 67.4812 L 80.7656 67.3995 C 80.7656 67.2369, 80.7268 67.0897, 80.647 66.9578, 80.4007 66.5877, 79.9406 66.4027, 79.2659 66.4017, 78.9735 66.4027, 78.8273 66.2555, 78.8273 65.96 L 78.8273 65.8455, 78.8947 65.5511 C 79.0195 65.2249, 79.2383 65.0614, 79.5521 65.0603, 80.5407 65.1053, 81.5344 65.1268, 82.5343 65.1258, 82.6692 65.1483, 82.7991 65.1595, 82.9217 65.1585, 83.7754 65.1595, 84.6515 65.1268, 85.5502 65.0603, 85.8538 65.0614, 86.0164 65.2086, 86.0388 65.502 L 86.0388 65.6329 Z" stroke="none" fill="#000000" />
			<path d="M 4.2449 5.70916 C 3.08786 5.67252, 1.96173 5.6542, 0.867092 5.6542, -0.226974 5.6542, -1.3531 5.67252, -2.51072 5.70916 L -2.51072 4.92139, -1.8592 4.92139 C -1.65195 4.92196, -1.45673 4.9191, -1.27467 4.9128, -1.09204 4.90707, -0.919138 4.89162, -0.755401 4.867, -0.591663 4.84295, -0.450253 4.81833, -0.331171 4.79314, -0.230409 4.7754, -0.146823 4.71929, -0.0809841 4.62425, -0.0145731 4.52979, 0.0180597 4.42445, 0.0180597 4.30766 L 0.0180597 -6.01584 C -0.296248 -5.86241, -0.683264 -5.74619, -1.14242 -5.66718, -1.60157 -5.5876, -2.10481 -5.5481, -2.65213 -5.54867 L -2.65213 -6.32729 C -1.89699 -6.32671, -1.20024 -6.4166, -0.561893 -6.59694, 0.0764561 -6.77671, 0.628356 -7.11449, 1.09381 -7.60971 L 1.38636 -7.60971 C 1.59361 -7.60914, 1.69723 -7.50837, 1.69723 -7.30742 L 1.69723 4.30766 C 1.69723 4.43017, 1.72872 4.53723, 1.7917 4.62883, 1.85467 4.72044, 1.94627 4.7754, 2.06535 4.79314, 2.16612 4.81833, 2.2955 4.84295, 2.45237 4.867, 2.60981 4.89162, 2.78729 4.90707, 2.98538 4.9128, 3.18347 4.9191, 3.37697 4.92196, 3.56533 4.92139 L 4.2449 4.92139, 4.2449 5.70916 Z" stroke="none" fill="#000000" transform="matrix(1.12 0 0 1 87.301 87.3139)" />
			<path d="M 101.705 88.0098 C 101.705 89.2857, 101.444 90.491, 100.922 91.6248, 100.399 92.7596, 99.6661 93.7625, 98.7225 94.6346, 98.6223 94.7, 98.5098 94.7327, 98.3851 94.7327, 98.2962 94.7327, 98.1786 94.7, 98.0314 94.6346 L 97.9476 94.5037 C 97.8576 94.4168, 97.8126 94.3187, 97.8126 94.2093, 97.8126 94.1111, 97.8576 93.9966, 97.9476 93.8658, 98.8012 93.0806, 99.4555 92.1871, 99.9105 91.1832, 100.365 90.1802, 100.592 89.1221, 100.592 88.0098, 100.592 87.9342, 100.587 87.8503, 100.576 87.7573, 100.565 87.6653, 100.559 87.7215, 100.559 87.928, 100.38 88.1356, 99.9646 88.2388, 99.3124 88.2388, 98.6612 88.2388, 98.1674 88.0384, 97.83 87.6346, 97.4926 87.2318, 97.3239 86.784, 97.3239 86.2923, 97.3239 85.8026, 97.4926 85.3589, 97.83 84.9602, 98.1674 84.5625, 98.6612 84.3631, 99.3124 84.3621, 99.7949 84.3631, 100.189 84.4858, 100.491 84.7312, 100.795 84.9765, 101.036 85.274, 101.216 85.6227, 101.396 85.9723, 101.523 86.3587, 101.595 86.784, 101.669 87.2093, 101.705 87.6183, 101.705 88.0098 Z" stroke="none" fill="#000000" />
			<path d="M 130.995 72.4703 C 130.962 72.6134, 130.888 72.7361, 130.776 72.8393, 130.663 72.9436, 130.541 72.9947, 130.406 72.9937, 130.361 73.0162, 130.304 73.0274, 130.237 73.0264, 130.102 73.0274, 130.035 73.0162, 130.035 72.9937, 129.754 72.9947, 129.602 72.8751, 129.58 72.6338 L 129.58 72.5193 C 129.647 72.0082, 129.703 71.4898, 129.748 70.9654, 129.793 70.5626, 129.816 70.1925, 129.816 69.8531 L 129.816 69.575 C 129.793 69.1395, 129.74 68.75, 129.656 68.4065, 129.572 68.063, 129.423 67.7716, 129.21 67.5303, 128.782 67.0294, 128.147 66.7329, 127.305 66.6399, 126.463 66.5479, 125.564 66.5008, 124.609 66.4998 L 120.987 66.4998 C 120.392 66.5008, 120.044 66.5448, 119.943 66.6307, 119.887 66.6756, 119.774 66.9967, 119.606 67.5957 L 117.516 75.5782, 119.842 75.5782 C 120.472 75.5792, 121.044 75.5526, 121.56 75.4974, 122.078 75.4432, 122.521 75.2796, 122.892 75.0057, 123.229 74.7337, 123.484 74.3524, 123.658 73.8617, 123.832 73.3709, 124.004 72.8097, 124.171 72.1758, 124.295 71.8497, 124.509 71.6912, 124.811 71.7015 L 125.098 71.7015 C 125.413 71.7025, 125.57 71.8446, 125.57 72.1268 L 125.57 72.2413, 123.464 80.3382 C 123.397 80.6776, 123.178 80.8412, 122.807 80.8289 L 122.537 80.8289 C 122.223 80.8299, 122.065 80.6991, 122.065 80.4363, 122.065 80.3719, 122.083 80.3116, 122.116 80.2564, 122.263 79.6471, 122.369 79.0848, 122.437 78.5716, 122.459 78.4417, 122.47 78.3272, 122.47 78.2281, 122.47 77.9234, 122.403 77.6781, 122.268 77.492, 122.078 77.2313, 121.737 77.0759, 121.249 77.0268, 120.76 76.9778, 120.213 76.9532, 119.606 76.9522 L 117.18 76.9522, 114.871 85.9161 C 114.759 86.2984, 114.703 86.5826, 114.703 86.7666 L 114.703 86.8321 C 114.748 86.8771, 115.062 86.9036, 115.646 86.9139 L 119.505 86.9139 C 120.504 86.9149, 121.474 86.8474, 122.411 86.7104, 123.35 86.5744, 124.223 86.2279, 125.03 85.6707, 125.39 85.41, 125.734 85.0614, 126.059 84.6248, 126.385 84.1893, 126.694 83.7068, 126.986 83.1772, 127.278 82.6487, 127.555 82.0874, 127.819 81.4924, 128.083 80.8984, 128.345 80.3116, 128.602 79.733, 128.692 79.4723, 128.89 79.3414, 129.192 79.3404 L 129.478 79.3404 C 129.793 79.3414, 129.951 79.4835, 129.951 79.7657 L 129.951 79.8965, 126.597 87.879 C 126.475 88.1407, 126.272 88.2715, 125.991 88.2715 L 108.469 88.2715 C 108.301 88.2715, 108.177 88.2225, 108.098 88.1243, 108.021 88.0487, 107.982 87.9669, 107.981 87.879, 107.982 87.8145, 107.993 87.7491, 108.014 87.6827 L 108.082 87.4373 C 108.116 87.2962, 108.194 87.1746, 108.318 87.0703, 108.442 86.967, 108.582 86.9149, 108.738 86.9139, 109.267 86.9149, 109.762 86.9067, 110.222 86.8904, 110.682 86.874, 111.03 86.8167, 111.265 86.7176, 111.468 86.6092, 111.625 86.3148, 111.738 85.8343 L 116.472 67.514 C 116.54 67.2747, 116.573 67.0846, 116.573 66.9415, 116.573 66.8116, 116.546 66.7349, 116.489 66.7124, 116.331 66.6153, 116.022 66.556, 115.562 66.5335, 115.102 66.5121, 114.608 66.5008, 114.079 66.4998, 113.765 66.5008, 113.608 66.3536, 113.608 66.0582 L 113.608 65.9436, 113.675 65.6656 C 113.765 65.3067, 113.985 65.1268, 114.332 65.1258 L 131.399 65.1258 C 131.681 65.1268, 131.832 65.2628, 131.854 65.5347 L 131.854 65.6492 Z" stroke="none" fill="#000000" />
			<path d="M 4.2449 5.70916 C 3.08786 5.67252, 1.96173 5.6542, 0.867092 5.6542, -0.226974 5.6542, -1.3531 5.67252, -2.51072 5.70916 L -2.51072 4.92139, -1.8592 4.92139 C -1.65195 4.92196, -1.45673 4.9191, -1.27467 4.9128, -1.09204 4.90707, -0.919138 4.89162, -0.755401 4.867, -0.591663 4.84295, -0.450253 4.81833, -0.331171 4.79314, -0.230409 4.7754, -0.146823 4.71929, -0.0809841 4.62425, -0.0145731 4.52979, 0.0180597 4.42445, 0.0180597 4.30766 L 0.0180597 -6.01584 C -0.296248 -5.86241, -0.683264 -5.74619, -1.14242 -5.66718, -1.60157 -5.5876, -2.10481 -5.5481, -2.65213 -5.54867 L -2.65213 -6.32729 C -1.89699 -6.32671, -1.20024 -6.4166, -0.561893 -6.59694, 0.0764561 -6.77671, 0.628356 -7.11449, 1.09381 -7.60971 L 1.38636 -7.60971 C 1.59361 -7.60914, 1.69723 -7.50837, 1.69723 -7.30742 L 1.69723 4.30766 C 1.69723 4.43017, 1.72872 4.53723, 1.7917 4.62883, 1.85467 4.72044, 1.94627 4.7754, 2.06535 4.79314, 2.16612 4.81833, 2.2955 4.84295, 2.45237 4.867, 2.60981 4.89162, 2.78729 4.90707, 2.98538 4.9128, 3.18347 4.9191, 3.37697 4.92196, 3.56533 4.92139 L 4.2449 4.92139, 4.2449 5.70916 Z" stroke="none" fill="#000000" transform="matrix(1.12 0 0 1 136.489 87.3139)" />
			<path d="M 2.77742 16.2002 C -8.14358 8.91013, -8.14358 -8.91013, 2.77742 -16.2002 L 4.49262 -16.2002 C -5.35638 -8.91013, -5.35638 8.91013, 4.49262 16.2002" stroke="none" fill="#000000" transform="matrix(1 0 -0 1 5.025 78.2088)" />
			<path d="M 2.77742 16.2002 C -8.14358 8.91013, -8.14358 -8.91013, 2.77742 -16.2002 L 4.49262 -16.2002 C -5.35638 -8.91013, -5.35638 8.91013, 4.49262 16.2002" stroke="none" fill="#000000" transform="matrix(-1 1.50996e-007 -1.50996e-007 -1 147.018 78.2088)" />
			<rect />
		</svg>
	</g>
	<g transform="matrix(1 0 -0 1 551.772 128.005)">
		<svg width="495.055695" height="273.139496">
			<defs />
			<path d="M 84.2296 29.5853 C 84.1069 29.9125, 83.8933 30.0761, 83.5896 30.0761, 82.4671 30.0106, 81.3487 29.9779, 80.2364 29.9779 L 79.6802 29.9779 C 78.3665 30.0004, 77.0467 30.0331, 75.7217 30.0761, 75.4191 30.0761, 75.2555 29.935, 75.233 29.6508 L 75.233 29.5199, 75.3005 29.2418 C 75.3905 28.883, 75.6092 28.7082, 75.9568 28.7184, 76.3729 28.7194, 76.744 28.7061, 77.0691 28.6785, 77.3953 28.6519, 77.7102 28.5558, 78.0128 28.3913, 78.1252 28.3381, 78.2213 28.2614, 78.299 28.1622, 78.344 28.0764, 78.3726 27.9884, 78.3829 27.9005 L 78.3829 27.8024, 77.979 22.3717, 70.3636 22.3717, 67.6851 26.9518 C 67.5389 27.2145, 67.4653 27.4548, 67.4653 27.6715, 67.4653 27.8576, 67.5215 28.0273, 67.634 28.1786, 67.8814 28.5395, 68.3425 28.7194, 69.0152 28.7184, 69.3188 28.7194, 69.4813 28.8503, 69.5038 29.111, 69.5038 29.1774, 69.4926 29.248, 69.4701 29.3236 L 69.4036 29.5853 C 69.2799 29.9125, 69.0612 30.0761, 68.7463 30.0761, 67.7137 30.0331, 66.6914 30.0004, 65.6793 29.9779 L 65.2253 29.9779 C 64.3492 29.9779, 63.4618 30.0106, 62.5632 30.0761, 62.3945 30.0761, 62.2708 30.0219, 62.1921 29.9125, 62.1246 29.8481, 62.0909 29.7714, 62.0909 29.6835, 62.0909 29.6191, 62.1021 29.5536, 62.1246 29.4872 L 62.1921 29.2418 C 62.282 28.883, 62.5018 28.7082, 62.8494 28.7184, 63.2093 28.7194, 63.563 28.6816, 63.9106 28.6049, 64.2592 28.5293, 64.5854 28.3923, 64.888 28.196, 65.1916 27.9997, 65.4728 27.7625, 65.7304 27.4844, 65.989 27.2064, 66.2191 26.8925, 66.4215 26.5429 L 78.3154 6.17787 C 78.5178 5.87321, 78.7765 5.726, 79.0913 5.73622 L 79.4113 5.73622 C 79.7712 5.73724, 79.9726 5.90593, 80.0176 6.2433 L 81.5 27.557 C 81.5225 27.8412, 81.5562 28.0569, 81.6012 28.2042, 81.6462 28.3514, 81.7249 28.4577, 81.8373 28.5221, 81.9948 28.6213, 82.2555 28.6785, 82.6204 28.6949, 82.9864 28.7112, 83.3984 28.7194, 83.8585 28.7184, 84.1734 28.7194, 84.3308 28.8503, 84.3308 29.111, 84.3308 29.1774, 84.3196 29.248, 84.2971 29.3236 Z M 77.1704 10.7743 L 71.1723 21.0468, 77.8778 21.0468 Z" stroke="none" fill="#000000" />
			<path d="M 4.27012 5.70916 L -3.40953 5.70916, -3.40953 5.20535 C -3.40953 5.16928, -3.39064 5.11432, -3.35285 5.04047 L -0.267596 1.68785 C 0.0970931 1.28538, 0.466362 0.873169, 0.840783 0.451802, 1.2152 0.0304351, 1.5507 -0.400093, 1.84611 -0.83978, 2.14153 -1.27947, 2.3774 -1.7329, 2.55373 -2.20006, 2.73007 -2.66723, 2.81766 -3.1573, 2.81766 -3.67084, 2.81766 -4.10366, 2.76098 -4.50842, 2.64762 -4.88399, 2.53427 -5.25956, 2.3711 -5.58932, 2.15698 -5.87329, 1.94344 -6.15725, 1.67607 -6.38625, 1.35547 -6.5603, 1.03486 -6.73434, 0.663305 -6.82136, 0.241938 -6.82194, -0.386678 -6.82136, -0.942012 -6.63358, -1.42349 -6.25801, -1.9044 -5.88245, -2.22386 -5.46852, -2.3813 -5.01738, -2.41222 -5.00479, -2.36184 -4.99849, -2.23016 -4.99906 L -2.06986 -4.99906 C -1.88093 -4.95555, -1.71776 -4.88971, -1.57922 -4.80155, -1.44067 -4.71281, -1.32445 -4.59086, -1.22998 -4.43514, -1.13552 -4.27942, -1.08857 -4.09164, -1.08857 -3.87236, -1.08857 -3.50539, -1.20766 -3.22428, -1.44697 -3.02906, -1.68627 -2.83326, -1.95364 -2.73593, -2.24905 -2.73651, -2.53187 -2.73593, -2.79637 -2.83326, -3.04141 -3.02906, -3.28644 -3.22428, -3.40953 -3.50539, -3.40953 -3.87236, -3.40953 -4.38476, -3.30877 -4.87025, -3.10724 -5.32826, -2.90572 -5.78626, -2.63263 -6.18301, -2.28684 -6.51908, -1.94104 -6.85457, -1.53227 -7.12021, -1.06052 -7.31601, -0.588773 -7.51124, -0.0884004 -7.60914, 0.440026 -7.60971, 1.09441 -7.60914, 1.69382 -7.51295, 2.23771 -7.32059, 2.78159 -7.12823, 3.24532 -6.85171, 3.62891 -6.4916, 4.01249 -6.13092, 4.31305 -5.71413, 4.53004 -5.24124, 4.74702 -4.76777, 4.85522 -4.2445, 4.85522 -3.67084, 4.85522 -3.03536, 4.71095 -2.45025, 4.42126 -1.9161, 4.13214 -1.38137, 3.77375 -0.891306, 3.34609 -0.445893, 2.91842 9.20296e-005, 2.46385 0.419742, 1.98237 0.813628, 1.50146 1.20751, 1.06578 1.59052, 0.6759 1.96266 L -1.49448 4.00537, 1.34574 4.00537 C 1.74191 4.00594, 2.11175 4.00308, 2.45412 3.99678, 2.79705 3.99106, 3.08788 3.97846, 3.32719 3.96014, 3.5665 3.94182, 3.68902 3.9298, 3.69474 3.92293, 3.74513 3.88056, 3.79264 3.79526, 3.83673 3.66702, 3.88081 3.53877, 3.92146 3.38763, 3.95924 3.21359, 3.99703 3.03955, 4.03482 2.86264, 4.0726 2.6823, 4.11039 2.50253, 4.14474 2.30502, 4.17623 2.0909 L 4.87411 2.0909 Z" stroke="none" fill="#000000" transform="matrix(1.12 0 0 1 89.4826 29.1184)" />
			<path d="M 38.7878 65.8946 C 38.7551 66.0377, 38.6795 66.1573, 38.5609 66.2555, 38.4423 66.3536, 38.2991 66.4027, 38.1305 66.4017, 37.7266 66.4027, 37.3341 66.4333, 36.9517 66.4926, 36.5693 66.553, 36.2156 66.6971, 35.8895 66.9251, 35.6206 67.0897, 35.4069 67.3054, 35.2495 67.5722, 35.0921 67.8401, 34.9745 68.1253, 34.8958 68.43 L 29.9262 87.7808 C 29.8025 88.108, 29.5837 88.2715, 29.2688 88.2715 L 28.8814 88.2715 C 28.6789 88.2715, 28.5276 88.1846, 28.4264 88.0098, 27.1577 84.587, 25.8972 81.1714, 24.6448 77.7629, 23.3924 74.3555, 22.1932 71.1351, 21.0472 68.1028 L 16.7002 85 C 16.6327 85.1861, 16.599 85.3722, 16.599 85.5562, 16.599 85.6339, 16.6102 85.7157, 16.6327 85.8016, 16.6665 86.0643, 16.7677 86.2718, 16.9353 86.4231, 17.1378 86.6205, 17.4076 86.7513, 17.745 86.8167, 18.0824 86.8822, 18.4637 86.9149, 18.89 86.9139, 19.2049 86.9149, 19.3624 87.0457, 19.3624 87.3064, 19.3624 87.3729, 19.3511 87.4434, 19.3286 87.5191 L 19.2612 87.7645 C 19.2274 87.9178, 19.1456 88.0405, 19.0168 88.1325, 18.888 88.2255, 18.75 88.2715, 18.6038 88.2715, 17.4813 88.2061, 16.3414 88.1734, 15.1841 88.1734, 14.039 88.1734, 12.8818 88.2061, 11.7132 88.2715, 11.5445 88.2715, 11.4208 88.2225, 11.3421 88.1243, 11.2644 88.0487, 11.2256 87.9669, 11.2245 87.879, 11.2256 87.8145, 11.2368 87.7491, 11.2583 87.6827 L 11.3258 87.4373 C 11.3595 87.2962, 11.4382 87.1746, 11.5619 87.0703, 11.6856 86.967, 11.8257 86.9149, 11.9821 86.9139, 12.4094 86.9149, 12.8092 86.8822, 13.1793 86.8167, 13.5493 86.7513, 13.9031 86.6153, 14.2404 86.4068, 14.4991 86.2442, 14.7066 86.0295, 14.8641 85.7617, 15.0215 85.4949, 15.1442 85.2086, 15.2342 84.9019 L 19.9512 66.5652 C 19.7611 66.5008, 19.4155 66.4579, 18.9156 66.4354, 18.4157 66.4139, 17.8851 66.4027, 17.3228 66.4017, 17.1551 66.4027, 17.0314 66.3485, 16.9527 66.2381, 16.8852 66.1737, 16.8515 66.0919, 16.8515 65.9927, 16.8515 65.9283, 16.8689 65.868, 16.9016 65.8128 L 16.9527 65.5511 C 17.0764 65.2249, 17.2952 65.0614, 17.6101 65.0603 L 22.8833 65.0603 C 23.097 65.0614, 23.237 65.1483, 23.3045 65.3221 L 29.7238 82.6282, 33.4134 68.3318 C 33.4809 68.1366, 33.5146 67.9403, 33.5146 67.743, 33.5146 67.4056, 33.4083 67.1275, 33.1946 66.9087, 32.9595 66.6808, 32.6814 66.5397, 32.3604 66.4845, 32.0404 66.4303, 31.6672 66.4027, 31.2399 66.4017, 31.0722 66.4027, 30.9485 66.3536, 30.8688 66.2544, 30.7911 66.1788, 30.7512 66.0919, 30.7512 65.9927, 30.7512 65.9283, 30.7686 65.868, 30.8013 65.8128 L 30.8524 65.5511 C 30.9761 65.2249, 31.1949 65.0614, 31.5098 65.0603, 32.6558 65.1053, 33.807 65.1268, 34.9633 65.1258, 36.1093 65.1268, 37.2604 65.1053, 38.4167 65.0603, 38.5742 65.0614, 38.7091 65.1156, 38.8216 65.2239, 38.8665 65.3118, 38.889 65.3936, 38.889 65.4693, 38.889 65.5357, 38.8727 65.5961, 38.8379 65.6492 Z" stroke="none" fill="#000000" />
			<path d="M 4.27012 5.70916 L -3.40953 5.70916, -3.40953 5.20535 C -3.40953 5.16928, -3.39064 5.11432, -3.35285 5.04047 L -0.267596 1.68785 C 0.0970931 1.28538, 0.466362 0.873169, 0.840783 0.451802, 1.2152 0.0304351, 1.5507 -0.400093, 1.84611 -0.83978, 2.14153 -1.27947, 2.3774 -1.7329, 2.55373 -2.20006, 2.73007 -2.66723, 2.81766 -3.1573, 2.81766 -3.67084, 2.81766 -4.10366, 2.76098 -4.50842, 2.64762 -4.88399, 2.53427 -5.25956, 2.3711 -5.58932, 2.15698 -5.87329, 1.94344 -6.15725, 1.67607 -6.38625, 1.35547 -6.5603, 1.03486 -6.73434, 0.663305 -6.82136, 0.241938 -6.82194, -0.386678 -6.82136, -0.942012 -6.63358, -1.42349 -6.25801, -1.9044 -5.88245, -2.22386 -5.46852, -2.3813 -5.01738, -2.41222 -5.00479, -2.36184 -4.99849, -2.23016 -4.99906 L -2.06986 -4.99906 C -1.88093 -4.95555, -1.71776 -4.88971, -1.57922 -4.80155, -1.44067 -4.71281, -1.32445 -4.59086, -1.22998 -4.43514, -1.13552 -4.27942, -1.08857 -4.09164, -1.08857 -3.87236, -1.08857 -3.50539, -1.20766 -3.22428, -1.44697 -3.02906, -1.68627 -2.83326, -1.95364 -2.73593, -2.24905 -2.73651, -2.53187 -2.73593, -2.79637 -2.83326, -3.04141 -3.02906, -3.28644 -3.22428, -3.40953 -3.50539, -3.40953 -3.87236, -3.40953 -4.38476, -3.30877 -4.87025, -3.10724 -5.32826, -2.90572 -5.78626, -2.63263 -6.18301, -2.28684 -6.51908, -1.94104 -6.85457, -1.53227 -7.12021, -1.06052 -7.31601, -0.588773 -7.51124, -0.0884004 -7.60914, 0.440026 -7.60971, 1.09441 -7.60914, 1.69382 -7.51295, 2.23771 -7.32059, 2.78159 -7.12823, 3.24532 -6.85171, 3.62891 -6.4916, 4.01249 -6.13092, 4.31305 -5.71413, 4.53004 -5.24124, 4.74702 -4.76777, 4.85522 -4.2445, 4.85522 -3.67084, 4.85522 -3.03536, 4.71095 -2.45025, 4.42126 -1.9161, 4.13214 -1.38137, 3.77375 -0.891306, 3.34609 -0.445893, 2.91842 9.20296e-005, 2.46385 0.419742, 1.98237 0.813628, 1.50146 1.20751, 1.06578 1.59052, 0.6759 1.96266 L -1.49448 4.00537, 1.34574 4.00537 C 1.74191 4.00594, 2.11175 4.00308, 2.45412 3.99678, 2.79705 3.99106, 3.08788 3.97846, 3.32719 3.96014, 3.5665 3.94182, 3.68902 3.9298, 3.69474 3.92293, 3.74513 3.88056, 3.79264 3.79526, 3.83673 3.66702, 3.88081 3.53877, 3.92146 3.38763, 3.95924 3.21359, 3.99703 3.03955, 4.03482 2.86264, 4.0726 2.6823, 4.11039 2.50253, 4.14474 2.30502, 4.17623 2.0909 L 4.87411 2.0909 Z" stroke="none" fill="#000000" transform="matrix(1.12 0 0 1 42.3648 87.3139)" />
			<path d="M 57.5669 88.0098 C 57.5669 89.2857, 57.3062 90.491, 56.7838 91.6248, 56.2614 92.7596, 55.5284 93.7625, 54.5847 94.6346, 54.4845 94.7, 54.3721 94.7327, 54.2474 94.7327, 54.1584 94.7327, 54.0408 94.7, 53.8936 94.6346 L 53.8098 94.5037 C 53.7198 94.4168, 53.6749 94.3187, 53.6749 94.2093, 53.6749 94.1111, 53.7198 93.9966, 53.8098 93.8658, 54.6635 93.0806, 55.3177 92.1871, 55.7727 91.1832, 56.2276 90.1802, 56.4546 89.1221, 56.4546 88.0098, 56.4546 87.9342, 56.4495 87.8503, 56.4382 87.7573, 56.427 87.6653, 56.4209 87.7215, 56.4209 87.928, 56.2419 88.1356, 55.8269 88.2388, 55.1746 88.2388, 54.5234 88.2388, 54.0296 88.0384, 53.6922 87.6346, 53.3549 87.2318, 53.1862 86.784, 53.1862 86.2923, 53.1862 85.8026, 53.3549 85.3589, 53.6922 84.9602, 54.0296 84.5625, 54.5234 84.3631, 55.1746 84.3621, 55.6572 84.3631, 56.0508 84.4858, 56.3534 84.7312, 56.657 84.9765, 56.8983 85.274, 57.0782 85.6227, 57.2581 85.9723, 57.3849 86.3587, 57.4575 86.784, 57.5311 87.2093, 57.5669 87.6183, 57.5669 88.0098 Z" stroke="none" fill="#000000" />
			<path d="M 87.4733 65.9109 C 87.4068 66.2391, 87.2044 66.4027, 86.867 66.4017, 86.5082 66.4027, 86.1657 66.4436, 85.8396 66.5254, 85.5145 66.6071, 85.1965 66.7462, 84.8878 66.9425, 84.579 67.1388, 84.2958 67.3759, 84.0372 67.654, 83.7785 67.9321, 83.5424 68.246, 83.3287 68.5936 L 71.0463 88.566 C 70.8787 88.8716, 70.62 89.0189, 70.2714 89.0076 L 69.9514 89.0076 C 69.5363 89.0076, 69.3339 88.8338, 69.3452 88.4842 L 67.2391 67.5957 C 67.1942 67.3136, 67.1492 67.0928, 67.1042 66.9343, 67.0592 66.7769, 66.9917 66.6644, 66.9018 66.5979, 66.7453 66.5121, 66.4959 66.4579, 66.1524 66.4354, 65.8099 66.4139, 65.4194 66.4027, 64.9818 66.4017, 64.8131 66.4027, 64.6894 66.3485, 64.6107 66.2381, 64.5432 66.1737, 64.5095 66.0919, 64.5095 65.9927, 64.5095 65.9283, 64.5269 65.868, 64.5606 65.8128 L 64.6107 65.5674 C 64.6455 65.4263, 64.7211 65.3067, 64.8387 65.2086, 64.9573 65.1104, 65.1004 65.0614, 65.2681 65.0603, 66.3466 65.1268, 67.4364 65.1595, 68.5365 65.1585, 68.7052 65.1595, 68.8851 65.1483, 69.0753 65.1258, 70.3787 65.1268, 71.6822 65.1053, 72.9847 65.0603, 73.1421 65.0614, 73.2822 65.1156, 73.4059 65.2239, 73.4509 65.3118, 73.4734 65.3936, 73.4734 65.4693, 73.4734 65.5357, 73.457 65.5961, 73.4222 65.6492 L 73.3721 65.8946 C 73.3384 66.0479, 73.2566 66.1716, 73.1278 66.2636, 72.999 66.3567, 72.861 66.4027, 72.7148 66.4017, 72.3222 66.4027, 71.9623 66.419, 71.6362 66.4518, 71.3111 66.4845, 70.9911 66.5714, 70.6762 66.7124, 70.4861 66.8116, 70.3961 66.9752, 70.4063 67.2032 L 70.4063 67.3177 C 70.7999 70.2191, 71.1148 73.1338, 71.35 76.0617, 71.5861 78.9897, 71.8386 81.7623, 72.1085 84.3785 L 82.0487 68.201 C 82.1949 67.973, 82.2849 67.7327, 82.3186 67.4812 L 82.3186 67.3995 C 82.3186 67.2369, 82.2798 67.0897, 82.2 66.9578, 81.9537 66.5877, 81.4936 66.4027, 80.8189 66.4017, 80.5265 66.4027, 80.3803 66.2555, 80.3803 65.96 L 80.3803 65.8455, 80.4478 65.5511 C 80.5725 65.2249, 80.7913 65.0614, 81.1051 65.0603, 82.0937 65.1053, 83.0874 65.1268, 84.0873 65.1258, 84.2222 65.1483, 84.3521 65.1595, 84.4747 65.1585, 85.3284 65.1595, 86.2045 65.1268, 87.1032 65.0603, 87.4068 65.0614, 87.5694 65.2086, 87.5919 65.502 L 87.5919 65.6329 Z" stroke="none" fill="#000000" />
			<path d="M 4.27012 5.70916 L -3.40953 5.70916, -3.40953 5.20535 C -3.40953 5.16928, -3.39064 5.11432, -3.35285 5.04047 L -0.267596 1.68785 C 0.0970931 1.28538, 0.466362 0.873169, 0.840783 0.451802, 1.2152 0.0304351, 1.5507 -0.400093, 1.84611 -0.83978, 2.14153 -1.27947, 2.3774 -1.7329, 2.55373 -2.20006, 2.73007 -2.66723, 2.81766 -3.1573, 2.81766 -3.67084, 2.81766 -4.10366, 2.76098 -4.50842, 2.64762 -4.88399, 2.53427 -5.25956, 2.3711 -5.58932, 2.15698 -5.87329, 1.94344 -6.15725, 1.67607 -6.38625, 1.35547 -6.5603, 1.03486 -6.73434, 0.663305 -6.82136, 0.241938 -6.82194, -0.386678 -6.82136, -0.942012 -6.63358, -1.42349 -6.25801, -1.9044 -5.88245, -2.22386 -5.46852, -2.3813 -5.01738, -2.41222 -5.00479, -2.36184 -4.99849, -2.23016 -4.99906 L -2.06986 -4.99906 C -1.88093 -4.95555, -1.71776 -4.88971, -1.57922 -4.80155, -1.44067 -4.71281, -1.32445 -4.59086, -1.22998 -4.43514, -1.13552 -4.27942, -1.08857 -4.09164, -1.08857 -3.87236, -1.08857 -3.50539, -1.20766 -3.22428, -1.44697 -3.02906, -1.68627 -2.83326, -1.95364 -2.73593, -2.24905 -2.73651, -2.53187 -2.73593, -2.79637 -2.83326, -3.04141 -3.02906, -3.28644 -3.22428, -3.40953 -3.50539, -3.40953 -3.87236, -3.40953 -4.38476, -3.30877 -4.87025, -3.10724 -5.32826, -2.90572 -5.78626, -2.63263 -6.18301, -2.28684 -6.51908, -1.94104 -6.85457, -1.53227 -7.12021, -1.06052 -7.31601, -0.588773 -7.51124, -0.0884004 -7.60914, 0.440026 -7.60971, 1.09441 -7.60914, 1.69382 -7.51295, 2.23771 -7.32059, 2.78159 -7.12823, 3.24532 -6.85171, 3.62891 -6.4916, 4.01249 -6.13092, 4.31305 -5.71413, 4.53004 -5.24124, 4.74702 -4.76777, 4.85522 -4.2445, 4.85522 -3.67084, 4.85522 -3.03536, 4.71095 -2.45025, 4.42126 -1.9161, 4.13214 -1.38137, 3.77375 -0.891306, 3.34609 -0.445893, 2.91842 9.20296e-005, 2.46385 0.419742, 1.98237 0.813628, 1.50146 1.20751, 1.06578 1.59052, 0.6759 1.96266 L -1.49448 4.00537, 1.34574 4.00537 C 1.74191 4.00594, 2.11175 4.00308, 2.45412 3.99678, 2.79705 3.99106, 3.08788 3.97846, 3.32719 3.96014, 3.5665 3.94182, 3.68902 3.9298, 3.69474 3.92293, 3.74513 3.88056, 3.79264 3.79526, 3.83673 3.66702, 3.88081 3.53877, 3.92146 3.38763, 3.95924 3.21359, 3.99703 3.03955, 4.03482 2.86264, 4.0726 2.6823, 4.11039 2.50253, 4.14474 2.30502, 4.17623 2.0909 L 4.87411 2.0909 Z" stroke="none" fill="#000000" transform="matrix(1.12 0 0 1 89.6086 87.3139)" />
			<path d="M 104.811 88.0098 C 104.811 89.2857, 104.55 90.491, 104.028 91.6248, 103.505 92.7596, 102.772 93.7625, 101.829 94.6346, 101.728 94.7, 101.616 94.7327, 101.491 94.7327, 101.402 94.7327, 101.285 94.7, 101.137 94.6346 L 101.054 94.5037 C 100.964 94.4168, 100.919 94.3187, 100.919 94.2093, 100.919 94.1111, 100.964 93.9966, 101.054 93.8658, 101.907 93.0806, 102.562 92.1871, 103.016 91.1832, 103.471 90.1802, 103.698 89.1221, 103.698 88.0098, 103.698 87.9342, 103.693 87.8503, 103.682 87.7573, 103.671 87.6653, 103.665 87.7215, 103.665 87.928, 103.486 88.1356, 103.071 88.2388, 102.418 88.2388, 101.767 88.2388, 101.273 88.0384, 100.936 87.6346, 100.599 87.2318, 100.43 86.784, 100.43 86.2923, 100.43 85.8026, 100.599 85.3589, 100.936 84.9602, 101.273 84.5625, 101.767 84.3631, 102.418 84.3621, 102.901 84.3631, 103.295 84.4858, 103.597 84.7312, 103.901 84.9765, 104.142 85.274, 104.322 85.6227, 104.502 85.9723, 104.629 86.3587, 104.701 86.784, 104.775 87.2093, 104.811 87.6183, 104.811 88.0098 Z" stroke="none" fill="#000000" />
			<path d="M 134.101 72.4703 C 134.068 72.6134, 133.994 72.7361, 133.882 72.8393, 133.769 72.9436, 133.647 72.9947, 133.512 72.9937, 133.467 73.0162, 133.411 73.0274, 133.343 73.0264, 133.208 73.0274, 133.141 73.0162, 133.141 72.9937, 132.86 72.9947, 132.708 72.8751, 132.686 72.6338 L 132.686 72.5193 C 132.753 72.0082, 132.809 71.4898, 132.854 70.9654, 132.899 70.5626, 132.922 70.1925, 132.922 69.8531 L 132.922 69.575 C 132.899 69.1395, 132.846 68.75, 132.762 68.4065, 132.679 68.063, 132.529 67.7716, 132.316 67.5303, 131.888 67.0294, 131.253 66.7329, 130.411 66.6399, 129.569 66.5479, 128.67 66.5008, 127.715 66.4998 L 124.093 66.4998 C 123.498 66.5008, 123.15 66.5448, 123.049 66.6307, 122.993 66.6756, 122.88 66.9967, 122.712 67.5957 L 120.622 75.5782, 122.948 75.5782 C 123.578 75.5792, 124.15 75.5526, 124.666 75.4974, 125.184 75.4432, 125.627 75.2796, 125.998 75.0057, 126.335 74.7337, 126.59 74.3524, 126.764 73.8617, 126.938 73.3709, 127.11 72.8097, 127.278 72.1758, 127.401 71.8497, 127.615 71.6912, 127.917 71.7015 L 128.204 71.7015 C 128.519 71.7025, 128.676 71.8446, 128.676 72.1268 L 128.676 72.2413, 126.57 80.3382 C 126.503 80.6776, 126.284 80.8412, 125.913 80.8289 L 125.643 80.8289 C 125.329 80.8299, 125.171 80.6991, 125.171 80.4363, 125.171 80.3719, 125.189 80.3116, 125.222 80.2564, 125.369 79.6471, 125.475 79.0848, 125.543 78.5716, 125.565 78.4417, 125.576 78.3272, 125.576 78.2281, 125.576 77.9234, 125.509 77.6781, 125.374 77.492, 125.184 77.2313, 124.843 77.0759, 124.355 77.0268, 123.866 76.9778, 123.319 76.9532, 122.712 76.9522 L 120.286 76.9522, 117.977 85.9161 C 117.865 86.2984, 117.809 86.5826, 117.809 86.7666 L 117.809 86.8321 C 117.854 86.8771, 118.168 86.9036, 118.752 86.9139 L 122.611 86.9139 C 123.61 86.9149, 124.58 86.8474, 125.517 86.7104, 126.456 86.5744, 127.329 86.2279, 128.136 85.6707, 128.496 85.41, 128.84 85.0614, 129.165 84.6248, 129.491 84.1893, 129.8 83.7068, 130.092 83.1772, 130.384 82.6487, 130.661 82.0874, 130.925 81.4924, 131.189 80.8984, 131.451 80.3116, 131.708 79.733, 131.798 79.4723, 131.996 79.3414, 132.298 79.3404 L 132.584 79.3404 C 132.899 79.3414, 133.057 79.4835, 133.057 79.7657 L 133.057 79.8965, 129.704 87.879 C 129.581 88.1407, 129.378 88.2715, 129.097 88.2715 L 111.575 88.2715 C 111.407 88.2715, 111.283 88.2225, 111.204 88.1243, 111.127 88.0487, 111.088 87.9669, 111.087 87.879, 111.088 87.8145, 111.099 87.7491, 111.12 87.6827 L 111.188 87.4373 C 111.222 87.2962, 111.3 87.1746, 111.424 87.0703, 111.548 86.967, 111.688 86.9149, 111.844 86.9139, 112.373 86.9149, 112.868 86.9067, 113.328 86.8904, 113.788 86.874, 114.136 86.8167, 114.371 86.7176, 114.574 86.6092, 114.731 86.3148, 114.844 85.8343 L 119.578 67.514 C 119.646 67.2747, 119.679 67.0846, 119.679 66.9415, 119.679 66.8116, 119.652 66.7349, 119.595 66.7124, 119.437 66.6153, 119.128 66.556, 118.668 66.5335, 118.208 66.5121, 117.714 66.5008, 117.185 66.4998, 116.871 66.5008, 116.714 66.3536, 116.714 66.0582 L 116.714 65.9436, 116.781 65.6656 C 116.871 65.3067, 117.091 65.1268, 117.439 65.1258 L 134.505 65.1258 C 134.787 65.1268, 134.938 65.2628, 134.96 65.5347 L 134.96 65.6492 Z" stroke="none" fill="#000000" />
			<path d="M 4.27012 5.70916 L -3.40953 5.70916, -3.40953 5.20535 C -3.40953 5.16928, -3.39064 5.11432, -3.35285 5.04047 L -0.267596 1.68785 C 0.0970931 1.28538, 0.466362 0.873169, 0.840783 0.451802, 1.2152 0.0304351, 1.5507 -0.400093, 1.84611 -0.83978, 2.14153 -1.27947, 2.3774 -1.7329, 2.55373 -2.20006, 2.73007 -2.66723, 2.81766 -3.1573, 2.81766 -3.67084, 2.81766 -4.10366, 2.76098 -4.50842, 2.64762 -4.88399, 2.53427 -5.25956, 2.3711 -5.58932, 2.15698 -5.87329, 1.94344 -6.15725, 1.67607 -6.38625, 1.35547 -6.5603, 1.03486 -6.73434, 0.663305 -6.82136, 0.241938 -6.82194, -0.386678 -6.82136, -0.942012 -6.63358, -1.42349 -6.25801, -1.9044 -5.88245, -2.22386 -5.46852, -2.3813 -5.01738, -2.41222 -5.00479, -2.36184 -4.99849, -2.23016 -4.99906 L -2.06986 -4.99906 C -1.88093 -4.95555, -1.71776 -4.88971, -1.57922 -4.80155, -1.44067 -4.71281, -1.32445 -4.59086, -1.22998 -4.43514, -1.13552 -4.27942, -1.08857 -4.09164, -1.08857 -3.87236, -1.08857 -3.50539, -1.20766 -3.22428, -1.44697 -3.02906, -1.68627 -2.83326, -1.95364 -2.73593, -2.24905 -2.73651, -2.53187 -2.73593, -2.79637 -2.83326, -3.04141 -3.02906, -3.28644 -3.22428, -3.40953 -3.50539, -3.40953 -3.87236, -3.40953 -4.38476, -3.30877 -4.87025, -3.10724 -5.32826, -2.90572 -5.78626, -2.63263 -6.18301, -2.28684 -6.51908, -1.94104 -6.85457, -1.53227 -7.12021, -1.06052 -7.31601, -0.588773 -7.51124, -0.0884004 -7.60914, 0.440026 -7.60971, 1.09441 -7.60914, 1.69382 -7.51295, 2.23771 -7.32059, 2.78159 -7.12823, 3.24532 -6.85171, 3.62891 -6.4916, 4.01249 -6.13092, 4.31305 -5.71413, 4.53004 -5.24124, 4.74702 -4.76777, 4.85522 -4.2445, 4.85522 -3.67084, 4.85522 -3.03536, 4.71095 -2.45025, 4.42126 -1.9161, 4.13214 -1.38137, 3.77375 -0.891306, 3.34609 -0.445893, 2.91842 9.20296e-005, 2.46385 0.419742, 1.98237 0.813628, 1.50146 1.20751, 1.06578 1.59052, 0.6759 1.96266 L -1.49448 4.00537, 1.34574 4.00537 C 1.74191 4.00594, 2.11175 4.00308, 2.45412 3.99678, 2.79705 3.99106, 3.08788 3.97846, 3.32719 3.96014, 3.5665 3.94182, 3.68902 3.9298, 3.69474 3.92293, 3.74513 3.88056, 3.79264 3.79526, 3.83673 3.66702, 3.88081 3.53877, 3.92146 3.38763, 3.95924 3.21359, 3.99703 3.03955, 4.03482 2.86264, 4.0726 2.6823, 4.11039 2.50253, 4.14474 2.30502, 4.17623 2.0909 L 4.87411 2.0909 Z" stroke="none" fill="#000000" transform="matrix(1.12 0 0 1 140.35 87.3139)" />
			<path d="M 2.77742 16.2002 C -8.14358 8.91013, -8.14358 -8.91013, 2.77742 -16.2002 L 4.49262 -16.2002 C -5.35638 -8.91013, -5.35638 8.91013, 4.49262 16.2002" stroke="none" fill="#000000" transform="matrix(1 0 -0 1 5.025 78.2088)" />
			<path d="M 2.77742 16.2002 C -8.14358 8.91013, -8.14358 -8.91013, 2.77742 -16.2002 L 4.49262 -16.2002 C -5.35638 -8.91013, -5.35638 8.91013, 4.49262 16.2002" stroke="none" fill="#000000" transform="matrix(-1 1.50996e-007 -1.50996e-007 -1 151.677 78.2088)" />
			<rect />
		</svg>
	</g>
</svg>
