<?xml version="1.0"?>
<svg xmlns="http://www.w3.org/2000/svg" xmlns:xlink="http://www.w3.org/1999/xlink" width="966.25" height="642.5">
	<defs>
		<marker id="CustomMarker-01" markerUnits="strokeWidth" markerWidth="21" markerHeight="12" viewBox="-21 -6 21 12" orient="auto-start-reverse">
			<path d="M 0 -0 L -14 -4, -14 -0.5, -14 0.5, -14 4 Z" fill="#000000" stroke="#000000" stroke-linejoin="round" />
		</marker>
		<marker id="CustomMarker-02" markerUnits="strokeWidth" markerWidth="21" markerHeight="12" viewBox="-21 -6 21 12" orient="auto-start-reverse">
			<path d="M 0 -0 L -14 -4, -14 -0.5, -14 0.5, -14 4 Z" fill="#000000" stroke="#000000" stroke-linejoin="round" />
		</marker>
		<marker id="CustomMarker-03" markerUnits="strokeWidth" markerWidth="21" markerHeight="12" viewBox="-21 -6 21 12" orient="auto-start-reverse">
			<path d="M 0 -0 L -14 -4, -14 -0.5, -14 0.5, -14 4 Z" fill="#000000" stroke="#000000" stroke-linejoin="round" />
		</marker>
	</defs>
	<path d="M 0 0 L 0 -342.518" fill="none" stroke="#000000" stroke-width="0.600000024" stroke-linecap="round" stroke-linejoin="round" marker-end="url(#CustomMarker-01)" transform="matrix(1.25 0 -0 1.25 319.572 467.085)" />
	<path d="M 0 0 L -161.663 101.483" fill="none" stroke="#000000" stroke-width="0.600000024" stroke-linecap="round" stroke-linejoin="round" marker-end="url(#CustomMarker-02)" transform="matrix(1.25 0 -0 1.25 319.572 467.085)" />
	<path d="M 0 0 L 433.938 0" fill="none" stroke="#000000" stroke-width="0.600000024" stroke-linecap="round" stroke-linejoin="round" marker-end="url(#CustomMarker-03)" transform="matrix(1.25 0 -0 1.25 319.572 467.085)" />
	<path d="M 147.538 -0 C 147.538 20.766, 81.4831 37.6001, -0 37.6001, -81.4831 37.6001, -147.538 20.766, -147.538 -0, -147.538 -20.766, -81.4831 -37.6001, -0 -37.6001, 81.4831 -37.6001, 147.538 -20.766, 147.538 -0 Z" stroke="none" fill="#FFFFFF" fill-opacity="0" transform="matrix(1.25 0 0 1.25 319.572 467.085)" />
	<path d="M 147.538 -0 C 147.538 20.766, 81.4831 37.6001, -0 37.6001, -81.4831 37.6001, -147.538 20.766, -147.538 -0, -147.538 -20.766, -81.4831 -37.6001, -0 -37.6001, 81.4831 -37.6001, 147.538 -20.766, 147.538 -0 Z" fill="none" stroke="#000000" stroke-width="0.800000012" stroke-linecap="round" stroke-linejoin="round" transform="matrix(1.25 0 0 1.25 319.572 467.085)" />
	<path d="M 0 102.6 L 0 -102.6" fill="none" stroke="#000000" stroke-width="0.400000006" stroke-linecap="round" stroke-linejoin="round" stroke-dasharray="1.402, 0.998" transform="matrix(1.25 0 0 1.25 503.995 338.835)" />
	<path d="M 0 0 C 28.3375 -11.6001, 58.1176 -72.1844, 67.2519 -113.3" fill="none" stroke="#000000" stroke-width="0.800000012" stroke-linecap="round" stroke-linejoin="round" transform="matrix(1.25 0 0 1.25 319.572 467.085)" />
	<path d="M 0 0 C 8.29602 6.37036, 26.0879 108.413, 87.2549 36.5252" fill="none" stroke="#000000" stroke-width="0.800000012" stroke-linecap="round" stroke-linejoin="round" transform="matrix(1.25 0 0 1.25 440.329 132.588)" />
	<path d="M 0 0 C 14.5396 -16.0298, 26.3877 -21.211, 48.9692 -33.2108" fill="none" stroke="#000000" stroke-width="0.800000012" stroke-linecap="round" stroke-linejoin="round" transform="matrix(1.25 0 0 1.25 549.398 178.245)" />
	<path d="M 0 0 C 0 -159.205, 55.6007 -48.4054, 44.0789 -53.708" fill="none" stroke="#000000" stroke-width="0.800000012" stroke-linecap="round" stroke-linejoin="round" stroke-dasharray="2.804, 1.996" transform="matrix(1.25 0 0 1.25 477.126 318.085)" />
	<path d="M 0 0 C -67.4185 16.6483, -41.3921 27.9815, -20.4375 27.9815" fill="none" stroke="#000000" stroke-width="0.800000012" stroke-linecap="round" stroke-linejoin="round" transform="matrix(1.25 0 0 1.25 651.846 123.231)" />
	<path d="M 0 0 C 46.3623 4.80759, 57.5504 -17.4199, 25.978 -21.604" fill="none" stroke="#000000" stroke-width="0.800000012" stroke-linecap="round" stroke-linejoin="round" transform="matrix(1.25 0 0 1.25 385.588 149.019)" />
	<path d="M 0 0 L 257.146 -15.1768" fill="none" stroke="#000000" stroke-width="0.800000012" stroke-linecap="round" stroke-linejoin="round" transform="matrix(1.25 0 0 1.25 344.813 329.056)" />
	<path d="M 0 0 C 0.311401 4.64825, 0 12.0767, -0.846313 20.6307" fill="none" stroke="#000000" stroke-width="0.800000012" stroke-linecap="round" stroke-linejoin="round" transform="matrix(1.25 0 0 1.25 417.672 123.231)" />
	<path d="M 0 0 C -11.3203 76.6077, -20.8986 106.56, -29.3536 152.445" fill="none" stroke="#000000" stroke-width="0.800000012" stroke-linecap="round" stroke-linejoin="round" stroke-dasharray="2.804, 1.996" transform="matrix(1.25 0 0 1.25 440.329 134.904)" />
	<path d="M 0 0 C 16.2017 67.1916, 22.7891 102.895, 31.7914 131.677" fill="none" stroke="#000000" stroke-width="0.800000012" stroke-linecap="round" stroke-linejoin="round" stroke-dasharray="2.804, 1.996" transform="matrix(1.25 0 0 1.25 597.812 145.922)" />
	<path d="M 0 0 C 27.7972 71.9167, 57.1372 113.654, 103.682 120.363" fill="none" stroke="#000000" stroke-width="0.800000012" stroke-linecap="round" stroke-linejoin="round" transform="matrix(1.25 0 0 1.25 637.552 310.518)" />
	<path d="M 0 0 C 5.04529 41.9019, 13.7758 89.8991, 31.958 121.502" fill="none" stroke="#000000" stroke-width="0.800000012" stroke-linecap="round" stroke-linejoin="round" transform="matrix(1.25 0 0 1.25 626.299 158.208)" />
	<path d="M 0 0 L 39.1678 -2.31152" fill="none" stroke="#000000" stroke-width="0.800000012" stroke-linecap="round" stroke-linejoin="round" transform="matrix(1.25 0 0 1.25 651.846 276.828)" />
	<path d="M 0 0 C -6.66174 39.0836, 19.584 95.9245, 39.1678 120.567" fill="none" stroke="#000000" stroke-width="0.800000012" stroke-linecap="round" stroke-linejoin="round" transform="matrix(1.25 0 0 1.25 651.846 123.231)" />
	<path d="M -106.504 6.28564 L 106.502 -6.28613" fill="none" stroke="#000000" stroke-width="0.800000012" stroke-linecap="round" stroke-linejoin="round" stroke-dasharray="2.804, 1.996" transform="matrix(1.25 0 0 1.25 518.718 284.686)" />
	<path d="M 0 0 C -1.92627 38.1551, -11.4609 85.4003, -24.8203 114.819" fill="none" stroke="#000000" stroke-width="0.800000012" stroke-linecap="round" stroke-linejoin="round" stroke-dasharray="2.804, 1.996" transform="matrix(1.25 0 0 1.25 416.614 149.019)" />
	<path d="M 0 0 C 24.8145 -48.7613, 32.6201 -105.875, 32.6201 -144.03" fill="none" stroke="#000000" stroke-width="0.800000012" stroke-linecap="round" stroke-linejoin="round" transform="matrix(1.25 0 0 1.25 344.813 329.056)" />
	<g transform="matrix(1 0 -0 1 505.151 461.534)">
		<svg width="86.9441757" height="65.9581299">
			<defs />
			<path d="M 16.2971 17.6771 C 16.1744 18.1689, 15.924 18.5369, 15.5477 18.7823, 15.1715 19.0276, 14.7932 19.1503, 14.4109 19.1493, 14.0183 19.1503, 13.6922 19.0246, 13.4335 18.7731, 13.2434 18.5891, 13.1422 18.3488, 13.1299 18.0534, 13.1299 17.9348, 13.1524 17.7814, 13.1974 17.5954, 13.3211 17.1823, 13.5123 16.8685, 13.7699 16.6558, 14.0285 16.4432, 14.2085 16.3205, 14.3097 16.2868, 14.097 16.1242, 13.6584 16.0424, 12.9949 16.0414, 12.4112 16.0424, 11.8888 16.345, 11.4287 16.9503, 10.9687 17.5555, 10.6252 18.2834, 10.4003 19.1329 L 8.85039 25.1198 C 8.69295 25.7209, 8.57538 26.2934, 8.49666 26.8373, 8.45168 27.0234, 8.42918 27.1869, 8.42918 27.328, 8.42918 27.6674, 8.48541 27.9884, 8.59787 28.2931, 8.71033 28.6213, 8.87901 28.883, 9.10393 29.0793, 9.32884 29.2756, 9.6151 29.3737, 9.96269 29.3727, 10.4125 29.3737, 10.845 29.2572, 11.26 29.022, 11.6761 28.7879, 12.0585 28.472, 12.4061 28.0733, 12.7537 27.6756, 13.0624 27.2125, 13.3323 26.6829, 13.6022 26.1544, 13.8149 25.6115, 13.9723 25.0543, 14.0398 24.7722, 14.231 24.6301, 14.5448 24.629 L 14.9323 24.629 C 15.2247 24.6301, 15.3709 24.7395, 15.3709 24.9562, 15.3709 25.0226, 15.3545 25.083, 15.3208 25.1361, 15.1633 25.7914, 14.9077 26.4376, 14.554 27.0755, 14.2003 27.7134, 13.7883 28.2778, 13.316 28.7685, 12.8436 29.2592, 12.3079 29.663, 11.7068 29.9779, 11.1057 30.2948, 10.4626 30.4523, 9.77765 30.4523, 9.08144 30.4523, 8.4803 30.303, 7.97527 30.0025, 7.47023 29.7039, 7.05925 29.3134, 6.74437 28.8329, 6.64418 28.7143, 6.56546 28.5916, 6.50923 28.4659, 6.453 28.3412, 6.43562 28.3217, 6.45811 28.4076, 6.18924 28.8554, 5.76292 29.3083, 5.17815 29.7663, 4.59439 30.2243, 3.92067 30.4523, 3.15596 30.4523, 2.72965 30.4523, 2.30844 30.3981, 1.89235 30.2887, 1.47728 30.1803, 1.11435 30.0117, 0.805603 29.7827, 0.496857 29.5536, 0.263764 29.2756, 0.106324 28.9474, 0.0286259 28.7521, -0.010223 28.5395, -0.0112453 28.3095, -0.010223 28.1469, 0.0122684 27.9557, 0.056229 27.737, 0.179932 27.2473, 0.43245 26.8792, 0.814804 26.6339, 1.19716 26.3885, 1.57849 26.2658, 1.95982 26.2648, 2.35342 26.2658, 2.6908 26.3916, 2.97092 26.641, 3.16209 26.8271, 3.25717 27.0673, 3.25717 27.3607, 3.25717 27.5141, 3.23468 27.6674, 3.1897 27.8187, 3.08951 28.2011, 2.90651 28.5098, 2.64275 28.744, 2.37898 28.9791, 2.18985 29.1069, 2.07739 29.1273, 2.29106 29.3032, 2.72351 29.385, 3.37474 29.3727, 3.95952 29.3737, 4.48705 29.0691, 4.95834 28.4577, 5.43066 27.8474, 5.77315 27.1164, 5.98682 26.2648 L 7.55304 20.2453 C 7.71048 19.6789, 7.83418 19.1227, 7.92415 18.5768, 7.94664 18.403, 7.95789 18.2394, 7.95789 18.0861, 7.95789 17.7487, 7.90779 17.4328, 7.80556 17.1373, 7.69412 16.8112, 7.52032 16.5475, 7.28416 16.345, 7.048 16.1436, 6.75562 16.0424, 6.40802 16.0414, 5.95819 16.0424, 5.52267 16.16, 5.10147 16.3941, 4.68027 16.6292, 4.29587 16.9421, 3.94827 17.3347, 3.60068 17.7272, 3.29193 18.1832, 3.02203 18.7005, 2.75214 19.2188, 2.55585 19.7668, 2.43112 20.3434, 2.30844 20.6389, 2.10091 20.7912, 1.80852 20.8014 L 1.43741 20.8014 C 1.16853 20.8024, 1.03358 20.6665, 1.03358 20.3925 L 1.03358 20.278 C 1.20227 19.6032, 1.46092 18.9459, 1.80852 18.3079, 2.15611 17.67, 2.5722 17.1057, 3.05475 16.6149, 3.53832 16.1242, 4.07811 15.7234, 4.67311 15.4127, 5.26811 15.1019, 5.91423 14.9465, 6.60942 14.9454, 7.28416 14.9465, 7.87917 15.0937, 8.39545 15.3881, 8.91275 15.6826, 9.33395 16.0751, 9.65906 16.5648, 9.72653 16.6855, 9.78889 16.8143, 9.84512 16.9503, 9.90135 17.0872, 9.91771 17.122, 9.89522 17.0556, 10.1764 16.5771, 10.6088 16.1058, 11.1926 15.6417, 11.7773 15.1785, 12.4449 14.9465, 13.1974 14.9454, 13.6247 14.9465, 14.048 14.9986, 14.4692 15.1019, 14.8904 15.2061, 15.2564 15.3718, 15.5651 15.6008, 15.8739 15.8298, 16.1018 16.113, 16.247 16.4503, 16.3257 16.6476, 16.3646 16.8715, 16.3646 17.121, 16.3646 17.2856, 16.3421 17.4706, 16.2971 17.6771 Z" stroke="none" fill="#000000" />
			<path d="M 5.09308 -0.666309 C 5.09308 0.213638, 5.03183 1.08843, 4.90931 1.95865, 4.78679 2.82886, 4.48336 3.64583, 3.99902 4.40842, 3.65322 4.9649, 3.19063 5.39199, 2.6124 5.69084, 2.03416 5.99026, 1.40498 6.13969, 0.725408 6.13969, 0.0716014 6.13969, -0.546136 5.99026, -1.12781 5.69084, -1.70948 5.39199, -2.17378 4.9649, -2.51958 4.40842, -3.00335 3.64583, -3.30678 2.82886, -3.4293 1.95865, -3.55181 1.08843, -3.61364 0.213638, -3.61364 -0.666309, -3.61364 -1.55713, -3.55181 -2.44739, -3.4293 -3.33592, -3.30678 -4.22446, -3.00335 -5.05631, -2.51958 -5.83264, -2.17378 -6.3937, -1.71119 -6.83052, -1.13296 -7.14197, -0.554152 -7.45341, 0.0653038 -7.60914, 0.725408 -7.60971, 1.39868 -7.60914, 2.02558 -7.45341, 2.60725 -7.14197, 3.18892 -6.83052, 3.65322 -6.3937, 3.99902 -5.83264, 4.48336 -5.05631, 4.78679 -4.22446, 4.90931 -3.33592, 5.03183 -2.44739, 5.09308 -1.55713, 5.09308 -0.666309 Z M 3.22499 -0.986915 C 3.22499 -1.37107, 3.22212 -1.77698, 3.21583 -2.20464, 3.2101 -2.63174, 3.19407 -3.05024, 3.16888 -3.45958, 3.14369 -3.86836, 3.09846 -4.2548, 3.03205 -4.61834, 2.96621 -4.98132, 2.88606 -5.29162, 2.7916 -5.54867, 2.60267 -5.96317, 2.32615 -6.30381, 1.96146 -6.56946, 1.59677 -6.8351, 1.18456 -6.96792, 0.725408 -6.9685, 0.27885 -6.96792, -0.124769 -6.83338, -0.486595 -6.56488, -0.847849 -6.2958, -1.12323 -5.95744, -1.31215 -5.54867, -1.40605 -5.29162, -1.4862 -4.98132, -1.55261 -4.61834, -1.61845 -4.2548, -1.66425 -3.86836, -1.68944 -3.45958, -1.71463 -3.05024, -1.73009 -2.63174, -1.73638 -2.20464, -1.74268 -1.77698, -1.74612 -1.37107, -1.74612 -0.986915, -1.74612 -0.558678, -1.74268 -0.108112, -1.73638 0.36478, -1.73009 0.838246, -1.71463 1.29625, -1.68944 1.7388, -1.66425 2.18193, -1.61845 2.60158, -1.55261 2.99833, -1.4862 3.39565, -1.40605 3.72828, -1.31215 3.99621, -1.13582 4.44277, -0.863307 4.80917, -0.495756 5.096, -0.128204 5.3834, 0.27885 5.52653, 0.725408 5.52596, 1.19086 5.52653, 1.60765 5.3834, 1.9752 5.096, 2.34332 4.80917, 2.61526 4.44277, 2.7916 3.99621, 2.88606 3.72828, 2.96621 3.39565, 3.03205 2.99833, 3.09846 2.60158, 3.14369 2.18193, 3.16888 1.7388, 3.19407 1.29625, 3.2101 0.838246, 3.21583 0.36478, 3.22212 -0.108112, 3.22499 -0.558678, 3.22499 -0.986915 Z" stroke="none" fill="#000000" transform="matrix(1.12 0 0 1 21.7365 29.1184)" />
			<rect />
		</svg>
	</g>
	<g transform="matrix(1 0 -0 1 868.678 451.632)">
		<svg width="267.111603" height="98.9999847">
			<defs />
			<path d="M 24.3509 27.7278 C 24.3509 28.2083, 24.2783 28.6939, 24.1321 29.1846, 23.987 29.6753, 23.7764 30.1119, 23.5003 30.4932, 23.2253 30.8756, 22.8859 31.1853, 22.481 31.4246, 22.0772 31.6648, 21.6059 31.7844, 21.0661 31.7844, 20.2012 31.7844, 19.3956 31.6812, 18.6483 31.4736, 17.902 31.2671, 17.2559 30.9533, 16.711 30.5341, 16.1661 30.115, 15.7387 29.5997, 15.43 28.9883, 15.1212 28.378, 14.9669 27.6583, 14.9669 26.8281 L 14.9669 23.8838 C 14.9669 23.3501, 14.8636 22.8441, 14.655 22.3636, 14.4475 21.8841, 14.1531 21.4639, 13.7707 21.1041, 13.3894 20.7442, 12.9518 20.4641, 12.457 20.2617, 11.9622 20.0603, 11.4398 19.959, 10.8898 19.958 L 6.84642 19.958, 6.84642 28.6438 C 6.84642 28.8411, 6.88629 29.019, 6.96399 29.1764, 7.04271 29.3349, 7.16028 29.4412, 7.31772 29.4944, 7.61011 29.5936, 8.04358 29.6508, 8.61609 29.6672, 9.1886 29.6835, 9.77235 29.6917, 10.3674 29.6907 L 10.3674 31.0483 C 8.57008 30.9829, 6.83518 30.9502, 5.16161 30.9502, 3.51053 30.9502, 1.78584 30.9829, -0.0114283 31.0483 L -0.0114283 29.6907 C 0.607087 29.6917, 1.20004 29.6835, 1.76642 29.6672, 2.33382 29.6508, 2.75809 29.5936, 3.03821 29.4944, 3.19565 29.4412, 3.31935 29.3318, 3.40932 29.1683, 3.49928 29.0047, 3.54427 28.8299, 3.54427 28.6438 L 3.54427 10.209 C 3.54427 10.0137, 3.50235 9.83686, 3.4175 9.6784, 3.33366 9.52096, 3.20689 9.41361, 3.03821 9.35841, 2.74684 9.26129, 2.32053 9.2071, 1.75824 9.19586, 1.19698 9.18563, 0.607087 9.1795, -0.0114283 9.17848 L -0.0114283 7.83717, 10.8898 7.83717 C 12.0471 7.83819, 13.1808 7.97518, 14.2931 8.24713, 15.4054 8.52009, 16.4441 8.98832, 17.4102 9.65284, 18.1852 10.1773, 18.8344 10.8132, 19.3558 11.5595, 19.8782 12.3068, 20.1389 13.1329, 20.1389 14.0366, 20.1389 14.921, 19.8731 15.7255, 19.3394 16.4504, 18.8057 17.1762, 18.1576 17.7784, 17.3929 18.2568, 16.8653 18.6065, 16.3102 18.8938, 15.7254 19.1166, 15.1417 19.3405, 14.7368 19.4734, 14.5119 19.5164, 15.2541 19.7464, 16.0342 20.2208, 16.8541 20.9405, 17.674 21.6602, 18.1801 22.6089, 18.3702 23.7857 L 18.8589 26.73 C 19.0613 27.9742, 19.3006 28.9505, 19.5756 29.659, 19.8506 30.3685, 20.3474 30.7222, 21.0661 30.7212, 21.6734 30.7222, 22.1703 30.4278, 22.5577 29.8389, 22.9452 29.2501, 23.1384 28.5467, 23.1384 27.7278, 23.1384 27.369, 23.3245 27.1941, 23.6946 27.2044 L 23.7958 27.2044 C 24.1659 27.2054, 24.3509 27.3802, 24.3509 27.7278 Z M 16.2468 14.0366 C 16.2468 13.3721, 16.163 12.7239, 15.9943 12.0911, 15.8266 11.4593, 15.4893 10.9349, 14.9832 10.5198, 14.3882 9.99737, 13.692 9.64364, 12.8946 9.45757, 12.0972 9.27253, 11.2834 9.1795, 10.4512 9.17848 L 8.44638 9.17848 C 8.18875 9.1795, 7.92499 9.18563, 7.65509 9.19586, 7.38519 9.2071, 7.1889 9.25617, 7.0652 9.34205, 6.96501 9.41975, 6.90265 9.54243, 6.88016 9.71111, 6.85767 9.88082, 6.84642 10.0464, 6.84642 10.209 L 6.84642 18.8948, 10.4512 18.8948 C 11.2936 18.8958, 12.1115 18.8038, 12.9028 18.6177, 13.6951 18.4327, 14.3882 18.0779, 14.9832 17.5535, 15.4893 17.1292, 15.8266 16.6058, 15.9943 15.9842, 16.163 15.3626, 16.2468 14.7134, 16.2468 14.0366 Z" stroke="none" fill="#000000" />
			<path d="M 38.9067 26.8936 C 38.8178 27.6031, 38.5908 28.2359, 38.2258 28.792, 37.8608 29.3482, 37.409 29.8226, 36.8692 30.2151, 36.3304 30.6077, 35.7293 30.9073, 35.0668 31.1138, 34.4043 31.3213, 33.7194 31.4246, 33.0119 31.4246, 31.9568 31.4246, 30.9519 31.2232, 29.997 30.8204, 29.0422 30.4176, 28.1997 29.8502, 27.4698 29.1182, 26.7061 28.3555, 26.1387 27.4998, 25.7686 26.5511, 25.3985 25.6024, 25.2125 24.5994, 25.2125 23.5403, 25.2125 22.5159, 25.3893 21.5324, 25.7431 20.5888, 26.0968 19.6462, 26.6274 18.7977, 27.3348 18.0442, 28.0096 17.3142, 28.7958 16.7509, 29.6934 16.3522, 30.592 15.9545, 31.5356 15.7552, 32.5232 15.7542, 33.3994 15.7552, 34.2499 15.9024, 35.075 16.1968, 35.901 16.4913, 36.6279 16.9707, 37.2566 17.6353, 37.8854 18.3775, 38.3178 19.1933, 38.553 20.0817, 38.7891 20.9712, 38.9067 21.8677, 38.9067 22.7715, 38.9067 23.1324, 38.7217 23.3123, 38.3516 23.3113 L 28.4134 23.3113, 28.4134 23.5403 C 28.4134 24.3592, 28.487 25.1658, 28.6322 25.9612, 28.7671 26.8568, 29.0871 27.6634, 29.5922 28.3821, 30.0195 28.9393, 30.544 29.3891, 31.1676 29.7326, 31.7912 30.0761, 32.4506 30.2479, 33.1458 30.2468, 33.6744 30.2479, 34.1825 30.164, 34.6712 29.9943, 35.1598 29.8256, 35.6117 29.5833, 36.0268 29.2664, 36.4429 28.9505, 36.7935 28.5825, 37.0798 28.1623, 37.366 27.7431, 37.5766 27.2759, 37.7116 26.7627, 37.7791 26.502, 37.958 26.3711, 38.2504 26.3701 L 38.4354 26.3701 C 38.739 26.4366, 38.8965 26.6114, 38.9067 26.8936 Z M 36.2629 22.2808 C 36.2404 21.6163, 36.1617 20.9354, 36.0268 20.2371, 35.8918 19.5399, 35.6229 18.8907, 35.2181 18.2896, 34.9042 17.8326, 34.5117 17.4727, 34.0393 17.211, 33.568 16.9493, 33.063 16.8184, 32.5232 16.8174, 31.8945 16.8184, 31.3158 16.9881, 30.7883 17.3255, 30.2608 17.6639, 29.8171 18.1168, 29.4572 18.6832, 29.0984 19.2506, 28.851 19.8476, 28.716 20.4743, 28.5811 21.102, 28.4972 21.7042, 28.4635 22.2808 L 36.2629 22.2808 Z" stroke="none" fill="#000000" />
			<path d="M 73.5726 16.6211 C 72.9213 17.7784, 72.1495 18.8498, 71.2559 19.8364, 70.3634 20.8239, 69.428 21.7747, 68.4506 22.6907, 67.4733 23.6067, 66.4969 24.5176, 65.5196 25.4224, 64.5422 26.3282, 63.7448 27.1399, 63.1263 27.8587, 63.0936 27.8709, 63.2173 27.876, 63.4974 27.875, 63.935 27.876, 64.3255 27.9333, 64.668 28.0478, 65.0115 28.1623, 65.3366 28.2931, 65.6453 28.4404, 65.9541 28.5876, 66.2659 28.7133, 66.5808 28.8166, 66.8957 28.9209, 67.2095 28.972, 67.5234 28.971, 67.917 28.972, 68.3126 28.8984, 68.7113 28.7512, 69.11 28.6039, 69.4668 28.3974, 69.7817 28.1296, 70.0966 27.8627, 70.3767 27.552, 70.6241 27.1972, 70.8715 26.8435, 71.0504 26.4744, 71.1629 26.0921, 71.2304 25.7874, 71.4216 25.6351, 71.7354 25.634 L 72.1239 25.634 C 72.4163 25.6351, 72.5615 25.7547, 72.5615 25.9939, 72.5615 26.0604, 72.5451 26.1207, 72.5114 26.1738, 72.3539 26.8292, 72.1045 27.4702, 71.762 28.0969, 71.4195 28.7246, 71.0065 29.2828, 70.5229 29.7735, 70.0404 30.2642, 69.4985 30.668, 68.8974 30.9829, 68.2963 31.2998, 67.6593 31.4573, 66.9846 31.4573, 66.4346 31.4573, 66.0032 31.3182, 65.6883 31.0402, 65.3734 30.7631, 65.1015 30.4605, 64.8704 30.1334, 64.6404 29.8062, 64.4104 29.5261, 64.1793 29.2909, 63.9493 29.0568, 63.6487 28.9393, 63.2786 28.9382, 62.7961 28.9393, 62.335 29.1519, 61.8964 29.5772, 61.4589 30.0025, 61.0653 30.5208, 60.7177 31.1301, 60.594 31.3377, 60.414 31.4471, 60.1779 31.4573 L 59.6892 31.4573 C 59.4653 31.3489, 59.3539 31.2119, 59.3528 31.0483, 59.3539 30.9727, 59.3815 30.8909, 59.4367 30.803, 60.0889 29.6805, 60.8557 28.6234, 61.7369 27.6307, 62.6182 26.639, 63.5363 25.6841, 64.4911 24.7681, 65.446 23.8521, 66.4121 22.9504, 67.3895 22.061, 68.3668 21.1726, 69.198 20.3353, 69.8829 19.5491 L 70.0506 19.5491 C 69.613 19.5501, 69.2235 19.4877, 68.88 19.362, 68.5375 19.2373, 68.2094 19.1064, 67.8945 18.9694, 67.5806 18.8334, 67.2688 18.7077, 66.9601 18.5932, 66.6513 18.4787, 66.3334 18.4214, 66.0072 18.4204, 65.446 18.4214, 64.9348 18.5768, 64.4748 18.8876, 64.0147 19.1984, 63.7223 19.5777, 63.5986 20.0234, 63.5311 20.3301, 63.3349 20.4876, 63.0087 20.4978 L 62.6213 20.4978 C 62.3514 20.4988, 62.2164 20.3629, 62.2164 20.0889 L 62.2164 19.9744 C 62.3411 19.452, 62.5374 18.9561, 62.8073 18.4869, 63.0772 18.0186, 63.4023 17.5954, 63.7837 17.2192, 64.166 16.843, 64.5923 16.5383, 65.0647 16.3032, 65.537 16.069, 66.0359 15.9515, 66.5634 15.9504, 67.1144 15.9515, 67.5438 16.0936, 67.8526 16.3768, 68.1613 16.661, 68.4373 16.9605, 68.6786 17.2764, 68.9199 17.5933, 69.153 17.8735, 69.3779 18.1188, 69.6028 18.3642, 69.8942 18.4869, 70.253 18.4858, 70.5904 18.4869, 70.9165 18.2855, 71.2314 17.8816, 71.5463 17.4788, 71.899 16.938, 72.2916 16.2612, 72.4388 16.0547, 72.6126 15.9515, 72.814 15.9504 L 73.1851 15.9504 C 73.365 15.9515, 73.4938 16.0281, 73.5726 16.1795, 73.595 16.2347, 73.6175 16.295, 73.64 16.3594, 73.64 16.4371, 73.6175 16.524, 73.5726 16.6211 Z" stroke="none" fill="#000000" />
			<path d="M 1.25308 -15.5837 C -1.43012 -14.6071, -3.216 -12.0566, -3.216 -9.20118 L -3.216 -5.45213 C -3.216 -3.16006, -4.64955 -1.11274, -6.80339 -0.328804 L -6.80339 0.328802 C -4.64956 1.11273, -3.216 3.16006, -3.216 5.45212 L -3.216 9.20118 C -3.216 12.0566, -1.43011 14.6071, 1.25309 15.5837 L 2.61196 15.4825 C 0.691615 14.587, -0.535999 12.66, -0.536 10.5412 L -0.536 5.45212 C -0.536001 3.16006, -1.96955 1.11273, -4.12339 0.328803 L -4.12339 -0.328804 C -1.96955 -1.11274, -0.536001 -3.16006, -0.536001 -5.45213 L -0.536 -10.5412 C -0.536001 -12.66, 0.69161 -14.587, 2.61195 -15.4825" stroke="none" fill="#000000" transform="matrix(1 0 -0 1 52.4042 21.0183)" />
			<path d="M 1.25308 -15.5837 C -1.43012 -14.6071, -3.216 -12.0566, -3.216 -9.20118 L -3.216 -5.45213 C -3.216 -3.16006, -4.64955 -1.11274, -6.80339 -0.328804 L -6.80339 0.328802 C -4.64956 1.11273, -3.216 3.16006, -3.216 5.45212 L -3.216 9.20118 C -3.216 12.0566, -1.43011 14.6071, 1.25309 15.5837 L 2.61196 15.4825 C 0.691615 14.587, -0.535999 12.66, -0.536 10.5412 L -0.536 5.45212 C -0.536001 3.16006, -1.96955 1.11273, -4.12339 0.328803 L -4.12339 -0.328804 C -1.96955 -1.11274, -0.536001 -3.16006, -0.536001 -5.45213 L -0.536 -10.5412 C -0.536001 -12.66, 0.69161 -14.587, 2.61195 -15.4825" stroke="none" fill="#000000" transform="matrix(-1 1.50996e-007 -1.50996e-007 -1 80.5938 21.0183)" />
			<rect />
		</svg>
	</g>
	<g transform="matrix(1 0 -0 1 12.4489 592.16)">
		<svg width="267.111603" height="98.9999847">
			<defs />
			<path d="M 10.8591 31.0483 C 9.00662 30.9829, 7.19197 30.9502, 5.41719 30.9502, 3.6649 30.9502, 1.85638 30.9829, -0.00836158 31.0483 L -0.00836158 29.6907 C 0.632645 29.6917, 1.2532 29.6835, 1.85434 29.6672, 2.45548 29.6508, 2.91246 29.5936, 3.22632 29.4944, 3.38376 29.4412, 3.50542 29.3349, 3.58925 29.1764, 3.67308 29.019, 3.715 28.8411, 3.715 28.6438 L 3.715 10.209 C 3.715 10.0137, 3.67308 9.83686, 3.58925 9.6784, 3.50542 9.52096, 3.38376 9.41361, 3.22632 9.35841, 2.91246 9.26129, 2.45548 9.2071, 1.85434 9.19586, 1.2532 9.18563, 0.632645 9.1795, -0.00836158 9.17848 L -0.00836158 7.83717 C 1.85638 7.88215, 3.6649 7.90362, 5.41719 7.9026, 7.19197 7.90362, 9.00662 7.88215, 10.8591 7.83717 L 10.8591 9.17848 C 10.2191 9.1795, 9.59856 9.18563, 8.99742 9.19586, 8.39629 9.2071, 7.94441 9.26129, 7.64078 9.35841, 7.48334 9.41361, 7.36066 9.523, 7.27069 9.68658, 7.18073 9.85015, 7.13574 10.025, 7.13574 10.209 L 7.13574 28.6438 C 7.13574 28.8411, 7.17868 29.019, 7.26251 29.1764, 7.34634 29.3349, 7.47311 29.4412, 7.64078 29.4944, 7.95566 29.5936, 8.4106 29.6508, 9.0056 29.6672, 9.6006 29.6835, 10.2191 29.6917, 10.8591 29.6907 L 10.8591 31.0483 Z" stroke="none" fill="#000000" />
			<path d="M 39.5283 31.0647 C 38.1359 30.9891, 36.7945 30.9502, 35.5023 30.9502, 34.2111 30.9502, 32.8524 30.9891, 31.4262 31.0647 L 31.4262 29.6907 C 31.9313 29.6917, 32.3944 29.6835, 32.8156 29.6672, 33.2368 29.6508, 33.5548 29.5936, 33.7674 29.4944, 33.9024 29.43, 33.9954 29.3155, 34.0455 29.1519, 34.0966 28.9883, 34.1211 28.8197, 34.1211 28.6438 L 34.1211 20.6614 C 34.1211 20.1175, 34.0874 19.6022, 34.0199 19.1166, 33.9524 18.632, 33.7848 18.1812, 33.5149 17.7661, 33.3574 17.5054, 33.1305 17.3153, 32.833 17.1946, 32.5355 17.075, 32.2012 17.0147, 31.8301 17.0137, 31.1901 17.0147, 30.5951 17.1486, 30.0451 17.4155, 29.4951 17.6833, 29.0207 18.0432, 28.622 18.4951, 28.2233 18.9479, 27.9063 19.4796, 27.6702 20.0899, 27.435 20.7013, 27.3164 21.3382, 27.3164 22.0027 L 27.3164 28.6438 C 27.3164 28.8299, 27.3389 29.0026, 27.3839 29.1601, 27.4289 29.3186, 27.524 29.43, 27.6702 29.4944, 27.8838 29.5936, 28.2008 29.6508, 28.622 29.6672, 29.0432 29.6835, 29.5063 29.6917, 30.0113 29.6907 L 30.0113 31.0647 C 28.5852 30.9891, 27.2265 30.9502, 25.9342 30.9502, 24.6216 30.9502, 23.2792 30.9891, 21.9093 31.0647 L 21.9093 29.6907 C 22.4143 29.6917, 22.8775 29.6835, 23.2987 29.6672, 23.7199 29.6508, 24.0378 29.5936, 24.2505 29.4944, 24.3742 29.43, 24.458 29.3186, 24.503 29.1601, 24.548 29.0026, 24.5704 28.8299, 24.5704 28.6438 L 24.5704 20.6614 C 24.5704 20.1175, 24.5398 19.6022, 24.4784 19.1166, 24.4171 18.632, 24.2505 18.1812, 23.9806 17.7661, 23.8129 17.5054, 23.5798 17.3153, 23.2823 17.1946, 22.9848 17.075, 22.6505 17.0147, 22.2794 17.0137, 21.6394 17.0147, 21.0424 17.1486, 20.4862 17.4155, 19.93 17.6833, 19.4557 18.0432, 19.0621 18.4951, 18.6695 18.9479, 18.3546 19.4796, 18.1185 20.0899, 17.8833 20.7013, 17.7647 21.3382, 17.7647 22.0027 L 17.7647 28.6438 C 17.7647 28.8299, 17.7872 29.0026, 17.8322 29.1601, 17.8772 29.3186, 17.9672 29.43, 18.1021 29.4944, 18.3158 29.5936, 18.6358 29.6508, 19.0621 29.6672, 19.4894 29.6835, 19.9495 29.6917, 20.4433 29.6907 L 20.4433 31.0483 C 19.8708 31.0269, 19.3432 31.0105, 18.8607 30.9993, 18.3781 30.9891, 17.9058 30.9727, 17.4447 30.9502 L 16.3836 30.9502 C 15.0698 30.9502, 13.7275 30.9891, 12.3576 31.0647 L 12.3576 29.6907 C 12.8636 29.6917, 13.3268 29.6835, 13.748 29.6672, 14.1692 29.6508, 14.4871 29.5936, 14.6998 29.4944, 14.8347 29.43, 14.9237 29.3186, 14.9686 29.1601, 15.0136 29.0026, 15.0361 28.8299, 15.0361 28.6438 L 15.0361 19.3528 C 15.0361 19.0481, 15.0228 18.7711, 14.9942 18.5196, 14.9666 18.2691, 14.8572 18.0667, 14.666 17.9133, 14.4759 17.7835, 14.1671 17.7078, 13.7398 17.6854, 13.3124 17.6639, 12.8524 17.6526, 12.3576 17.6516 L 12.3576 16.294, 15.2549 16.0813, 17.5797 15.9014, 17.5797 18.7149 C 17.7934 18.2139, 18.3464 17.623, 19.2389 16.9411, 20.1325 16.2602, 21.1793 15.9188, 22.3806 15.9177, 23.0104 15.9188, 23.6585 15.9924, 24.3261 16.1396, 24.9947 16.2868, 25.5815 16.6058, 26.0866 17.0955, 26.4239 17.4236, 26.6795 17.7815, 26.8533 18.1679, 27.0271 18.5554, 27.114 18.7649, 27.114 18.7966, 27.4177 18.1434, 28.0075 17.5003, 28.8827 16.8675, 29.7588 16.2357, 30.7699 15.9188, 31.9149 15.9177, 32.5437 15.9188, 33.198 15.9924, 33.8768 16.1396, 34.5566 16.2868, 35.1496 16.6058, 35.6546 17.0965, 36.1597 17.5872, 36.4889 18.1515, 36.6402 18.7895, 36.7915 19.4274, 36.8671 20.0521, 36.8671 20.6614 L 36.8671 28.6438 C 36.8671 28.8299, 36.8896 29.0026, 36.9346 29.1601, 36.9796 29.3186, 37.0757 29.43, 37.2209 29.4944, 37.4345 29.5936, 37.7515 29.6508, 38.1727 29.6672, 38.5939 29.6835, 39.0457 29.6917, 39.5283 29.6907 L 39.5283 31.0647 Z" stroke="none" fill="#000000" />
			<path d="M 73.981 16.6211 C 73.3298 17.7784, 72.5579 18.8498, 71.6654 19.8364, 70.7729 20.8239, 69.8385 21.7747, 68.8611 22.6907, 67.8838 23.6067, 66.9074 24.5176, 65.9301 25.4224, 64.9527 26.3282, 64.1553 27.1399, 63.5368 27.8587, 63.5041 27.8709, 63.6278 27.876, 63.9079 27.875, 64.3465 27.876, 64.737 27.9333, 65.0795 28.0478, 65.422 28.1623, 65.7471 28.2931, 66.0558 28.4404, 66.3646 28.5876, 66.6764 28.7133, 66.9912 28.8166, 67.3061 28.9209, 67.62 28.972, 67.9338 28.971, 68.3274 28.972, 68.7231 28.8984, 69.1218 28.7512, 69.5205 28.6039, 69.8763 28.3974, 70.1912 28.1296, 70.5061 27.8627, 70.7862 27.552, 71.0336 27.1972, 71.281 26.8435, 71.4599 26.4744, 71.5723 26.0921, 71.6398 25.7874, 71.831 25.6351, 72.1449 25.634 L 72.5323 25.634 C 72.8247 25.6351, 72.9699 25.7547, 72.9699 25.9939, 72.9699 26.0604, 72.9535 26.1207, 72.9198 26.1738, 72.7624 26.8292, 72.5129 27.4702, 72.1704 28.0969, 71.8279 28.7246, 71.4149 29.2828, 70.9324 29.7735, 70.4498 30.2642, 69.908 30.668, 69.3068 30.9829, 68.7057 31.2998, 68.0688 31.4573, 67.3951 31.4573, 66.8451 31.4573, 66.4126 31.3182, 66.0977 31.0402, 65.7839 30.7631, 65.5119 30.4605, 65.2809 30.1334, 65.0508 29.8062, 64.8208 29.5261, 64.5898 29.2909, 64.3597 29.0568, 64.0592 28.9393, 63.6891 28.9382, 63.2066 28.9393, 62.7455 29.1519, 62.3079 29.5772, 61.8704 30.0025, 61.4768 30.5208, 61.1281 31.1301, 61.0055 31.3377, 60.8255 31.4471, 60.5894 31.4573 L 60.1007 31.4573 C 59.8768 31.3489, 59.7654 31.2119, 59.7643 31.0483, 59.7654 30.9727, 59.793 30.8909, 59.8482 30.803, 60.5004 29.6805, 61.2672 28.6234, 62.1484 27.6307, 63.0297 26.639, 63.9477 25.6841, 64.9026 24.7681, 65.8575 23.8521, 66.8226 22.9504, 67.7999 22.061, 68.7773 21.1726, 69.6074 20.3353, 70.2924 19.5491 L 70.46 19.5491 C 70.0225 19.5501, 69.633 19.4877, 69.2905 19.362, 68.948 19.2373, 68.6198 19.1064, 68.305 18.9694, 67.9901 18.8334, 67.6783 18.7077, 67.3695 18.5932, 67.0608 18.4787, 66.7438 18.4214, 66.4177 18.4204, 65.8565 18.4214, 65.3453 18.5768, 64.8852 18.8876, 64.4252 19.1984, 64.1328 19.5777, 64.0091 20.0234, 63.9416 20.3301, 63.7453 20.4876, 63.4192 20.4978 L 63.0317 20.4978 C 62.7629 20.4988, 62.6279 20.3629, 62.6279 20.0889 L 62.6279 19.9744 C 62.7516 19.452, 62.9479 18.9561, 63.2178 18.4869, 63.4877 18.0186, 63.8128 17.5954, 64.1941 17.2192, 64.5765 16.843, 65.0028 16.5383, 65.4741 16.3032, 65.9464 16.069, 66.4463 15.9515, 66.9739 15.9504, 67.5239 15.9515, 67.9533 16.0936, 68.262 16.3768, 68.5708 16.661, 68.8468 16.9605, 69.0881 17.2764, 69.3293 17.5933, 69.5624 17.8735, 69.7873 18.1188, 70.0123 18.3642, 70.3036 18.4869, 70.6625 18.4858, 70.9998 18.4869, 71.3249 18.2855, 71.6398 17.8816, 71.9547 17.4788, 72.3084 16.938, 72.701 16.2612, 72.8472 16.0547, 73.021 15.9515, 73.2224 15.9504 L 73.5935 15.9504 C 73.7734 15.9515, 73.9033 16.0281, 73.981 16.1795, 74.0035 16.2347, 74.026 16.295, 74.0485 16.3594, 74.0485 16.4371, 74.026 16.524, 73.981 16.6211 Z" stroke="none" fill="#000000" />
			<path d="M 1.25308 -15.5837 C -1.43012 -14.6071, -3.216 -12.0566, -3.216 -9.20118 L -3.216 -5.45213 C -3.216 -3.16006, -4.64955 -1.11274, -6.80339 -0.328804 L -6.80339 0.328802 C -4.64956 1.11273, -3.216 3.16006, -3.216 5.45212 L -3.216 9.20118 C -3.216 12.0566, -1.43011 14.6071, 1.25309 15.5837 L 2.61196 15.4825 C 0.691615 14.587, -0.535999 12.66, -0.536 10.5412 L -0.536 5.45212 C -0.536001 3.16006, -1.96955 1.11273, -4.12339 0.328803 L -4.12339 -0.328804 C -1.96955 -1.11274, -0.536001 -3.16006, -0.536001 -5.45213 L -0.536 -10.5412 C -0.536001 -12.66, 0.69161 -14.587, 2.61195 -15.4825" stroke="none" fill="#000000" transform="matrix(1 0 -0 1 52.811 21.0183)" />
			<path d="M 1.25308 -15.5837 C -1.43012 -14.6071, -3.216 -12.0566, -3.216 -9.20118 L -3.216 -5.45213 C -3.216 -3.16006, -4.64955 -1.11274, -6.80339 -0.328804 L -6.80339 0.328802 C -4.64956 1.11273, -3.216 3.16006, -3.216 5.45212 L -3.216 9.20118 C -3.216 12.0566, -1.43011 14.6071, 1.25309 15.5837 L 2.61196 15.4825 C 0.691615 14.587, -0.535999 12.66, -0.536 10.5412 L -0.536 5.45212 C -0.536001 3.16006, -1.96955 1.11273, -4.12339 0.328803 L -4.12339 -0.328804 C -1.96955 -1.11274, -0.536001 -3.16006, -0.536001 -5.45213 L -0.536 -10.5412 C -0.536001 -12.66, 0.69161 -14.587, 2.61195 -15.4825" stroke="none" fill="#000000" transform="matrix(-1 1.50996e-007 -1.50996e-007 -1 80.9977 21.0183)" />
			<rect />
		</svg>
	</g>
	<g transform="matrix(1 0 -0 1 98.329 12.0173)">
		<svg width="710.944031" height="215.985992">
			<defs />
			<path d="M 20.7224 29.2583 C 20.6335 29.9678, 20.4065 30.6006, 20.0415 31.1567, 19.6765 31.7129, 19.2247 32.1873, 18.6849 32.5798, 18.1461 32.9724, 17.545 33.272, 16.8825 33.4785, 16.22 33.686, 15.5351 33.7893, 14.8276 33.7893, 13.7725 33.7893, 12.7676 33.5879, 11.8127 33.1851, 10.8579 32.7823, 10.0154 32.2149, 9.2855 31.4829, 8.52181 30.7202, 7.95441 29.8645, 7.58432 28.9158, 7.21424 27.967, 7.02817 26.9641, 7.02817 25.905, 7.02817 24.8806, 7.20504 23.8971, 7.55877 22.9535, 7.91249 22.0109, 8.44309 21.1624, 9.15055 20.4089, 9.82529 19.6789, 10.6115 19.1156, 11.5091 18.7169, 12.4077 18.3192, 13.3513 18.1199, 14.3389 18.1189, 15.2151 18.1199, 16.0656 18.2671, 16.8907 18.5615, 17.7167 18.856, 18.4436 19.3354, 19.0723 20, 19.7011 20.7422, 20.1335 21.558, 20.3687 22.4464, 20.6048 23.3358, 20.7224 24.2324, 20.7224 25.1362, 20.7224 25.4971, 20.5374 25.677, 20.1673 25.676 L 10.2291 25.676, 10.2291 25.905 C 10.2291 26.7239, 10.3027 27.5305, 10.4479 28.3259, 10.5828 29.2215, 10.9028 30.0281, 11.4079 30.7468, 11.8352 31.304, 12.3597 31.7538, 12.9833 32.0973, 13.6069 32.4408, 14.2663 32.6125, 14.9615 32.6115, 15.4901 32.6125, 15.9982 32.5287, 16.4869 32.359, 16.9755 32.1903, 17.4274 31.948, 17.8425 31.6311, 18.2586 31.3152, 18.6092 30.9472, 18.8955 30.527, 19.1817 30.1078, 19.3923 29.6406, 19.5273 29.1274, 19.5948 28.8667, 19.7737 28.7358, 20.0661 28.7348 L 20.2511 28.7348 C 20.5547 28.8013, 20.7122 28.9761, 20.7224 29.2583 Z M 18.0786 24.6455 C 18.0561 23.9809, 17.9774 23.3001, 17.8425 22.6018, 17.7075 21.9046, 17.4386 21.2554, 17.0338 20.6543, 16.7199 20.1973, 16.3274 19.8374, 15.855 19.5757, 15.3837 19.314, 14.8787 19.1831, 14.3389 19.1821, 13.7102 19.1831, 13.1315 19.3528, 12.604 19.6902, 12.0765 20.0286, 11.6328 20.4815, 11.2729 21.0479, 10.9141 21.6152, 10.6667 22.2123, 10.5317 22.839, 10.3968 23.4667, 10.3129 24.0689, 10.2792 24.6455 L 18.0786 24.6455 Z" stroke="none" fill="#000000" />
			<path d="M 39.184 33.4294 C 38.0503 33.3537, 36.9891 33.3149, 36.0005 33.3149 L 35.5292 33.3149 C 34.3617 33.3374, 33.1318 33.3701, 31.8396 33.413 L 31.8396 32.0554 C 32.1095 32.0564, 32.3323 32.0298, 32.5061 31.9746, 32.6799 31.9204, 32.8118 31.8325, 32.9007 31.7119, 33.0132 31.6035, 33.0756 31.5002, 33.0868 31.4011, 33.0868 31.304, 33.048 31.2058, 32.9682 31.1066 L 29.8695 27.1809, 27.4098 30.1906 C 27.2421 30.3767, 27.1296 30.5791, 27.0734 30.7959, 27.0509 30.895, 27.0397 31.0095, 27.0397 31.1394, 27.0397 31.2385, 27.0509 31.353, 27.0734 31.4829, 27.1634 31.8652, 27.4834 32.0564, 28.0334 32.0554 L 28.0334 33.413 C 26.8884 33.3701, 25.8098 33.3374, 24.7987 33.3149 L 24.3438 33.3149 C 23.4686 33.3149, 22.5312 33.3537, 21.5313 33.4294 L 21.5313 32.0554 C 22.5424 32.0564, 23.4012 31.8816, 24.1086 31.5319, 24.4787 31.3694, 24.8273 31.1486, 25.1524 30.8705, 25.4786 30.5924, 25.7761 30.301, 26.0449 29.9943 L 29.1283 26.2485, 25.1187 21.1613 C 24.951 20.9773, 24.7742 20.7923, 24.5881 20.6062, 24.4031 20.4212, 24.1986 20.2842, 23.9737 20.1962, 23.7161 20.0991, 23.393 20.0449, 23.0055 20.0337, 22.6181 20.0235, 22.1825 20.0173, 21.7 20.0163 L 21.7 18.6259 C 22.845 18.7251, 23.9461 18.7793, 25.0011 18.7895, 25.1023 18.7905, 25.226 18.7742, 25.3712 18.7404, 26.551 18.7415, 27.786 18.7036, 29.0772 18.6259 L 29.0772 20.0163 C 28.5497 20.0173, 28.1735 20.1318, 27.9485 20.3598, 27.8483 20.4805, 27.7972 20.5898, 27.7972 20.687, 27.7972 20.7861, 27.831 20.8792, 27.8984 20.965 L 30.6271 24.4165, 32.6993 21.8974 C 32.9805 21.5825, 33.1205 21.2441, 33.1205 20.8833, 33.1205 20.7861, 33.1093 20.6931, 33.0868 20.6052, 33.0306 20.4426, 32.9294 20.3036, 32.7832 20.1891, 32.638 20.0746, 32.4131 20.0173, 32.1095 20.0163 L 32.1095 18.6259 C 33.2555 18.7036, 34.3453 18.7415, 35.3779 18.7404, 35.4903 18.7629, 35.5967 18.7793, 35.6979 18.7895, 36.5853 18.7905, 37.5503 18.7363, 38.5952 18.6259 L 38.5952 20.0163 C 37.5851 20.0173, 36.7202 20.1922, 36.0005 20.5397, 35.6191 20.7156, 35.2685 20.9364, 34.9485 21.2032, 34.6285 21.4711, 34.3392 21.7676, 34.0805 22.0937 L 31.402 25.3488, 35.7643 30.9104 C 35.934 31.1189, 36.1048 31.307, 36.2786 31.4757, 36.4524 31.6454, 36.663 31.7732, 36.9104 31.8591, 37.169 31.9583, 37.4921 32.0155, 37.8795 32.0319, 38.267 32.0482, 38.7015 32.0564, 39.184 32.0554 L 39.184 33.4294 Z" stroke="none" fill="#000000" />
			<path d="M 57.3253 26.0522 C 57.3253 27.0786, 57.1239 28.0652, 56.7191 29.0139, 56.3152 29.9626, 55.7427 30.7969, 55.0005 31.5156, 54.2828 32.2476, 53.4374 32.8088, 52.4661 33.2014, 51.4949 33.594, 50.4808 33.7893, 49.4247 33.7893, 48.5158 33.7893, 47.699 33.5991, 46.9741 33.2178, 46.2503 32.8364, 45.731 32.4439, 45.4161 32.039 L 45.4161 37.5351 C 45.4161 37.7099, 45.4417 37.8786, 45.4917 38.0422, 45.5429 38.2058, 45.641 38.3264, 45.7862 38.4021, 45.9784 38.5002, 46.2871 38.5554, 46.7134 38.5656, 47.1408 38.5769, 47.6059 38.582, 48.111 38.582 L 48.111 39.9069 C 46.7083 39.864, 45.3548 39.8415, 44.0513 39.8415, 42.7611 39.8415, 41.4136 39.864, 40.0089 39.9069 L 40.0089 38.582 C 40.514 38.582, 40.9802 38.5769, 41.4075 38.5656, 41.8348 38.5554, 42.1487 38.5002, 42.3501 38.4021, 42.485 38.3366, 42.5781 38.2221, 42.6282 38.0585, 42.6793 37.895, 42.7038 37.7212, 42.7038 37.5351 L 42.7038 21.3576 C 42.7038 21.1184, 42.6844 20.8986, 42.6456 20.6962, 42.6067 20.4948, 42.5024 20.3496, 42.3337 20.2617, 42.1313 20.1431, 41.8195 20.0725, 41.3983 20.05, 40.9771 20.0286, 40.514 20.0173, 40.0089 20.0163 L 40.0089 18.6586, 45.3149 18.2661, 45.3149 20.1962 C 45.7085 19.7505, 46.326 19.3201, 47.1684 18.905, 48.0108 18.491, 48.9258 18.2834, 49.9134 18.2824, 50.9245 18.2834, 51.8844 18.4828, 52.7943 18.8805, 53.7042 19.2792, 54.4955 19.8425, 55.1692 20.5725, 55.8767 21.3147, 56.4134 22.1581, 56.7784 23.1007, 57.1433 24.0443, 57.3253 25.0278, 57.3253 26.0522 Z M 54.1244 26.0522 C 54.1244 25.1914, 54.0181 24.3602, 53.8044 23.5587, 53.5917 22.7572, 53.2493 22.0129, 52.7769 21.3249, 52.3956 20.781, 51.9468 20.3312, 51.4295 19.9764, 50.9132 19.6227, 50.3519 19.4448, 49.7447 19.4438, 48.7908 19.4448, 47.929 19.6881, 47.1602 20.1727, 46.3914 20.6583, 45.8097 21.2769, 45.4161 22.0283 L 45.4161 29.9616 C 45.7872 30.7693, 46.3096 31.4297, 46.9833 31.9419, 47.6571 32.4551, 48.4371 32.7107, 49.3245 32.7097, 49.9757 32.7107, 50.5901 32.5369, 51.1688 32.1873, 51.7474 31.8386, 52.2494 31.3806, 52.6757 30.8122, 53.193 30.115, 53.5631 29.3636, 53.788 28.5559, 54.0129 27.7493, 54.1244 26.9151, 54.1244 26.0522 Z" stroke="none" fill="#000000" />
			<path d="M -31.6624 7.28633 C -32.4861 7.29258, -33.4978 7.06133, -34.6987 6.58633, -35.0349 6.59258, -35.0465 7.36133, -34.7223 8.88633, -33.8987 12.7613, -30.0507 14.6926, -23.1895 14.6863, -21.8132 14.6926, -20.8028 14.6238, -20.1445 14.4863, -15.3858 13.2926, -10.5722 9.59258, -5.71641 3.38633, -3.50611 0.523832, -0.532174 -4.53867, 3.20898 -11.8137, 17.8062 -40.4074, 25.2516 -54.8074, 25.5453 -55.0137, 25.6562 -55.1387, 26.2603 -55.2074, 27.359 -55.2137 L 29.0028 -55.2137 C 29.5016 -54.8074, 29.765 -54.5387, 29.7916 -54.4137, 29.8208 -54.2762, 29.5813 -53.6387, 29.0642 -52.5137, 26.8362 -47.1762, 26.2832 -41.8387, 27.4151 -36.5137, 27.8136 -34.6387, 28.7396 -31.5762, 30.1956 -27.3137, 31.6543 -23.0387, 32.5736 -20.0074, 32.9549 -18.2137, 33.5367 -15.4762, 33.8715 -13.1074, 33.9515 -11.1137 L 34.0428 -9.71367 C 33.7041 -11.3074, 37.7248 -19.7074, 46.0927 -34.9137, 52.1634 -46.1074, 59.0129 -53.6074, 66.6476 -57.4137, 67.2106 -57.6762, 67.5952 -57.8074, 67.8001 -57.8137, 68.3514 -57.8074, 68.684 -57.5074, 68.8102 -56.9137 L 69.1054 -53.1137, 68.7779 -52.7137 C 68.6417 -52.7074, 68.0864 -52.4387, 67.098 -51.9137, 65.5568 -51.1074, 64.1048 -50.1762, 62.7431 -49.1137, 57.8438 -45.3762, 53.1654 -39.2762, 48.7142 -30.8137, 41.0113 -16.0074, 34.9455 -1.43867, 30.5029 12.8863, 30.1289 14.3613, 29.8605 15.1863, 29.6968 15.3863, 29.5885 15.5238, 28.9518 15.5863, 27.7768 15.5863, 26.6143 15.5863, 25.9447 15.5238, 25.778 15.3863, 25.418 14.9863, 25.4309 14.2238, 25.8079 13.0863, 27.4214 8.09258, 27.6536 2.89258, 26.5045 -2.51367 L 26.0156 -4.81367 C 25.4789 -7.33867, 24.4991 -11.0074, 23.065 -15.8137, 22.4496 -17.7387, 21.8186 -20.2074, 21.1796 -23.2137, 20.4157 -26.8074, 20.0384 -30.3762, 20.0365 -33.9137 L 18.3692 -30.6137 C 10.6317 -15.6762, 5.43187 -6.20742, 2.78077 -2.21367, -4.01269 8.46133, -10.9615 15.0238, -18.0631 17.4863, -19.7231 18.0863, -21.3031 18.3863, -22.8156 18.3863 L -23.9468 18.3863 C -30.7468 18.3863, -35.2973 16.3551, -37.6059 12.2863, -37.9321 11.6926, -38.1871 10.9926, -38.3585 10.1863, -38.5551 9.26133, -38.6073 8.19258, -38.5262 6.98633, -37.6643 1.66133, -35.1753 -1.00742, -31.0579 -1.01367, -28.2441 -1.00742, -26.5615 0.292583, -26.0102 2.88633, -25.7684 4.02383, -26.2979 5.06133, -27.6138 5.98633, -28.8653 6.86133, -30.2174 7.29258, -31.6624 7.28633 Z" stroke="none" fill="#000000" transform="matrix(0.335 0 0 0.335 93.5961 28.0208)" />
			<path d="M 124.113 35.4904 C 123.923 36.1999, 123.593 36.8542, 123.127 37.4533, 122.661 38.0534, 122.119 38.5656, 121.502 38.9909, 120.884 39.4162, 120.205 39.7495, 119.464 39.9887, 118.723 40.229, 117.982 40.3486, 117.24 40.3486, 116.735 40.3486, 116.196 40.3271, 115.623 40.2832, 115.051 40.2402, 114.531 40.1339, 114.065 39.9642, 113.599 39.7955, 113.248 39.5307, 113.012 39.1709, 112.832 38.9531, 112.737 38.675, 112.726 38.3366, 112.726 38.173, 112.749 37.9829, 112.793 37.7641, 112.917 37.2734, 113.17 36.9084, 113.551 36.6682, 113.933 36.4289, 114.315 36.3083, 114.696 36.3083, 115.09 36.3083, 115.416 36.4341, 115.673 36.6845, 115.865 36.8706, 115.96 37.1098, 115.96 37.4043, 115.96 37.5249, 115.937 37.666, 115.892 37.8295, 115.814 38.1792, 115.668 38.4654, 115.455 38.6883, 115.242 38.9122, 115.123 39.0236, 115.101 39.0236, 115.168 39.0564, 115.43 39.1034, 115.884 39.1627, 116.339 39.223, 116.853 39.2526, 117.426 39.2526, 117.886 39.2526, 118.333 39.1525, 118.765 38.95, 119.197 38.7486, 119.599 38.4675, 119.969 38.1076, 120.339 37.7478, 120.665 37.3388, 120.946 36.8808, 121.227 36.4228, 121.434 35.9382, 121.569 35.425 L 122.462 31.9245 C 122.204 32.176, 121.743 32.4929, 121.081 32.8743, 120.418 33.2566, 119.728 33.4458, 119.008 33.4458, 118.144 33.4458, 117.401 33.2321, 116.778 32.8007, 116.154 32.3703, 115.673 31.8161, 115.336 31.1394, 114.932 30.3552, 114.719 29.5046, 114.696 28.5876 L 114.696 28.3913 C 114.696 27.553, 114.809 26.7024, 115.033 25.8396, 115.27 24.8806, 115.635 23.9574, 116.128 23.068, 116.623 22.1796, 117.268 21.3474, 118.066 20.5725, 118.717 19.9192, 119.455 19.3794, 120.28 18.9541, 121.106 18.5288, 121.945 18.3162, 122.799 18.3151, 123.529 18.3162, 124.136 18.5104, 124.619 18.8969, 125.101 19.2843, 125.41 19.6084, 125.544 19.8691 L 125.46 20.1799 C 125.561 19.7771, 125.766 19.4775, 126.075 19.2813, 126.383 19.085, 126.695 18.9868, 127.01 18.9858, 127.336 18.9868, 127.606 19.0901, 127.819 19.2966, 127.965 19.4397, 128.038 19.636, 128.038 19.8855, 128.038 20.0061, 128.026 20.1267, 128.004 20.2453 Z M 124.904 22.3718 C 124.882 22.1653, 124.848 21.9639, 124.803 21.7676, 124.758 21.5713, 124.708 21.375, 124.652 21.1777, 124.472 20.6665, 124.216 20.2443, 123.885 19.911, 123.554 19.5788, 123.135 19.4121, 122.63 19.4111, 122.159 19.4121, 121.693 19.5818, 121.233 19.9192, 120.773 20.2576, 120.352 20.6829, 119.969 21.194, 119.453 21.9035, 119.06 22.6591, 118.791 23.4606, 118.521 24.2621, 118.268 25.0769, 118.032 25.905, 117.83 26.7566, 117.656 27.5857, 117.51 28.3913, 117.42 28.7849, 117.375 29.1662, 117.375 29.5363, 117.375 29.9299, 117.42 30.3062, 117.51 30.665, 117.611 31.1567, 117.802 31.5657, 118.082 31.8928, 118.363 32.22, 118.739 32.3835, 119.211 32.3825, 119.728 32.3835, 120.244 32.2067, 120.761 31.8519, 121.278 31.4982, 121.76 31.0698, 122.209 30.5668, 122.535 30.1865, 122.844 29.7715, 123.135 29.3237 L 124.904 22.3718 Z" stroke="none" fill="#000000" />
			<path d="M 159.68 18.9858 C 159.029 20.1431, 158.257 21.2145, 157.365 22.201, 156.472 23.1886, 155.538 24.1394, 154.561 25.0554, 153.583 25.9714, 152.607 26.8823, 151.63 27.7871, 150.652 28.6929, 149.855 29.5046, 149.236 30.2233, 149.203 30.2356, 149.327 30.2407, 149.607 30.2397, 150.046 30.2407, 150.436 30.298, 150.779 30.4125, 151.121 30.527, 151.447 30.6578, 151.755 30.8051, 152.064 30.9523, 152.376 31.078, 152.691 31.1813, 153.006 31.2856, 153.319 31.3367, 153.633 31.3356, 154.027 31.3367, 154.423 31.2631, 154.821 31.1158, 155.22 30.9686, 155.576 30.7621, 155.891 30.4943, 156.205 30.2274, 156.486 29.9166, 156.733 29.5619, 156.98 29.2082, 157.159 28.8391, 157.272 28.4567, 157.339 28.1521, 157.53 27.9998, 157.844 27.9987 L 158.232 27.9987 C 158.524 27.9998, 158.669 28.1194, 158.669 28.3586, 158.669 28.425, 158.653 28.4854, 158.619 28.5385, 158.462 29.1938, 158.212 29.8349, 157.87 30.4615, 157.527 31.0893, 157.114 31.6475, 156.632 32.1382, 156.149 32.6289, 155.607 33.0327, 155.006 33.3476, 154.405 33.6645, 153.768 33.822, 153.095 33.822, 152.544 33.822, 152.112 33.6829, 151.797 33.4049, 151.483 33.1278, 151.211 32.8252, 150.98 32.498, 150.75 32.1709, 150.52 31.8908, 150.289 31.6556, 150.059 31.4215, 149.759 31.304, 149.389 31.3029, 148.906 31.304, 148.445 31.5166, 148.007 31.9419, 147.57 32.3672, 147.176 32.8855, 146.828 33.4948, 146.705 33.7024, 146.525 33.8118, 146.289 33.822 L 145.8 33.822 C 145.576 33.7136, 145.465 33.5766, 145.464 33.413, 145.465 33.3374, 145.492 33.2556, 145.548 33.1677, 146.2 32.0452, 146.967 30.9881, 147.848 29.9954, 148.729 29.0037, 149.647 28.0488, 150.602 27.1328, 151.557 26.2168, 152.522 25.3151, 153.499 24.4257, 154.477 23.5372, 155.307 22.7, 155.992 21.9138 L 156.159 21.9138 C 155.722 21.9148, 155.332 21.8524, 154.99 21.7267, 154.647 21.602, 154.319 21.4711, 154.004 21.3341, 153.69 21.1981, 153.378 21.0724, 153.069 20.9579, 152.76 20.8434, 152.443 20.7861, 152.117 20.7851, 151.556 20.7861, 151.045 20.9415, 150.585 21.2523, 150.125 21.5631, 149.832 21.9424, 149.709 22.3881, 149.641 22.6948, 149.445 22.8523, 149.119 22.8625 L 148.731 22.8625 C 148.462 22.8635, 148.327 22.7276, 148.327 22.4536 L 148.327 22.3391 C 148.451 21.8167, 148.647 21.3208, 148.917 20.8516, 149.187 20.3833, 149.512 19.9601, 149.894 19.5839, 150.276 19.2076, 150.702 18.903, 151.174 18.6678, 151.646 18.4337, 152.146 18.3162, 152.673 18.3151, 153.223 18.3162, 153.653 18.4583, 153.961 18.7415, 154.27 19.0257, 154.546 19.3252, 154.788 19.6411, 155.029 19.958, 155.262 20.2382, 155.487 20.4835, 155.712 20.7289, 156.003 20.8516, 156.362 20.8505, 156.699 20.8516, 157.024 20.6502, 157.339 20.2463, 157.654 19.8435, 158.008 19.3027, 158.4 18.6259, 158.547 18.4194, 158.72 18.3162, 158.922 18.3151 L 159.293 18.3151 C 159.473 18.3162, 159.603 18.3928, 159.68 18.5441, 159.703 18.5993, 159.725 18.6597, 159.748 18.7241, 159.748 18.8018, 159.725 18.8887, 159.68 18.9858 Z" stroke="none" fill="#000000" />
			<path d="M 2.76197 15.9933 C -8.15903 8.79632, -8.15903 -8.79632, 2.76197 -15.9933 L 4.47717 -15.9933 C -5.37183 -8.79632, -5.37183 8.79632, 4.47717 15.9933" stroke="none" fill="#000000" transform="matrix(1 0 -0 1 139.264 23.383)" />
			<path d="M 2.76197 15.9933 C -8.15903 8.79632, -8.15903 -8.79632, 2.76197 -15.9933 L 4.47717 -15.9933 C -5.37183 -8.79632, -5.37183 8.79632, 4.47717 15.9933" stroke="none" fill="#000000" transform="matrix(-1 1.50996e-007 -1.50996e-007 -1 165.943 23.383)" />
			<path d="M 2.4103 -16.8624 C -0.967685 -15.633, -3.216 -12.422, -3.216 -8.82724 L -3.216 -7.21088 C -3.216 -4.17944, -5.11199 -1.47168, -7.96061 -0.434871 L -7.96062 0.434868 C -5.11199 1.47168, -3.216 4.17943, -3.216 7.21087 L -3.216 8.82725 C -3.216 12.422, -0.967674 15.633, 2.41031 16.8624 L 3.62743 16.7025 C 1.08762 15.5182, -0.535998 12.9696, -0.536 10.1673 L -0.536001 7.21087 C -0.536001 4.17943, -2.43199 1.47168, -5.28061 0.434868 L -5.28061 -0.434871 C -2.43199 -1.47168, -0.536001 -4.17944, -0.536001 -7.21088 L -0.536 -10.1672 C -0.536001 -12.9696, 1.08761 -15.5182, 3.62742 -16.7025" stroke="none" fill="#000000" transform="matrix(1 0 -0 0.998554 72.2008 23.383)" />
			<path d="M 2.4103 -16.8624 C -0.967685 -15.633, -3.216 -12.422, -3.216 -8.82724 L -3.216 -7.21088 C -3.216 -4.17944, -5.11199 -1.47168, -7.96061 -0.434871 L -7.96062 0.434868 C -5.11199 1.47168, -3.216 4.17943, -3.216 7.21087 L -3.216 8.82725 C -3.216 12.422, -0.967674 15.633, 2.41031 16.8624 L 3.62743 16.7025 C 1.08762 15.5182, -0.535998 12.9696, -0.536 10.1673 L -0.536001 7.21087 C -0.536001 4.17943, -2.43199 1.47168, -5.28061 0.434868 L -5.28061 -0.434871 C -2.43199 -1.47168, -0.536001 -4.17944, -0.536001 -7.21088 L -0.536 -10.1672 C -0.536001 -12.9696, 1.08761 -15.5182, 3.62742 -16.7025" stroke="none" fill="#000000" transform="matrix(-1 1.50996e-007 -1.50777e-007 -0.998554 183.489 23.383)" />
			<polyline points="-1.85925 -17.286 -1.85925 17.286" fill="none" stroke="#000000" stroke-width="1.6079998" stroke-linecap="round" stroke-linejoin="round" transform="matrix(1 0 -0 1 2.93125 23.383)" />
			<polyline points="-1.85925 -17.286 -1.85925 17.286" fill="none" stroke="#000000" stroke-width="1.6079998" stroke-linecap="round" stroke-linejoin="round" transform="matrix(-1 1.50996e-007 -1.50996e-007 -1 198.94 23.383)" />
			<rect />
		</svg>
	</g>
</svg>
