<?xml version="1.0"?>
<svg xmlns="http://www.w3.org/2000/svg" xmlns:xlink="http://www.w3.org/1999/xlink" width="868.423584" height="411.72226">
	<defs>
		<marker id="CustomMarker-01" markerUnits="strokeWidth" markerWidth="8.7300005" markerHeight="9.4800005" viewBox="-3.99 -4.74 8.73 9.48" orient="auto-start-reverse">
			<path d="M 3.16 -0 L -0 -3.16, -2.66 -0.5, -2.66 0.5, -0 3.16 Z" fill="#000000" stroke="#000000" stroke-linejoin="round" />
		</marker>
		<marker id="CustomMarker-02" markerUnits="strokeWidth" markerWidth="15.000001" markerHeight="9" viewBox="-15 -4.5 15 9" orient="auto-start-reverse">
			<path d="M 0 -0 L -10 -3, -8 -0.5, -8 0.5, -10 3 Z" fill="#000000" stroke="#000000" stroke-linejoin="round" />
		</marker>
	</defs>
	<rect x="-681.438843" y="-316.07782" width="1362.87769" height="632.15564" stroke="none" fill="#FFFFFF" fill-opacity="0" transform="matrix(0.625 0 0 0.625 434.024 206.049)" />
	<rect x="-606.013672" y="-199.466644" width="1212.02734" height="398.933289" stroke="none" fill="#D0F8FF" transform="matrix(0.625 0 0 0.625 434.229 204.599)" />
	<path d="M -606.014 -199.467 L 606.014 -199.467, 606.014 199.467, -606.014 199.467 Z" fill="none" stroke="#000000" stroke-width="4.26666689" stroke-linecap="round" stroke-linejoin="round" transform="matrix(0.625 0 0 0.625 434.229 204.599)" />
	<path d="M 0 0 L 0 444.225" fill="none" stroke="#000000" stroke-width="1.60000002" stroke-linecap="round" stroke-linejoin="round" marker-start="url(#CustomMarker-01)" transform="matrix(0.625 0 0 0.625 434.024 51.625)" />
	<g transform="matrix(1 0 -0 1 183.47 184.823)">
		<svg width="447.055695" height="102.125565">
			<defs />
			<path d="M 38.7878 8.91104 C 38.7551 9.05416, 38.6795 9.17378, 38.5609 9.27192, 38.4423 9.37007, 38.2991 9.41914, 38.1305 9.41812, 37.7266 9.41914, 37.3341 9.44981, 36.9517 9.50911, 36.5693 9.56942, 36.2156 9.71357, 35.8895 9.94156, 35.6206 10.1062, 35.4069 10.3219, 35.2495 10.5887, 35.0921 10.8565, 34.9745 11.1418, 34.8958 11.4464 L 29.9262 30.7973 C 29.8025 31.1244, 29.5837 31.288, 29.2688 31.288 L 28.8814 31.288 C 28.6789 31.288, 28.5276 31.2011, 28.4264 31.0263, 27.1577 27.6035, 25.8972 24.1878, 24.6448 20.7794, 23.3924 17.3719, 22.1932 14.1515, 21.0472 11.1193 L 16.7002 28.0165 C 16.6327 28.2026, 16.599 28.3886, 16.599 28.5727, 16.599 28.6504, 16.6102 28.7321, 16.6327 28.818, 16.6665 29.0808, 16.7677 29.2883, 16.9353 29.4396, 17.1378 29.6369, 17.4076 29.7678, 17.745 29.8332, 18.0824 29.8986, 18.4637 29.9313, 18.89 29.9303, 19.2049 29.9313, 19.3624 30.0622, 19.3624 30.3229, 19.3624 30.3894, 19.3511 30.4599, 19.3286 30.5355 L 19.2612 30.7809 C 19.2274 30.9343, 19.1456 31.0569, 19.0168 31.149, 18.888 31.242, 18.75 31.288, 18.6038 31.288, 17.4813 31.2226, 16.3414 31.1898, 15.1841 31.1898, 14.039 31.1898, 12.8818 31.2226, 11.7132 31.288, 11.5445 31.288, 11.4208 31.2389, 11.3421 31.1408, 11.2644 31.0651, 11.2256 30.9833, 11.2245 30.8954, 11.2256 30.831, 11.2368 30.7656, 11.2583 30.6991 L 11.3258 30.4538 C 11.3595 30.3127, 11.4382 30.191, 11.5619 30.0867, 11.6856 29.9835, 11.8257 29.9313, 11.9821 29.9303, 12.4094 29.9313, 12.8092 29.8986, 13.1793 29.8332, 13.5493 29.7678, 13.9031 29.6318, 14.2404 29.4232, 14.4991 29.2607, 14.7066 29.046, 14.8641 28.7781, 15.0215 28.5113, 15.1442 28.2251, 15.2342 27.9184 L 19.9512 9.58169 C 19.7611 9.51728, 19.4155 9.47435, 18.9156 9.45185, 18.4157 9.43039, 17.8851 9.41914, 17.3228 9.41812, 17.1551 9.41914, 17.0314 9.36496, 16.9527 9.25454, 16.8852 9.19014, 16.8515 9.10835, 16.8515 9.00918, 16.8515 8.94477, 16.8689 8.88446, 16.9016 8.82925 L 16.9527 8.56753 C 17.0764 8.24141, 17.2952 8.07783, 17.6101 8.07681 L 22.8833 8.07681 C 23.097 8.07783, 23.237 8.16473, 23.3045 8.33853 L 29.7238 25.6447, 33.4134 11.3483 C 33.4809 11.153, 33.5146 10.9567, 33.5146 10.7594, 33.5146 10.4221, 33.4083 10.144, 33.1946 9.9252, 32.9595 9.69722, 32.6814 9.55613, 32.3604 9.50093, 32.0404 9.44674, 31.6672 9.41914, 31.2399 9.41812, 31.0722 9.41914, 30.9485 9.37007, 30.8688 9.2709, 30.7911 9.19525, 30.7512 9.10835, 30.7512 9.00918, 30.7512 8.94477, 30.7686 8.88446, 30.8013 8.82925 L 30.8524 8.56753 C 30.9761 8.24141, 31.1949 8.07783, 31.5098 8.07681, 32.6558 8.12179, 33.807 8.14326, 34.9633 8.14224, 36.1093 8.14326, 37.2604 8.12179, 38.4167 8.07681, 38.5742 8.07783, 38.7091 8.13202, 38.8216 8.24038, 38.8665 8.3283, 38.889 8.41009, 38.889 8.48574, 38.889 8.5522, 38.8727 8.61251, 38.8379 8.66568 Z" stroke="none" fill="#000000" />
			<path d="M 4.2449 5.70916 C 3.08786 5.67252, 1.96173 5.6542, 0.867092 5.6542, -0.226974 5.6542, -1.3531 5.67252, -2.51072 5.70916 L -2.51072 4.92139, -1.8592 4.92139 C -1.65195 4.92196, -1.45673 4.9191, -1.27467 4.9128, -1.09204 4.90707, -0.919138 4.89162, -0.755401 4.867, -0.591663 4.84295, -0.450253 4.81833, -0.331171 4.79314, -0.230409 4.7754, -0.146823 4.71929, -0.0809841 4.62425, -0.0145731 4.52979, 0.0180597 4.42445, 0.0180597 4.30766 L 0.0180597 -6.01584 C -0.296248 -5.86241, -0.683264 -5.74619, -1.14242 -5.66718, -1.60157 -5.5876, -2.10481 -5.5481, -2.65213 -5.54867 L -2.65213 -6.32729 C -1.89699 -6.32671, -1.20024 -6.4166, -0.561893 -6.59694, 0.0764561 -6.77671, 0.628356 -7.11449, 1.09381 -7.60971 L 1.38636 -7.60971 C 1.59361 -7.60914, 1.69723 -7.50837, 1.69723 -7.30742 L 1.69723 4.30766 C 1.69723 4.43017, 1.72872 4.53723, 1.7917 4.62883, 1.85467 4.72044, 1.94627 4.7754, 2.06535 4.79314, 2.16612 4.81833, 2.2955 4.84295, 2.45237 4.867, 2.60981 4.89162, 2.78729 4.90707, 2.98538 4.9128, 3.18347 4.9191, 3.37697 4.92196, 3.56533 4.92139 L 4.2449 4.92139, 4.2449 5.70916 Z" stroke="none" fill="#000000" transform="matrix(1.12 0 0 1 41.6102 30.3303)" />
			<path d="M 56.0139 31.0263 C 56.0139 32.3022, 55.7532 33.5075, 55.2308 34.6413, 54.7084 35.7761, 53.9753 36.779, 53.0317 37.651, 52.9315 37.7165, 52.8191 37.7492, 52.6944 37.7492, 52.6054 37.7492, 52.4878 37.7165, 52.3406 37.651 L 52.2568 37.5202 C 52.1668 37.4333, 52.1218 37.3351, 52.1218 37.2257, 52.1218 37.1276, 52.1668 37.0131, 52.2568 36.8822, 53.1104 36.0971, 53.7647 35.2035, 54.2197 34.1996, 54.6746 33.1967, 54.9016 32.1386, 54.9016 31.0263, 54.9016 30.9506, 54.8965 30.8668, 54.8852 30.7738, 54.874 30.6817, 54.8678 30.738, 54.8678 30.9445, 54.6889 31.152, 54.2739 31.2553, 53.6216 31.2553, 52.9704 31.2553, 52.4766 31.0549, 52.1392 30.6511, 51.8018 30.2483, 51.6332 29.8005, 51.6332 29.3087, 51.6332 28.819, 51.8018 28.3753, 52.1392 27.9766, 52.4766 27.5789, 52.9704 27.3796, 53.6216 27.3786, 54.1042 27.3796, 54.4978 27.5023, 54.8004 27.7476, 55.104 27.993, 55.3453 28.2905, 55.5252 28.6391, 55.7051 28.9888, 55.8319 29.3752, 55.9045 29.8005, 55.9781 30.2258, 56.0139 30.6347, 56.0139 31.0263 Z" stroke="none" fill="#000000" />
			<path d="M 85.9203 8.92739 C 85.8538 9.25557, 85.6514 9.41914, 85.314 9.41812, 84.9552 9.41914, 84.6127 9.46003, 84.2866 9.54182, 83.9615 9.62361, 83.6435 9.76265, 83.3348 9.95893, 83.026 10.1552, 82.7428 10.3924, 82.4842 10.6705, 82.2255 10.9486, 81.9894 11.2624, 81.7757 11.61 L 69.4933 31.5824 C 69.3257 31.8881, 69.067 32.0353, 68.7184 32.0241 L 68.3984 32.0241 C 67.9833 32.0241, 67.7809 31.8503, 67.7921 31.5006 L 65.6861 10.6122 C 65.6411 10.33, 65.5962 10.1092, 65.5512 9.95076, 65.5062 9.79332, 65.4387 9.68086, 65.3488 9.61441, 65.1923 9.52853, 64.9429 9.47435, 64.5994 9.45185, 64.2569 9.43039, 63.8664 9.41914, 63.4288 9.41812, 63.2601 9.41914, 63.1364 9.36496, 63.0577 9.25454, 62.9902 9.19014, 62.9565 9.10835, 62.9565 9.00918, 62.9565 8.94477, 62.9739 8.88446, 63.0076 8.82925 L 63.0577 8.58389 C 63.0925 8.44281, 63.1681 8.32319, 63.2857 8.22505, 63.4043 8.1269, 63.5474 8.07783, 63.7151 8.07681, 64.7936 8.14326, 65.8834 8.17598, 66.9835 8.17495, 67.1522 8.17598, 67.3321 8.16473, 67.5222 8.14224, 68.8257 8.14326, 70.1292 8.12179, 71.4317 8.07681, 71.5891 8.07783, 71.7292 8.13202, 71.8529 8.24038, 71.8979 8.3283, 71.9203 8.41009, 71.9203 8.48574, 71.9203 8.5522, 71.904 8.61251, 71.8692 8.66568 L 71.8191 8.91104 C 71.7854 9.06439, 71.7036 9.18809, 71.5748 9.2801, 71.446 9.37313, 71.308 9.41914, 71.1618 9.41812, 70.7692 9.41914, 70.4093 9.4355, 70.0832 9.46821, 69.7581 9.50093, 69.4381 9.58783, 69.1232 9.72891, 68.9331 9.82808, 68.8431 9.99165, 68.8533 10.2196 L 68.8533 10.3341 C 69.2469 13.2355, 69.5618 16.1502, 69.797 19.0782, 70.0331 22.0062, 70.2856 24.7788, 70.5555 27.3949 L 80.4957 11.2174 C 80.6419 10.9895, 80.7319 10.7492, 80.7656 10.4977 L 80.7656 10.4159 C 80.7656 10.2534, 80.7268 10.1062, 80.647 9.97427, 80.4007 9.60418, 79.9406 9.41914, 79.2659 9.41812, 78.9735 9.41914, 78.8273 9.27192, 78.8273 8.97647 L 78.8273 8.86197, 78.8947 8.56753 C 79.0195 8.24141, 79.2383 8.07783, 79.5521 8.07681, 80.5407 8.12179, 81.5344 8.14326, 82.5343 8.14224, 82.6692 8.16473, 82.7991 8.17598, 82.9217 8.17495, 83.7754 8.17598, 84.6515 8.14326, 85.5502 8.07681, 85.8538 8.07783, 86.0164 8.22505, 86.0388 8.51846 L 86.0388 8.64932 Z" stroke="none" fill="#000000" />
			<path d="M 4.2449 5.70916 C 3.08786 5.67252, 1.96173 5.6542, 0.867092 5.6542, -0.226974 5.6542, -1.3531 5.67252, -2.51072 5.70916 L -2.51072 4.92139, -1.8592 4.92139 C -1.65195 4.92196, -1.45673 4.9191, -1.27467 4.9128, -1.09204 4.90707, -0.919138 4.89162, -0.755401 4.867, -0.591663 4.84295, -0.450253 4.81833, -0.331171 4.79314, -0.230409 4.7754, -0.146823 4.71929, -0.0809841 4.62425, -0.0145731 4.52979, 0.0180597 4.42445, 0.0180597 4.30766 L 0.0180597 -6.01584 C -0.296248 -5.86241, -0.683264 -5.74619, -1.14242 -5.66718, -1.60157 -5.5876, -2.10481 -5.5481, -2.65213 -5.54867 L -2.65213 -6.32729 C -1.89699 -6.32671, -1.20024 -6.4166, -0.561893 -6.59694, 0.0764561 -6.77671, 0.628356 -7.11449, 1.09381 -7.60971 L 1.38636 -7.60971 C 1.59361 -7.60914, 1.69723 -7.50837, 1.69723 -7.30742 L 1.69723 4.30766 C 1.69723 4.43017, 1.72872 4.53723, 1.7917 4.62883, 1.85467 4.72044, 1.94627 4.7754, 2.06535 4.79314, 2.16612 4.81833, 2.2955 4.84295, 2.45237 4.867, 2.60981 4.89162, 2.78729 4.90707, 2.98538 4.9128, 3.18347 4.9191, 3.37697 4.92196, 3.56533 4.92139 L 4.2449 4.92139, 4.2449 5.70916 Z" stroke="none" fill="#000000" transform="matrix(1.12 0 0 1 87.301 30.3303)" />
			<path d="M 101.705 31.0263 C 101.705 32.3022, 101.444 33.5075, 100.922 34.6413, 100.399 35.7761, 99.6661 36.779, 98.7225 37.651, 98.6223 37.7165, 98.5098 37.7492, 98.3851 37.7492, 98.2962 37.7492, 98.1786 37.7165, 98.0314 37.651 L 97.9476 37.5202 C 97.8576 37.4333, 97.8126 37.3351, 97.8126 37.2257, 97.8126 37.1276, 97.8576 37.0131, 97.9476 36.8822, 98.8012 36.0971, 99.4555 35.2035, 99.9105 34.1996, 100.365 33.1967, 100.592 32.1386, 100.592 31.0263, 100.592 30.9506, 100.587 30.8668, 100.576 30.7738, 100.565 30.6817, 100.559 30.738, 100.559 30.9445, 100.38 31.152, 99.9646 31.2553, 99.3124 31.2553, 98.6612 31.2553, 98.1674 31.0549, 97.83 30.6511, 97.4926 30.2483, 97.3239 29.8005, 97.3239 29.3087, 97.3239 28.819, 97.4926 28.3753, 97.83 27.9766, 98.1674 27.5789, 98.6612 27.3796, 99.3124 27.3786, 99.7949 27.3796, 100.189 27.5023, 100.491 27.7476, 100.795 27.993, 101.036 28.2905, 101.216 28.6391, 101.396 28.9888, 101.523 29.3752, 101.595 29.8005, 101.669 30.2258, 101.705 30.6347, 101.705 31.0263 Z" stroke="none" fill="#000000" />
			<path d="M 129.311 15.5849 C 129.278 15.728, 129.208 15.8507, 129.101 15.9539, 128.995 16.0582, 128.862 16.1093, 128.705 16.1083 L 128.385 16.1083 C 128.07 16.1093, 127.913 15.9785, 127.913 15.7157 L 127.913 15.6012 C 128.002 15.1115, 128.081 14.6024, 128.149 14.0728, 128.216 13.5443, 128.272 13.0505, 128.317 12.5915 L 128.317 12.068 C 128.317 11.8186, 128.306 11.5896, 128.284 11.381, 128.239 11.0436, 128.16 10.7881, 128.047 10.6122, 127.745 10.2207, 127.321 9.95689, 126.776 9.8199, 126.232 9.68393, 125.622 9.61543, 124.949 9.61441 L 123.079 9.61441 C 122.518 9.61543, 122.169 9.64814, 122.034 9.71255, 121.934 9.81172, 121.821 10.1389, 121.698 10.694 L 116.998 28.9162 C 116.953 29.0808, 116.931 29.2116, 116.931 29.3087, 116.931 29.5275, 116.998 29.6584, 117.132 29.7013, 117.447 29.8005, 117.953 29.8639, 118.649 29.8905, 119.345 29.9181, 120.042 29.9313, 120.737 29.9303, 121.052 29.9313, 121.209 30.0622, 121.209 30.3229, 121.209 30.3894, 121.198 30.4599, 121.175 30.5355 L 121.108 30.7809 C 121.04 31.1203, 120.822 31.288, 120.45 31.288, 118.609 31.2226, 116.751 31.1898, 114.876 31.1898, 113.011 31.1898, 111.136 31.2226, 109.249 31.288, 109.081 31.288, 108.957 31.2389, 108.879 31.1408, 108.801 31.0651, 108.761 30.9833, 108.761 30.8954, 108.761 30.831, 108.772 30.7656, 108.795 30.6991 L 108.861 30.4538 C 108.896 30.3127, 108.975 30.191, 109.097 30.0867, 109.221 29.9835, 109.361 29.9313, 109.519 29.9303, 110.204 29.9313, 110.906 29.9181, 111.625 29.8905, 112.343 29.8639, 112.868 29.8005, 113.199 29.7023, 113.53 29.6042, 113.752 29.321, 113.865 28.8507 L 118.564 10.6122 C 118.677 10.2319, 118.733 9.94258, 118.733 9.74527 L 118.733 9.67984 C 118.688 9.6369, 118.379 9.61543, 117.807 9.61441 L 115.937 9.61441 C 115.263 9.61543, 114.606 9.68699, 113.966 9.82808, 113.326 9.97018, 112.753 10.2421, 112.247 10.6449, 112.012 10.831, 111.787 11.0988, 111.573 11.4475, 111.361 11.7971, 111.15 12.1979, 110.943 12.6497, 110.735 13.1026, 110.536 13.5852, 110.345 14.0974, 110.153 14.6106, 109.962 15.1228, 109.771 15.6339, 109.659 15.9621, 109.451 16.1206, 109.148 16.1083 L 108.861 16.1083 C 108.694 16.1093, 108.57 16.0551, 108.491 15.9447, 108.424 15.8803, 108.39 15.8036, 108.39 15.7157, 108.39 15.6513, 108.407 15.5859, 108.441 15.5194, 108.733 14.4194, 109.098 13.2958, 109.536 12.1508, 109.974 11.0058, 110.39 9.8659, 110.782 8.73111, 110.895 8.40498, 111.108 8.24141, 111.422 8.24038 L 129.985 8.24038 C 130.3 8.24141, 130.456 8.37738, 130.456 8.64932 L 130.456 8.76382 Z" stroke="none" fill="#000000" />
			<path d="M 2.77742 16.2002 C -8.14358 8.91013, -8.14358 -8.91013, 2.77742 -16.2002 L 4.49262 -16.2002 C -5.35638 -8.91013, -5.35638 8.91013, 4.49262 16.2002" stroke="none" fill="#000000" transform="matrix(1 0 -0 1 5.025 21.2252)" />
			<path d="M 2.77742 16.2002 C -8.14358 8.91013, -8.14358 -8.91013, 2.77742 -16.2002 L 4.49262 -16.2002 C -5.35638 -8.91013, -5.35638 8.91013, 4.49262 16.2002" stroke="none" fill="#000000" transform="matrix(-1 1.50996e-007 -1.50996e-007 -1 135.125 21.2252)" />
			<rect />
		</svg>
	</g>
	<g transform="matrix(1 0 -0 1 558.495 183.374)">
		<svg width="455.985931" height="102.125565">
			<defs />
			<path d="M 38.7878 8.91104 C 38.7551 9.05416, 38.6795 9.17378, 38.5609 9.27192, 38.4423 9.37007, 38.2991 9.41914, 38.1305 9.41812, 37.7266 9.41914, 37.3341 9.44981, 36.9517 9.50911, 36.5693 9.56942, 36.2156 9.71357, 35.8895 9.94156, 35.6206 10.1062, 35.4069 10.3219, 35.2495 10.5887, 35.0921 10.8565, 34.9745 11.1418, 34.8958 11.4464 L 29.9262 30.7973 C 29.8025 31.1244, 29.5837 31.288, 29.2688 31.288 L 28.8814 31.288 C 28.6789 31.288, 28.5276 31.2011, 28.4264 31.0263, 27.1577 27.6035, 25.8972 24.1878, 24.6448 20.7794, 23.3924 17.3719, 22.1932 14.1515, 21.0472 11.1193 L 16.7002 28.0165 C 16.6327 28.2026, 16.599 28.3886, 16.599 28.5727, 16.599 28.6504, 16.6102 28.7321, 16.6327 28.818, 16.6665 29.0808, 16.7677 29.2883, 16.9353 29.4396, 17.1378 29.6369, 17.4076 29.7678, 17.745 29.8332, 18.0824 29.8986, 18.4637 29.9313, 18.89 29.9303, 19.2049 29.9313, 19.3624 30.0622, 19.3624 30.3229, 19.3624 30.3894, 19.3511 30.4599, 19.3286 30.5355 L 19.2612 30.7809 C 19.2274 30.9343, 19.1456 31.0569, 19.0168 31.149, 18.888 31.242, 18.75 31.288, 18.6038 31.288, 17.4813 31.2226, 16.3414 31.1898, 15.1841 31.1898, 14.039 31.1898, 12.8818 31.2226, 11.7132 31.288, 11.5445 31.288, 11.4208 31.2389, 11.3421 31.1408, 11.2644 31.0651, 11.2256 30.9833, 11.2245 30.8954, 11.2256 30.831, 11.2368 30.7656, 11.2583 30.6991 L 11.3258 30.4538 C 11.3595 30.3127, 11.4382 30.191, 11.5619 30.0867, 11.6856 29.9835, 11.8257 29.9313, 11.9821 29.9303, 12.4094 29.9313, 12.8092 29.8986, 13.1793 29.8332, 13.5493 29.7678, 13.9031 29.6318, 14.2404 29.4232, 14.4991 29.2607, 14.7066 29.046, 14.8641 28.7781, 15.0215 28.5113, 15.1442 28.2251, 15.2342 27.9184 L 19.9512 9.58169 C 19.7611 9.51728, 19.4155 9.47435, 18.9156 9.45185, 18.4157 9.43039, 17.8851 9.41914, 17.3228 9.41812, 17.1551 9.41914, 17.0314 9.36496, 16.9527 9.25454, 16.8852 9.19014, 16.8515 9.10835, 16.8515 9.00918, 16.8515 8.94477, 16.8689 8.88446, 16.9016 8.82925 L 16.9527 8.56753 C 17.0764 8.24141, 17.2952 8.07783, 17.6101 8.07681 L 22.8833 8.07681 C 23.097 8.07783, 23.237 8.16473, 23.3045 8.33853 L 29.7238 25.6447, 33.4134 11.3483 C 33.4809 11.153, 33.5146 10.9567, 33.5146 10.7594, 33.5146 10.4221, 33.4083 10.144, 33.1946 9.9252, 32.9595 9.69722, 32.6814 9.55613, 32.3604 9.50093, 32.0404 9.44674, 31.6672 9.41914, 31.2399 9.41812, 31.0722 9.41914, 30.9485 9.37007, 30.8688 9.2709, 30.7911 9.19525, 30.7512 9.10835, 30.7512 9.00918, 30.7512 8.94477, 30.7686 8.88446, 30.8013 8.82925 L 30.8524 8.56753 C 30.9761 8.24141, 31.1949 8.07783, 31.5098 8.07681, 32.6558 8.12179, 33.807 8.14326, 34.9633 8.14224, 36.1093 8.14326, 37.2604 8.12179, 38.4167 8.07681, 38.5742 8.07783, 38.7091 8.13202, 38.8216 8.24038, 38.8665 8.3283, 38.889 8.41009, 38.889 8.48574, 38.889 8.5522, 38.8727 8.61251, 38.8379 8.66568 Z" stroke="none" fill="#000000" />
			<path d="M 4.27012 5.70916 L -3.40953 5.70916, -3.40953 5.20535 C -3.40953 5.16928, -3.39064 5.11432, -3.35285 5.04047 L -0.267596 1.68785 C 0.0970931 1.28538, 0.466362 0.873169, 0.840783 0.451802, 1.2152 0.0304351, 1.5507 -0.400093, 1.84611 -0.83978, 2.14153 -1.27947, 2.3774 -1.7329, 2.55373 -2.20006, 2.73007 -2.66723, 2.81766 -3.1573, 2.81766 -3.67084, 2.81766 -4.10366, 2.76098 -4.50842, 2.64762 -4.88399, 2.53427 -5.25956, 2.3711 -5.58932, 2.15698 -5.87329, 1.94344 -6.15725, 1.67607 -6.38625, 1.35547 -6.5603, 1.03486 -6.73434, 0.663305 -6.82136, 0.241938 -6.82194, -0.386678 -6.82136, -0.942012 -6.63358, -1.42349 -6.25801, -1.9044 -5.88245, -2.22386 -5.46852, -2.3813 -5.01738, -2.41222 -5.00479, -2.36184 -4.99849, -2.23016 -4.99906 L -2.06986 -4.99906 C -1.88093 -4.95555, -1.71776 -4.88971, -1.57922 -4.80155, -1.44067 -4.71281, -1.32445 -4.59086, -1.22998 -4.43514, -1.13552 -4.27942, -1.08857 -4.09164, -1.08857 -3.87236, -1.08857 -3.50539, -1.20766 -3.22428, -1.44697 -3.02906, -1.68627 -2.83326, -1.95364 -2.73593, -2.24905 -2.73651, -2.53187 -2.73593, -2.79637 -2.83326, -3.04141 -3.02906, -3.28644 -3.22428, -3.40953 -3.50539, -3.40953 -3.87236, -3.40953 -4.38476, -3.30877 -4.87025, -3.10724 -5.32826, -2.90572 -5.78626, -2.63263 -6.18301, -2.28684 -6.51908, -1.94104 -6.85457, -1.53227 -7.12021, -1.06052 -7.31601, -0.588773 -7.51124, -0.0884004 -7.60914, 0.440026 -7.60971, 1.09441 -7.60914, 1.69382 -7.51295, 2.23771 -7.32059, 2.78159 -7.12823, 3.24532 -6.85171, 3.62891 -6.4916, 4.01249 -6.13092, 4.31305 -5.71413, 4.53004 -5.24124, 4.74702 -4.76777, 4.85522 -4.2445, 4.85522 -3.67084, 4.85522 -3.03536, 4.71095 -2.45025, 4.42126 -1.9161, 4.13214 -1.38137, 3.77375 -0.891306, 3.34609 -0.445893, 2.91842 9.20296e-005, 2.46385 0.419742, 1.98237 0.813628, 1.50146 1.20751, 1.06578 1.59052, 0.6759 1.96266 L -1.49448 4.00537, 1.34574 4.00537 C 1.74191 4.00594, 2.11175 4.00308, 2.45412 3.99678, 2.79705 3.99106, 3.08788 3.97846, 3.32719 3.96014, 3.5665 3.94182, 3.68902 3.9298, 3.69474 3.92293, 3.74513 3.88056, 3.79264 3.79526, 3.83673 3.66702, 3.88081 3.53877, 3.92146 3.38763, 3.95924 3.21359, 3.99703 3.03955, 4.03482 2.86264, 4.0726 2.6823, 4.11039 2.50253, 4.14474 2.30502, 4.17623 2.0909 L 4.87411 2.0909 Z" stroke="none" fill="#000000" transform="matrix(1.12 0 0 1 42.3648 30.3303)" />
			<path d="M 57.5669 31.0263 C 57.5669 32.3022, 57.3062 33.5075, 56.7838 34.6413, 56.2614 35.7761, 55.5284 36.779, 54.5847 37.651, 54.4845 37.7165, 54.3721 37.7492, 54.2474 37.7492, 54.1584 37.7492, 54.0408 37.7165, 53.8936 37.651 L 53.8098 37.5202 C 53.7198 37.4333, 53.6749 37.3351, 53.6749 37.2257, 53.6749 37.1276, 53.7198 37.0131, 53.8098 36.8822, 54.6635 36.0971, 55.3177 35.2035, 55.7727 34.1996, 56.2276 33.1967, 56.4546 32.1386, 56.4546 31.0263, 56.4546 30.9506, 56.4495 30.8668, 56.4382 30.7738, 56.427 30.6817, 56.4209 30.738, 56.4209 30.9445, 56.2419 31.152, 55.8269 31.2553, 55.1746 31.2553, 54.5234 31.2553, 54.0296 31.0549, 53.6922 30.6511, 53.3549 30.2483, 53.1862 29.8005, 53.1862 29.3087, 53.1862 28.819, 53.3549 28.3753, 53.6922 27.9766, 54.0296 27.5789, 54.5234 27.3796, 55.1746 27.3786, 55.6572 27.3796, 56.0508 27.5023, 56.3534 27.7476, 56.657 27.993, 56.8983 28.2905, 57.0782 28.6391, 57.2581 28.9888, 57.3849 29.3752, 57.4575 29.8005, 57.5311 30.2258, 57.5669 30.6347, 57.5669 31.0263 Z" stroke="none" fill="#000000" />
			<path d="M 87.4733 8.92739 C 87.4068 9.25557, 87.2044 9.41914, 86.867 9.41812, 86.5082 9.41914, 86.1657 9.46003, 85.8396 9.54182, 85.5145 9.62361, 85.1965 9.76265, 84.8878 9.95893, 84.579 10.1552, 84.2958 10.3924, 84.0372 10.6705, 83.7785 10.9486, 83.5424 11.2624, 83.3287 11.61 L 71.0463 31.5824 C 70.8787 31.8881, 70.62 32.0353, 70.2714 32.0241 L 69.9514 32.0241 C 69.5363 32.0241, 69.3339 31.8503, 69.3452 31.5006 L 67.2391 10.6122 C 67.1942 10.33, 67.1492 10.1092, 67.1042 9.95076, 67.0592 9.79332, 66.9917 9.68086, 66.9018 9.61441, 66.7453 9.52853, 66.4959 9.47435, 66.1524 9.45185, 65.8099 9.43039, 65.4194 9.41914, 64.9818 9.41812, 64.8131 9.41914, 64.6894 9.36496, 64.6107 9.25454, 64.5432 9.19014, 64.5095 9.10835, 64.5095 9.00918, 64.5095 8.94477, 64.5269 8.88446, 64.5606 8.82925 L 64.6107 8.58389 C 64.6455 8.44281, 64.7211 8.32319, 64.8387 8.22505, 64.9573 8.1269, 65.1004 8.07783, 65.2681 8.07681, 66.3466 8.14326, 67.4364 8.17598, 68.5365 8.17495, 68.7052 8.17598, 68.8851 8.16473, 69.0753 8.14224, 70.3787 8.14326, 71.6822 8.12179, 72.9847 8.07681, 73.1421 8.07783, 73.2822 8.13202, 73.4059 8.24038, 73.4509 8.3283, 73.4734 8.41009, 73.4734 8.48574, 73.4734 8.5522, 73.457 8.61251, 73.4222 8.66568 L 73.3721 8.91104 C 73.3384 9.06439, 73.2566 9.18809, 73.1278 9.2801, 72.999 9.37313, 72.861 9.41914, 72.7148 9.41812, 72.3222 9.41914, 71.9623 9.4355, 71.6362 9.46821, 71.3111 9.50093, 70.9911 9.58783, 70.6762 9.72891, 70.4861 9.82808, 70.3961 9.99165, 70.4063 10.2196 L 70.4063 10.3341 C 70.7999 13.2355, 71.1148 16.1502, 71.35 19.0782, 71.5861 22.0062, 71.8386 24.7788, 72.1085 27.3949 L 82.0487 11.2174 C 82.1949 10.9895, 82.2849 10.7492, 82.3186 10.4977 L 82.3186 10.4159 C 82.3186 10.2534, 82.2798 10.1062, 82.2 9.97427, 81.9537 9.60418, 81.4936 9.41914, 80.8189 9.41812, 80.5265 9.41914, 80.3803 9.27192, 80.3803 8.97647 L 80.3803 8.86197, 80.4478 8.56753 C 80.5725 8.24141, 80.7913 8.07783, 81.1051 8.07681, 82.0937 8.12179, 83.0874 8.14326, 84.0873 8.14224, 84.2222 8.16473, 84.3521 8.17598, 84.4747 8.17495, 85.3284 8.17598, 86.2045 8.14326, 87.1032 8.07681, 87.4068 8.07783, 87.5694 8.22505, 87.5919 8.51846 L 87.5919 8.64932 Z" stroke="none" fill="#000000" />
			<path d="M 4.27012 5.70916 L -3.40953 5.70916, -3.40953 5.20535 C -3.40953 5.16928, -3.39064 5.11432, -3.35285 5.04047 L -0.267596 1.68785 C 0.0970931 1.28538, 0.466362 0.873169, 0.840783 0.451802, 1.2152 0.0304351, 1.5507 -0.400093, 1.84611 -0.83978, 2.14153 -1.27947, 2.3774 -1.7329, 2.55373 -2.20006, 2.73007 -2.66723, 2.81766 -3.1573, 2.81766 -3.67084, 2.81766 -4.10366, 2.76098 -4.50842, 2.64762 -4.88399, 2.53427 -5.25956, 2.3711 -5.58932, 2.15698 -5.87329, 1.94344 -6.15725, 1.67607 -6.38625, 1.35547 -6.5603, 1.03486 -6.73434, 0.663305 -6.82136, 0.241938 -6.82194, -0.386678 -6.82136, -0.942012 -6.63358, -1.42349 -6.25801, -1.9044 -5.88245, -2.22386 -5.46852, -2.3813 -5.01738, -2.41222 -5.00479, -2.36184 -4.99849, -2.23016 -4.99906 L -2.06986 -4.99906 C -1.88093 -4.95555, -1.71776 -4.88971, -1.57922 -4.80155, -1.44067 -4.71281, -1.32445 -4.59086, -1.22998 -4.43514, -1.13552 -4.27942, -1.08857 -4.09164, -1.08857 -3.87236, -1.08857 -3.50539, -1.20766 -3.22428, -1.44697 -3.02906, -1.68627 -2.83326, -1.95364 -2.73593, -2.24905 -2.73651, -2.53187 -2.73593, -2.79637 -2.83326, -3.04141 -3.02906, -3.28644 -3.22428, -3.40953 -3.50539, -3.40953 -3.87236, -3.40953 -4.38476, -3.30877 -4.87025, -3.10724 -5.32826, -2.90572 -5.78626, -2.63263 -6.18301, -2.28684 -6.51908, -1.94104 -6.85457, -1.53227 -7.12021, -1.06052 -7.31601, -0.588773 -7.51124, -0.0884004 -7.60914, 0.440026 -7.60971, 1.09441 -7.60914, 1.69382 -7.51295, 2.23771 -7.32059, 2.78159 -7.12823, 3.24532 -6.85171, 3.62891 -6.4916, 4.01249 -6.13092, 4.31305 -5.71413, 4.53004 -5.24124, 4.74702 -4.76777, 4.85522 -4.2445, 4.85522 -3.67084, 4.85522 -3.03536, 4.71095 -2.45025, 4.42126 -1.9161, 4.13214 -1.38137, 3.77375 -0.891306, 3.34609 -0.445893, 2.91842 9.20296e-005, 2.46385 0.419742, 1.98237 0.813628, 1.50146 1.20751, 1.06578 1.59052, 0.6759 1.96266 L -1.49448 4.00537, 1.34574 4.00537 C 1.74191 4.00594, 2.11175 4.00308, 2.45412 3.99678, 2.79705 3.99106, 3.08788 3.97846, 3.32719 3.96014, 3.5665 3.94182, 3.68902 3.9298, 3.69474 3.92293, 3.74513 3.88056, 3.79264 3.79526, 3.83673 3.66702, 3.88081 3.53877, 3.92146 3.38763, 3.95924 3.21359, 3.99703 3.03955, 4.03482 2.86264, 4.0726 2.6823, 4.11039 2.50253, 4.14474 2.30502, 4.17623 2.0909 L 4.87411 2.0909 Z" stroke="none" fill="#000000" transform="matrix(1.12 0 0 1 89.6086 30.3303)" />
			<path d="M 104.811 31.0263 C 104.811 32.3022, 104.55 33.5075, 104.028 34.6413, 103.505 35.7761, 102.772 36.779, 101.829 37.651, 101.728 37.7165, 101.616 37.7492, 101.491 37.7492, 101.402 37.7492, 101.285 37.7165, 101.137 37.651 L 101.054 37.5202 C 100.964 37.4333, 100.919 37.3351, 100.919 37.2257, 100.919 37.1276, 100.964 37.0131, 101.054 36.8822, 101.907 36.0971, 102.562 35.2035, 103.016 34.1996, 103.471 33.1967, 103.698 32.1386, 103.698 31.0263, 103.698 30.9506, 103.693 30.8668, 103.682 30.7738, 103.671 30.6817, 103.665 30.738, 103.665 30.9445, 103.486 31.152, 103.071 31.2553, 102.418 31.2553, 101.767 31.2553, 101.273 31.0549, 100.936 30.6511, 100.599 30.2483, 100.43 29.8005, 100.43 29.3087, 100.43 28.819, 100.599 28.3753, 100.936 27.9766, 101.273 27.5789, 101.767 27.3796, 102.418 27.3786, 102.901 27.3796, 103.295 27.5023, 103.597 27.7476, 103.901 27.993, 104.142 28.2905, 104.322 28.6391, 104.502 28.9888, 104.629 29.3752, 104.701 29.8005, 104.775 30.2258, 104.811 30.6347, 104.811 31.0263 Z" stroke="none" fill="#000000" />
			<path d="M 132.417 15.5849 C 132.384 15.728, 132.314 15.8507, 132.208 15.9539, 132.101 16.0582, 131.968 16.1093, 131.811 16.1083 L 131.491 16.1083 C 131.176 16.1093, 131.019 15.9785, 131.019 15.7157 L 131.019 15.6012 C 131.108 15.1115, 131.187 14.6024, 131.255 14.0728, 131.322 13.5443, 131.378 13.0505, 131.423 12.5915 L 131.423 12.068 C 131.423 11.8186, 131.412 11.5896, 131.39 11.381, 131.345 11.0436, 131.266 10.7881, 131.153 10.6122, 130.851 10.2207, 130.427 9.95689, 129.882 9.8199, 129.338 9.68393, 128.728 9.61543, 128.055 9.61441 L 126.185 9.61441 C 125.624 9.61543, 125.275 9.64814, 125.14 9.71255, 125.04 9.81172, 124.927 10.1389, 124.804 10.694 L 120.104 28.9162 C 120.059 29.0808, 120.037 29.2116, 120.037 29.3087, 120.037 29.5275, 120.104 29.6584, 120.238 29.7013, 120.553 29.8005, 121.059 29.8639, 121.755 29.8905, 122.451 29.9181, 123.148 29.9313, 123.843 29.9303, 124.158 29.9313, 124.315 30.0622, 124.315 30.3229, 124.315 30.3894, 124.304 30.4599, 124.281 30.5355 L 124.214 30.7809 C 124.146 31.1203, 123.928 31.288, 123.556 31.288, 121.715 31.2226, 119.857 31.1898, 117.982 31.1898, 116.117 31.1898, 114.242 31.2226, 112.355 31.288, 112.187 31.288, 112.063 31.2389, 111.985 31.1408, 111.907 31.0651, 111.867 30.9833, 111.867 30.8954, 111.867 30.831, 111.878 30.7656, 111.901 30.6991 L 111.967 30.4538 C 112.002 30.3127, 112.081 30.191, 112.203 30.0867, 112.327 29.9835, 112.467 29.9313, 112.625 29.9303, 113.31 29.9313, 114.012 29.9181, 114.731 29.8905, 115.449 29.8639, 115.974 29.8005, 116.305 29.7023, 116.636 29.6042, 116.858 29.321, 116.971 28.8507 L 121.67 10.6122 C 121.783 10.2319, 121.839 9.94258, 121.839 9.74527 L 121.839 9.67984 C 121.794 9.6369, 121.485 9.61543, 120.913 9.61441 L 119.043 9.61441 C 118.369 9.61543, 117.712 9.68699, 117.072 9.82808, 116.432 9.97018, 115.859 10.2421, 115.353 10.6449, 115.118 10.831, 114.893 11.0988, 114.68 11.4475, 114.467 11.7971, 114.256 12.1979, 114.049 12.6497, 113.841 13.1026, 113.642 13.5852, 113.451 14.0974, 113.259 14.6106, 113.068 15.1228, 112.877 15.6339, 112.765 15.9621, 112.557 16.1206, 112.255 16.1083 L 111.967 16.1083 C 111.8 16.1093, 111.676 16.0551, 111.597 15.9447, 111.53 15.8803, 111.496 15.8036, 111.496 15.7157, 111.496 15.6513, 111.513 15.5859, 111.547 15.5194, 111.839 14.4194, 112.204 13.2958, 112.642 12.1508, 113.08 11.0058, 113.496 9.8659, 113.888 8.73111, 114.001 8.40498, 114.214 8.24141, 114.528 8.24038 L 133.091 8.24038 C 133.406 8.24141, 133.562 8.37738, 133.562 8.64932 L 133.562 8.76382 Z" stroke="none" fill="#000000" />
			<path d="M 2.77742 16.2002 C -8.14358 8.91013, -8.14358 -8.91013, 2.77742 -16.2002 L 4.49262 -16.2002 C -5.35638 -8.91013, -5.35638 8.91013, 4.49262 16.2002" stroke="none" fill="#000000" transform="matrix(1 0 -0 1 5.025 21.2252)" />
			<path d="M 2.77742 16.2002 C -8.14358 8.91013, -8.14358 -8.91013, 2.77742 -16.2002 L 4.49262 -16.2002 C -5.35638 -8.91013, -5.35638 8.91013, 4.49262 16.2002" stroke="none" fill="#000000" transform="matrix(-1 1.50996e-007 -1.50996e-007 -1 138.231 21.2252)" />
			<rect />
		</svg>
	</g>
	<path d="M 0 71.5 L 0 -71.5" fill="none" stroke="#000000" stroke-width="1.60000002" stroke-linecap="round" stroke-linejoin="round" marker-end="url(#CustomMarker-02)" transform="matrix(0.625 0 0 0.625 448.448 70.0625)" />
</svg>
