<?xml version="1.0"?>
<svg xmlns="http://www.w3.org/2000/svg" xmlns:xlink="http://www.w3.org/1999/xlink" width="561.305237" height="239.451004">
	<defs>
		<marker id="CustomMarker-01" markerUnits="strokeWidth" markerWidth="15.000001" markerHeight="9" viewBox="-15 -4.5 15 9" orient="auto-start-reverse">
			<path d="M 0 -0 L -10 -3, -8 -0.5, -8 0.5, -10 3 Z" fill="#000000" stroke="#000000" stroke-linejoin="round" />
		</marker>
		<marker id="CustomMarker-02" markerUnits="strokeWidth" markerWidth="15.000001" markerHeight="9" viewBox="-15 -4.5 15 9" orient="auto-start-reverse">
			<path d="M 0 -0 L -10 -3, -8 -0.5, -8 0.5, -10 3 Z" fill="#000000" stroke="#000000" stroke-linejoin="round" />
		</marker>
		<marker id="CustomMarker-03" markerUnits="strokeWidth" markerWidth="15.000001" markerHeight="9" viewBox="-15 -4.5 15 9" orient="auto-start-reverse">
			<path d="M 0 -0 L -10 -3, -8 -0.5, -8 0.5, -10 3 Z" fill="#000000" stroke="#000000" stroke-linejoin="round" />
		</marker>
		<marker id="CustomMarker-04" markerUnits="strokeWidth" markerWidth="15.000001" markerHeight="9" viewBox="-15 -4.5 15 9" orient="auto-start-reverse">
			<path d="M 0 -0 L -10 -3, -8 -0.5, -8 0.5, -10 3 Z" fill="#000000" stroke="#000000" stroke-linejoin="round" />
		</marker>
	</defs>
	<rect x="-88.8179016" y="-148.736877" width="177.635803" height="297.473755" stroke="none" fill="#9FE1E4" fill-opacity="0.392156839" transform="matrix(0.555556 0 -0 0.555556 270.379 91.1315)" />
	<path d="M -88.8179 -148.737 L 88.8179 -148.737, 88.8179 148.737, -88.8179 148.737 Z" fill="none" stroke="#000000" stroke-width="1.79999995" stroke-linecap="round" stroke-linejoin="round" transform="matrix(0.555556 0 -0 0.555556 270.379 91.1315)" />
	<path d="M 0 0 L 127.869 0" fill="none" stroke="#000000" stroke-width="1.79999995" stroke-linecap="round" stroke-linejoin="round" marker-end="url(#CustomMarker-01)" transform="matrix(0.555556 0 0 0.555556 149.997 32.7105)" />
	<g transform="matrix(1 0 -0 1 94.057 23.1041)">
		<svg width="134.944153" height="53.902317">
			<defs />
			<path d="M 7.28028 8.0736 L 7.28028 9.87004, 9.48696 9.87004, 9.48696 8.0736 Z M 7.28028 10.2846 L 7.28028 12.1501, 9.48696 12.1501, 9.48696 10.2846 Z M 10.6227 1.92426 C 9.10695 4.46346, 7.23278 6.23398, 5.00019 7.24448 L 4.85768 7.0372 C 6.23524 6.12171, 7.34074 5.0853, 8.16986 3.9323, 8.99899 2.78361, 9.62947 1.63061, 10.057 0.473291 L 11.4777 1.30242, 10.9077 1.64789 C 12.3328 3.91071, 14.1853 5.24508, 16.4611 5.65532 L 16.4611 5.9317 C 15.7529 5.98352, 15.3254 6.23398, 15.1786 6.69173, 13.3303 5.72873, 11.8102 4.13958, 10.6227 1.92426 Z M 6.35615 16.8485 C 6.40365 15.9287, 6.42525 14.3309, 6.42525 12.0508, 6.42525 9.77072, 6.40365 8.14702, 6.35615 7.17538 L 7.34937 7.65904, 9.34446 7.65904, 9.84107 7.0372, 10.8386 7.79723, 10.3377 8.21179, 10.3377 15.4666 C 10.3377 16.1576, 9.98357 16.6196, 9.27104 16.8485, 9.13286 16.2958, 8.67943 15.9503, 7.9194 15.8121 L 7.9194 15.5357 C 8.39442 15.5832, 8.77443 15.6048, 9.05944 15.6048, 9.34446 15.6048, 9.48696 15.4234, 9.48696 15.0521 L 9.48696 12.5647, 7.28028 12.5647, 7.28028 16.3649 Z M 11.7627 14.0848 C 11.8146 13.4456, 11.8361 12.4092, 11.8361 10.9799, 11.8361 9.5548, 11.8146 8.49248, 11.7627 7.79723 L 13.1144 8.48817, 12.6869 8.83363, 12.6869 13.6702 Z M 14.181 9.1791 C 14.181 8.67817, 14.1594 7.98724, 14.1119 7.10629 L 15.5327 7.72813, 15.0361 8.21179, 15.0361 15.2594 C 15.0879 15.9978, 14.6344 16.503, 13.6844 16.7794, 13.6412 16.1835, 13.0237 15.7689, 11.8361 15.5357 L 11.8361 15.2594 C 12.7387 15.3069, 13.3562 15.3284, 13.6844 15.3284, 14.0169 15.3284, 14.181 15.1471, 14.181 14.7757 Z M 3.15193 8.0736 C 3.15193 6.88174, 3.13034 5.95761, 3.07852 5.30985 L 4.57699 6.00079, 4.07606 6.48445, 4.07606 8.0736, 4.43448 8.0736, 5.14269 7.45176, 6.14023 8.48817, 4.07606 8.48817, 4.07606 11.3901, 5.99773 11.0446, 6.07114 11.321, 4.07606 11.8738 C 4.07606 14.0891, 4.10197 15.6048, 4.14947 16.4339 L 3.07852 16.8485 C 3.13034 14.9182, 3.15193 13.3506, 3.15193 12.1501, 1.39868 12.6165, 0.448638 13.0052, 0.306132 13.3247 L -0.337303 12.1501 C 0.707739 12.0163, 1.8737 11.8306, 3.15193 11.5974 L 3.15193 8.48817, 1.08775 8.48817, 0.517732 8.97182, -0.263891 7.86632 C 0.0686224 7.77995, 0.375226 7.41289, 0.660237 6.76514, 0.945249 6.12171, 1.27776 5.24508, 1.65778 4.13526 L 1.51527 4.13526 C 1.18708 4.13958, 0.75956 4.20867, 0.23272 4.34254 L -0.406397 3.7207, 1.80028 3.7207 C 2.0853 2.61952, 2.34872 1.6047, 2.58191 0.680573 L 3.93355 1.4406 C 3.70036 1.58311, 3.51035 1.78175, 3.36785 2.03222, 3.22534 2.287, 3.00942 2.84839, 2.72441 3.7207 L 4.71949 3.7207, 5.57021 2.96067, 6.63685 4.13526, 2.58191 4.13526, 1.08775 8.0736 Z M 7.9194 5.51713 L 11.5511 5.51713, 12.2593 4.8262, 13.3303 5.9317, 9.91448 5.9317, 8.0619 5.65532, 8.48942 6.06988 Z" stroke="none" fill="#000000" />
			<path d="M 20.5944 1.85517 L 21.2335 1.23332 C 22.9911 1.83789, 24.0577 2.49428, 24.4377 3.20681, 24.8178 3.92366, 25.2669 5.0378, 25.7894 6.55354, 26.2644 8.07792, 27.1324 9.64549, 28.389 11.2562, 29.6457 12.8713, 31.1269 13.9293, 32.8326 14.4302 L 32.8326 14.7066 C 32.0294 14.7109, 31.4119 15.0089, 30.9844 15.6048, 29.8012 14.7325, 28.8036 13.7782, 27.9961 12.7417, 27.1885 11.7053, 26.5365 10.6603, 26.0355 9.59798, 25.5389 8.53999, 25.0769 7.22721, 24.6493 5.65532, 23.9843 7.77995, 23.0386 9.68003, 21.8036 11.3599, 20.5685 13.044, 18.6943 14.6634, 16.181 16.2267 L 16.0385 15.9503 C 18.1761 14.3439, 19.8732 12.6036, 21.1299 10.738, 22.3865 8.8725, 23.2761 6.76514, 23.7943 4.41163, 23.9411 3.8632, 23.7166 3.37955, 23.1207 2.96498, 22.529 2.55042, 21.687 2.18336, 20.5944 1.85517 Z" stroke="none" fill="#000000" />
			<path d="M 42.0628 8.48502 C 42.0039 8.72106, 41.8837 8.89772, 41.7031 9.0155, 41.5225 9.13327, 41.3409 9.19215, 41.1574 9.19166, 40.969 9.19215, 40.8124 9.1318, 40.6883 9.01108, 40.597 8.92275, 40.5484 8.80743, 40.5425 8.66561, 40.5425 8.60869, 40.5533 8.53508, 40.5749 8.44577, 40.6343 8.24751, 40.7261 8.09686, 40.8497 7.99479, 40.9739 7.89272, 41.0603 7.83384, 41.1088 7.81764, 41.0068 7.73962, 40.7962 7.70036, 40.4778 7.69987, 40.1976 7.70036, 39.9468 7.84561, 39.726 8.13612, 39.5052 8.42663, 39.3403 8.77602, 39.2323 9.18381 L 38.4884 12.0575 C 38.4128 12.346, 38.3564 12.6208, 38.3186 12.8819, 38.297 12.9712, 38.2862 13.0497, 38.2862 13.1174, 38.2862 13.2804, 38.3132 13.4345, 38.3672 13.5807, 38.4211 13.7382, 38.5021 13.8638, 38.6101 13.9581, 38.718 14.0523, 38.8554 14.0994, 39.0223 14.0989, 39.2382 14.0994, 39.4458 14.0434, 39.645 13.9306, 39.8447 13.8182, 40.0283 13.6666, 40.1951 13.4752, 40.362 13.2843, 40.5102 13.062, 40.6397 12.8078, 40.7693 12.5541, 40.8713 12.2935, 40.9469 12.0261, 40.9793 11.8906, 41.071 11.8224, 41.2217 11.8219 L 41.4077 11.8219 C 41.548 11.8224, 41.6182 11.8749, 41.6182 11.979, 41.6182 12.0109, 41.6104 12.0398, 41.5942 12.0653, 41.5186 12.3799, 41.3959 12.69, 41.2261 12.9962, 41.0563 13.3024, 40.8586 13.5733, 40.6319 13.8089, 40.4051 14.0444, 40.148 14.2383, 39.8595 14.3894, 39.5709 14.5415, 39.2622 14.6171, 38.9335 14.6171, 38.5993 14.6171, 38.3107 14.5454, 38.0683 14.4012, 37.8259 14.2579, 37.6286 14.0704, 37.4775 13.8398, 37.4294 13.7829, 37.3916 13.724, 37.3646 13.6636, 37.3376 13.6038, 37.3293 13.5944, 37.3401 13.6356, 37.211 13.8506, 37.0064 14.068, 36.7257 14.2878, 36.4455 14.5077, 36.1221 14.6171, 35.7551 14.6171, 35.5504 14.6171, 35.3482 14.5911, 35.1485 14.5386, 34.9493 14.4866, 34.7751 14.4056, 34.6269 14.2957, 34.4787 14.1857, 34.3668 14.0523, 34.2912 13.8948, 34.2539 13.801, 34.2353 13.699, 34.2348 13.5885, 34.2353 13.5105, 34.2461 13.4187, 34.2672 13.3137, 34.3266 13.0787, 34.4478 12.902, 34.6313 12.7842, 34.8148 12.6665, 34.9979 12.6076, 35.1809 12.6071, 35.3698 12.6076, 35.5318 12.6679, 35.6662 12.7877, 35.758 12.877, 35.8036 12.9923, 35.8036 13.1331, 35.8036 13.2068, 35.7928 13.2804, 35.7712 13.353, 35.7232 13.5365, 35.6353 13.6847, 35.5087 13.7971, 35.3821 13.91, 35.2913 13.9713, 35.2373 13.9811, 35.3399 14.0655, 35.5475 14.1048, 35.8601 14.0989, 36.1408 14.0994, 36.394 13.9531, 36.6202 13.6597, 36.8469 13.3667, 37.0113 13.0159, 37.1139 12.6071 L 37.8656 9.71772 C 37.9412 9.44586, 38.0006 9.17891, 38.0438 8.91686, 38.0546 8.83344, 38.06 8.75492, 38.06 8.68131, 38.06 8.51937, 38.0359 8.36774, 37.9869 8.22592, 37.9334 8.06938, 37.8499 7.94278, 37.7366 7.84561, 37.6232 7.74894, 37.4829 7.70036, 37.316 7.69987, 37.1001 7.70036, 36.8911 7.75679, 36.6889 7.86917, 36.4867 7.98203, 36.3022 8.13219, 36.1354 8.32063, 35.9685 8.50907, 35.8203 8.72793, 35.6908 8.97624, 35.5612 9.22503, 35.467 9.48806, 35.4071 9.76483, 35.3482 9.90665, 35.2486 9.97976, 35.1083 9.98467 L 34.9301 9.98467 C 34.8011 9.98516, 34.7363 9.9199, 34.7363 9.78838 L 34.7363 9.73342 C 34.8173 9.40954, 34.9414 9.09401, 35.1083 8.7878, 35.2751 8.48159, 35.4748 8.21071, 35.7065 7.97516, 35.9386 7.73962, 36.1977 7.54725, 36.4833 7.39807, 36.7689 7.24889, 37.079 7.1743, 37.4127 7.17381, 37.7366 7.1743, 38.0222 7.24497, 38.27 7.3863, 38.5183 7.52762, 38.7205 7.71606, 38.8765 7.95112, 38.9089 8.00902, 38.9389 8.07085, 38.9658 8.13612, 38.9928 8.20188, 39.0007 8.21856, 38.9899 8.18666, 39.1248 7.95701, 39.3324 7.73078, 39.6126 7.508, 39.8933 7.2857, 40.2138 7.1743, 40.5749 7.17381, 40.78 7.1743, 40.9832 7.19933, 41.1854 7.24889, 41.3876 7.29895, 41.5632 7.37844, 41.7114 7.48837, 41.8596 7.59829, 41.9691 7.73422, 42.0388 7.89616, 42.0765 7.99087, 42.0952 8.09833, 42.0952 8.21807, 42.0952 8.29708, 42.0844 8.3859, 42.0628 8.48502 Z" stroke="none" fill="#000000" />
			<rect />
		</svg>
	</g>
	<path d="M -143.048 0 L 143.048 0" fill="none" stroke="#000000" stroke-width="1.79999995" stroke-linecap="round" stroke-linejoin="round" marker-end="url(#CustomMarker-02)" transform="matrix(0.555556 0 0 0.555556 141.564 134.835)" />
	<g transform="matrix(1 0 -0 1 8.50001 124.871)">
		<svg width="140.972061" height="53.902317">
			<defs />
			<path d="M 12.35 4.27345 C 10.0699 4.41595, 8.57579 4.50664, 7.85894 4.54982, 7.47893 5.15439, 7.09891 5.75033, 6.71889 6.34626 L 14.0601 6.34626, 14.9842 5.44804, 16.2668 6.76082, 9.64242 6.76082 C 10.735 7.87064, 11.875 8.65658, 13.0626 9.11433, 14.2501 9.57639, 15.3427 9.87436, 16.3402 10.0082 L 16.3402 10.2155 C 15.6752 10.358, 15.2001 10.6344, 14.9151 11.0446, 13.8226 10.6344, 12.7646 10.073, 11.7455 9.35616, 10.7263 8.64363, 9.90584 7.77995, 9.284 6.76082 L 6.57639 6.76082 C 5.77317 7.77995, 4.89223 8.65658, 3.94219 9.3907, 2.99215 10.1291, 1.6405 10.8892, -0.121385 11.6665 L -0.190479 11.3901 C 1.51959 10.4271, 2.78055 9.56344, 3.58808 8.80341, 4.39562 8.04338, 5.01314 7.36539, 5.43634 6.76082 L 1.23458 6.76082, 0.591144 6.89901, 0.0211203 6.34626, 5.65226 6.34626 C 5.84227 6.0742, 6.15319 5.49986, 6.57639 4.61892, 4.63313 4.71392, 3.35057 4.89961, 2.72873 5.17167 L 2.23212 3.92798 C 2.99215 3.8848, 3.9206 3.4616, 5.01314 2.65406, 6.10569 1.85085, 6.86572 1.16855, 7.28892 0.611479 L 8.35987 1.71698, 7.50484 1.92426 C 5.46225 3.08158, 4.10629 3.79411, 3.44126 4.06617 L 12.1341 3.99707 C 11.5209 3.44864, 10.7825 2.94339, 9.92743 2.47701 L 10.0699 2.20063 C 11.59 2.7102, 12.635 3.15067, 13.2051 3.51773, 13.7751 3.88911, 14.0601 4.25617, 14.0601 4.61892, 14.0601 4.71392, 14.0126 4.89097, 13.9176 5.14144, 13.8226 5.39622, 13.706 5.52145, 13.5592 5.51713, 13.4642 5.52145, 13.3692 5.45236, 13.2742 5.30985, 13.041 4.9903, 12.73 4.64483, 12.35 4.27345 Z M 8.21736 7.58995 L 9.35741 8.69545, 8.78739 8.83363 C 6.26978 10.5869, 4.01128 11.7183, 2.0162 12.2192 L 1.94711 11.9429 C 3.46717 11.3469, 4.76268 10.6603, 5.82931 9.87436, 6.90027 9.09274, 7.69484 8.3327, 8.21736 7.58995 Z M 10.2124 9.66276 L 11.3525 10.7683, 10.5666 10.9064 C 7.43142 12.8929, 4.60722 14.0675, 2.08961 14.4302 L 2.0162 14.1539 C 4.25311 13.5147, 5.96318 12.8238, 7.15073 12.0854, 8.33828 11.3512, 9.35741 10.5437, 10.2124 9.66276 Z M 12.635 11.5974 L 13.7017 12.772, 12.9892 12.9102 C 10.234 14.482, 8.0144 15.458, 6.33024 15.8466, 4.64608 16.2396, 2.80214 16.4814, 0.807062 16.5721 L 0.807062 16.2958 C 3.46717 16.0194, 5.83363 15.4364, 7.89781 14.5382, 9.96198 13.64, 11.5425 12.6597, 12.635 11.5974 Z" stroke="none" fill="#000000" />
			<path d="M 20.7412 10.8374 C 20.3612 11.4419, 20.0071 12.0163, 19.6746 12.5647, 20.2921 12.7072, 21.0262 12.867, 21.8813 13.0484, 22.3131 12.5906, 22.7406 11.8565, 23.1638 10.8374 Z M 17.822 1.5097 C 18.7246 2.06677, 19.2687 2.48133, 19.4587 2.7577, 19.6487 3.03408, 19.7437 3.24136, 19.7437 3.37523, 19.7437 3.60842, 19.6616 3.84161, 19.4975 4.07048, 19.3335 4.30368, 19.1996 4.41595, 19.1046 4.41163, 18.9621 4.41595, 18.8196 4.18708, 18.6771 3.7207, 18.4871 3.08158, 18.1329 2.39064, 17.6061 1.64789 Z M 23.9498 1.30242 L 25.2323 2.13154 C 24.8523 2.22655, 24.5198 2.45974, 24.2348 2.82248, 23.9023 3.19386, 23.3538 3.74661, 22.5938 4.48073 L 22.3822 4.34254 C 23.2847 2.96498, 23.8073 1.95017, 23.9498 1.30242 Z M 20.7412 0.542385 L 22.3088 1.23332, 21.7388 1.71698, 21.7388 4.89529, 23.5223 4.89529, 24.3039 4.13526, 25.5173 5.30985, 21.7388 5.30985, 21.7388 5.9317 C 22.8356 6.16489, 23.5136 6.38513, 23.7727 6.59241, 24.0318 6.79969, 24.1614 7.06311, 24.1614 7.38267, 24.1614 7.52517, 24.1398 7.69791, 24.0923 7.90519, 24.0448 8.11247, 23.9714 8.21611, 23.8764 8.21179, 23.7814 8.21611, 23.6173 8.05633, 23.3798 7.72813, 22.9997 7.22721, 22.4556 6.74355, 21.7388 6.27717 L 21.7388 8.41907, 20.8837 8.97182, 21.8813 9.38638 C 21.6481 9.48139, 21.3372 9.82686, 20.9572 10.4228 L 23.1638 10.4228, 23.6648 9.80095, 24.7314 10.6992, 24.0923 11.0446 C 23.6173 12.107, 23.1897 12.8454, 22.8097 13.2556, 23.5698 13.4456, 24.0836 13.64, 24.3427 13.8472, 24.6018 14.0545, 24.7314 14.3223, 24.7314 14.6418, 24.7314 14.9657, 24.6623 15.1212, 24.5198 15.1212, 24.3773 15.1212, 24.2089 15.0348, 24.0189 14.8448, 23.5007 14.482, 22.9047 14.1582, 22.2397 13.8775, 20.5771 15.1687, 18.6036 16.0194, 16.3236 16.4339 L 16.2545 16.2267 C 18.4396 15.5357, 20.1496 14.6418, 21.3847 13.532, 20.4346 13.2125, 19.5105 12.9836, 18.6036 12.8411, 18.7937 12.569, 19.1737 11.8997, 19.7437 10.8374 L 18.8196 10.8374 C 18.202 10.8417, 17.632 10.9108, 17.1095 11.0446 L 16.4661 10.4228, 19.8862 10.4228 C 20.0762 9.96504, 20.2662 9.41229, 20.4562 8.76454 L 20.8146 8.90273, 20.8146 6.06988 C 19.5321 7.50358, 18.0595 8.60908, 16.397 9.38638 L 16.2545 9.1791 C 18.012 7.98724, 19.3421 6.69605, 20.2446 5.30985 L 18.9621 5.30985 C 18.3445 5.31417, 17.7745 5.38327, 17.252 5.51713 L 16.6086 4.89529, 20.8146 4.89529 C 20.8146 3.24136, 20.7931 1.79039, 20.7412 0.542385 Z M 26.584 5.30985 C 26.8258 7.98724, 27.3958 10.2198, 28.294 12.0119, 29.0541 10.4487, 29.5291 8.21611, 29.7191 5.30985 Z M 26.9424 0.542385 L 28.5791 1.4406 C 28.199 1.58311, 27.914 1.85948, 27.724 2.27405, 27.534 2.68861, 27.1799 3.56524, 26.6574 4.89529 L 30.7166 4.89529, 31.5717 4.06617, 32.8542 5.30985, 30.7901 5.30985 C 30.505 8.72136, 29.8875 11.2562, 28.9375 12.9102, 30.03 14.2057, 31.3126 15.0089, 32.7851 15.3284 L 32.7851 15.6048 C 31.8826 15.743, 31.4076 16.0194, 31.3601 16.4339, 30.125 15.6048, 29.1059 14.6634, 28.294 13.6011, 26.7308 15.078, 24.8523 16.1576, 22.6672 16.8485 L 22.5247 16.6412 C 24.7098 15.6739, 26.4458 14.413, 27.724 12.8411, 26.8258 10.6819, 26.3508 8.30679, 26.299 5.72442, 25.8239 6.92492, 25.1373 8.05633, 24.2348 9.11001 L 24.0189 8.97182 C 25.1589 7.1322, 26.1349 4.32527, 26.9424 0.542385 Z" stroke="none" fill="#000000" />
			<path d="M 44.6106 7.3387 C 44.7667 7.49082, 44.8638 7.69496, 44.9016 7.95112, 44.9124 8.07723, 44.9178 8.19746, 44.9178 8.31229, 44.9178 8.45951, 44.9046 8.60574, 44.8771 8.75198, 44.8452 9.04543, 44.7966 9.34035, 44.7318 9.63577, 44.6671 9.93167, 44.5998 10.1996, 44.5297 10.4401, 44.406 10.8802, 44.2696 11.3435, 44.1214 11.8303, 43.9732 12.3171, 43.7843 12.7661, 43.5551 13.1768, 43.3264 13.588, 43.0457 13.9306, 42.714 14.2054, 42.3823 14.4802, 41.974 14.6171, 41.4887 14.6171, 41.1118 14.6171, 40.7599 14.5518, 40.4336 14.4208, 40.1078 14.2903, 39.8501 14.0783, 39.6612 13.7848, 39.6396 13.7436, 39.618 13.7044, 39.5964 13.6675, 39.5748 13.6312, 39.5724 13.6283, 39.5881 13.6592, 39.4482 13.8898, 39.2461 14.1072, 38.982 14.3114, 38.718 14.5155, 38.3996 14.6171, 38.0276 14.6171, 37.6394 14.6171, 37.2729 14.5543, 36.9279 14.4287, 36.5829 14.3035, 36.3159 14.094, 36.127 13.8005, 35.917 13.4924, 35.8115 13.1469, 35.8115 12.7641, 35.8007 12.7543, 35.7953 12.7278, 35.7953 12.6856, 35.7953 12.3146, 35.8439 11.9456, 35.941 11.5785, 36.0274 11.2179, 36.153 10.8204, 36.3174 10.3856, 36.4818 9.9513, 36.6393 9.52977, 36.79 9.121, 36.9519 8.6872, 37.0329 8.33094, 37.0329 8.05319, 37.0329 7.81813, 36.9333 7.70036, 36.7336 7.69987, 36.5505 7.70036, 36.3846 7.75287, 36.2365 7.85739, 36.0882 7.9624, 35.9533 8.10766, 35.8321 8.29315, 35.7109 8.47914, 35.6015 8.69898, 35.5043 8.95268, 35.4071 9.20688, 35.3266 9.47727, 35.2619 9.76483, 35.2025 9.90665, 35.1029 9.97976, 34.9625 9.98467 L 34.7766 9.98467 C 34.647 9.98516, 34.5822 9.9199, 34.5822 9.78838 L 34.5822 9.73342 C 34.6578 9.44586, 34.7579 9.15192, 34.8816 8.85061, 35.0057 8.5498, 35.1623 8.27647, 35.3507 8.03012, 35.5396 7.78427, 35.7555 7.58013, 35.998 7.4177, 36.2404 7.25576, 36.5181 7.1743, 36.8307 7.17381, 37.1006 7.1743, 37.3308 7.23221, 37.5221 7.34704, 37.7135 7.46236, 37.8593 7.61546, 37.9589 7.80635, 38.059 7.99774, 38.114 8.21316, 38.1247 8.45362 L 38.1247 8.50858 C 38.1247 8.73431, 38.0791 8.96691, 37.9869 9.20737, 37.8308 9.61614, 37.6762 10.0337, 37.5221 10.4602, 37.3685 10.8871, 37.2483 11.2704, 37.162 11.6099, 37.0761 11.9613, 37.0221 12.3014, 37.0005 12.6306, 36.9897 12.694, 36.9843 12.7489, 36.9843 12.7955, 36.9843 13.0527, 37.0304 13.2907, 37.1217 13.51, 37.2027 13.699, 37.3308 13.8442, 37.5059 13.9463, 37.6811 14.0483, 37.8872 14.0994, 38.1247 14.0989, 38.3839 14.0994, 38.6155 13.9777, 38.8201 13.7343, 39.0252 13.4909, 39.2137 13.1729, 39.3859 12.7798 L 39.3859 12.6385 C 39.3859 12.4923, 39.3967 12.346, 39.4183 12.1988, 39.4399 11.9898, 39.4777 11.7832, 39.5317 11.5785 L 40.4616 7.92756 C 40.5106 7.73422, 40.6088 7.59191, 40.757 7.50014, 40.9052 7.40887, 41.0549 7.36274, 41.2055 7.36225, 41.362 7.36274, 41.4916 7.40985, 41.5942 7.50358, 41.6643 7.57228, 41.6992 7.66355, 41.6992 7.77838, 41.6992 7.83629, 41.6938 7.89665, 41.683 7.95897 L 40.7369 11.6099 C 40.6505 11.9613, 40.5965 12.3014, 40.5749 12.6306, 40.5641 12.7043, 40.5587 12.77, 40.5587 12.8269, 40.5587 13.0733, 40.5941 13.3039, 40.6637 13.5179, 40.7344 13.6965, 40.8488 13.8378, 41.0077 13.9424, 41.1667 14.0474, 41.3542 14.0994, 41.5696 14.0989, 41.8876 14.0994, 42.1639 14.0012, 42.3985 13.8049, 42.633 13.6087, 42.8367 13.3378, 43.0094 12.9923, 43.1821 12.6468, 43.3357 12.2479, 43.4702 11.7949, 43.6051 11.3425, 43.7347 10.8778, 43.8584 10.4008, 43.9123 10.1604, 43.9393 9.9302, 43.9393 9.70987, 43.9393 9.56363, 43.9285 9.42525, 43.9069 9.29373, 43.848 8.95415, 43.6969 8.6661, 43.454 8.43006, 43.3411 8.32063, 43.2818 8.18961, 43.2759 8.03749, 43.2759 8.00117, 43.2813 7.95946, 43.2921 7.91186, 43.3303 7.72391, 43.4221 7.56296, 43.5674 7.42948, 43.7131 7.296, 43.8775 7.21111, 44.0605 7.17381, 44.0983 7.164, 44.1415 7.1586, 44.1901 7.15811, 44.3466 7.1586, 44.487 7.21896, 44.6106 7.3387 Z" stroke="none" fill="#000000" />
			<rect />
		</svg>
	</g>
	<path d="M -166.73 0 L 166.73 0" fill="none" stroke="#000000" stroke-width="1.79999995" stroke-linecap="round" stroke-linejoin="round" marker-end="url(#CustomMarker-03)" transform="matrix(0.555556 0 0 0.555556 412.35 56.6203)" />
	<g transform="matrix(1 0 -0 1 510.722 47.014)">
		<svg width="131.818573" height="57.0279007">
			<defs />
			<path d="M 7.28028 8.0736 L 7.28028 9.87004, 9.48696 9.87004, 9.48696 8.0736 Z M 7.28028 10.2846 L 7.28028 12.1501, 9.48696 12.1501, 9.48696 10.2846 Z M 10.6227 1.92426 C 9.10695 4.46346, 7.23278 6.23398, 5.00019 7.24448 L 4.85768 7.0372 C 6.23524 6.12171, 7.34074 5.0853, 8.16986 3.9323, 8.99899 2.78361, 9.62947 1.63061, 10.057 0.473291 L 11.4777 1.30242, 10.9077 1.64789 C 12.3328 3.91071, 14.1853 5.24508, 16.4611 5.65532 L 16.4611 5.9317 C 15.7529 5.98352, 15.3254 6.23398, 15.1786 6.69173, 13.3303 5.72873, 11.8102 4.13958, 10.6227 1.92426 Z M 6.35615 16.8485 C 6.40365 15.9287, 6.42525 14.3309, 6.42525 12.0508, 6.42525 9.77072, 6.40365 8.14702, 6.35615 7.17538 L 7.34937 7.65904, 9.34446 7.65904, 9.84107 7.0372, 10.8386 7.79723, 10.3377 8.21179, 10.3377 15.4666 C 10.3377 16.1576, 9.98357 16.6196, 9.27104 16.8485, 9.13286 16.2958, 8.67943 15.9503, 7.9194 15.8121 L 7.9194 15.5357 C 8.39442 15.5832, 8.77443 15.6048, 9.05944 15.6048, 9.34446 15.6048, 9.48696 15.4234, 9.48696 15.0521 L 9.48696 12.5647, 7.28028 12.5647, 7.28028 16.3649 Z M 11.7627 14.0848 C 11.8146 13.4456, 11.8361 12.4092, 11.8361 10.9799, 11.8361 9.5548, 11.8146 8.49248, 11.7627 7.79723 L 13.1144 8.48817, 12.6869 8.83363, 12.6869 13.6702 Z M 14.181 9.1791 C 14.181 8.67817, 14.1594 7.98724, 14.1119 7.10629 L 15.5327 7.72813, 15.0361 8.21179, 15.0361 15.2594 C 15.0879 15.9978, 14.6344 16.503, 13.6844 16.7794, 13.6412 16.1835, 13.0237 15.7689, 11.8361 15.5357 L 11.8361 15.2594 C 12.7387 15.3069, 13.3562 15.3284, 13.6844 15.3284, 14.0169 15.3284, 14.181 15.1471, 14.181 14.7757 Z M 3.15193 8.0736 C 3.15193 6.88174, 3.13034 5.95761, 3.07852 5.30985 L 4.57699 6.00079, 4.07606 6.48445, 4.07606 8.0736, 4.43448 8.0736, 5.14269 7.45176, 6.14023 8.48817, 4.07606 8.48817, 4.07606 11.3901, 5.99773 11.0446, 6.07114 11.321, 4.07606 11.8738 C 4.07606 14.0891, 4.10197 15.6048, 4.14947 16.4339 L 3.07852 16.8485 C 3.13034 14.9182, 3.15193 13.3506, 3.15193 12.1501, 1.39868 12.6165, 0.448638 13.0052, 0.306132 13.3247 L -0.337303 12.1501 C 0.707739 12.0163, 1.8737 11.8306, 3.15193 11.5974 L 3.15193 8.48817, 1.08775 8.48817, 0.517732 8.97182, -0.263891 7.86632 C 0.0686224 7.77995, 0.375226 7.41289, 0.660237 6.76514, 0.945249 6.12171, 1.27776 5.24508, 1.65778 4.13526 L 1.51527 4.13526 C 1.18708 4.13958, 0.75956 4.20867, 0.23272 4.34254 L -0.406397 3.7207, 1.80028 3.7207 C 2.0853 2.61952, 2.34872 1.6047, 2.58191 0.680573 L 3.93355 1.4406 C 3.70036 1.58311, 3.51035 1.78175, 3.36785 2.03222, 3.22534 2.287, 3.00942 2.84839, 2.72441 3.7207 L 4.71949 3.7207, 5.57021 2.96067, 6.63685 4.13526, 2.58191 4.13526, 1.08775 8.0736 Z M 7.9194 5.51713 L 11.5511 5.51713, 12.2593 4.8262, 13.3303 5.9317, 9.91448 5.9317, 8.0619 5.65532, 8.48942 6.06988 Z" stroke="none" fill="#000000" />
			<path d="M 30.1466 4.06617 L 30.1466 6.76082 C 30.1466 7.22721, 30.1941 7.87064, 30.2891 8.69545 L 29.1491 9.11001, 29.1491 8.28088, 24.9473 8.28088, 24.9473 14.983, 29.8616 14.983, 29.8616 11.9429 C 29.8616 11.3037, 29.84 10.5869, 29.7925 9.80095 L 31.4292 10.6992, 30.8591 11.1137, 30.8591 13.6702 C 30.8591 14.5036, 30.8851 15.3284, 30.9326 16.1576 L 29.8616 16.503, 29.8616 15.3975, 19.1737 15.3975, 18.6771 15.8812, 17.6795 15.1212, 18.1761 14.6375, 18.1761 11.9429 C 18.1761 11.2562, 18.1545 10.4962, 18.107 9.66276 L 19.7437 10.4919, 19.1737 10.9755, 19.1737 14.983, 23.9498 14.983, 23.9498 8.28088, 19.8171 8.28088, 19.2471 8.76454, 18.2495 8.00451, 18.7462 7.58995, 18.7462 4.7571 C 18.7462 4.20867, 18.7246 3.60842, 18.6771 2.96067 L 20.3871 3.78979, 19.7437 4.20435, 19.7437 7.86632, 23.9498 7.86632, 23.9498 3.30614 C 23.9498 2.48133, 23.9282 1.6738, 23.8764 0.887854 L 25.5173 1.64789, 24.9473 2.26973, 24.9473 7.86632, 29.1491 7.86632, 29.1491 4.7571 C 29.1491 4.20867, 29.1275 3.56524, 29.08 2.82248 L 30.7166 3.58251 Z" stroke="none" fill="#000000" />
			<path d="M 40.226 14.3737 C 40.1132 14.8134, 39.935 15.2334, 39.6926 15.6339, 39.4502 16.0343, 39.1641 16.3906, 38.8353 16.7017, 38.5065 17.0133, 38.1375 17.266, 37.7278 17.4594, 37.318 17.6532, 36.8921 17.7499, 36.4499 17.7499, 36.1859 17.7499, 35.9435 17.7018, 35.7227 17.6046, 35.5018 17.5079, 35.3213 17.3769, 35.1809 17.212, 35.0406 17.0472, 34.9463 16.8523, 34.8978 16.6271, 34.8762 16.528, 34.8654 16.4259, 34.8654 16.3209, 34.8654 16.185, 34.8816 16.0461, 34.914 15.9048, 34.9733 15.6692, 35.0945 15.4925, 35.2776 15.3748, 35.4611 15.257, 35.6417 15.1981, 35.8193 15.1981, 36.0083 15.1981, 36.1673 15.2585, 36.2963 15.3787, 36.3881 15.468, 36.4337 15.5828, 36.4337 15.7242, 36.4337 15.7821, 36.4229 15.8527, 36.4013 15.9362, 36.3424 16.1717, 36.2212 16.3484, 36.0377 16.4661, 35.8547 16.5839, 35.7089 16.6428, 35.601 16.6428, 35.6334 16.7841, 35.7344 16.9166, 35.9042 17.0393, 36.074 17.1625, 36.2914 17.2238, 36.5554 17.2238, 36.8464 17.2238, 37.1188 17.1453, 37.372 16.9883, 37.6252 16.8312, 37.8573 16.6207, 38.0673 16.3562, 38.2774 16.0922, 38.4619 15.786, 38.6209 15.4376, 38.7799 15.0897, 38.9079 14.7246, 39.0051 14.3423 L 39.0537 14.1539 C 38.9732 14.2275, 38.8034 14.3232, 38.5443 14.4404, 38.2857 14.5582, 38.0026 14.6171, 37.6954 14.6171, 37.3288 14.6171, 37.0015 14.5494, 36.7129 14.413, 36.4244 14.2775, 36.1967 14.068, 36.0299 13.7848, 35.8679 13.4816, 35.7899 13.1469, 35.7953 12.7798 L 35.7953 12.717 C 35.8061 12.3352, 35.8547 11.9559, 35.9405 11.5785, 36.0269 11.2179, 36.1525 10.8204, 36.3169 10.3856, 36.4813 9.9513, 36.6388 9.52977, 36.7895 9.121, 36.9514 8.6872, 37.0324 8.33094, 37.0324 8.05319, 37.0324 7.81813, 36.9328 7.70036, 36.7331 7.69987, 36.55 7.70036, 36.3842 7.75287, 36.236 7.85739, 36.0878 7.9624, 35.9533 8.10766, 35.8316 8.29315, 35.7104 8.47914, 35.6015 8.69898, 35.5043 8.95268, 35.4071 9.20688, 35.3262 9.47727, 35.2614 9.76483, 35.2025 9.90665, 35.1029 9.97976, 34.9625 9.98467 L 34.7766 9.98467 C 34.647 9.98516, 34.5822 9.9199, 34.5822 9.78838 L 34.5822 9.73342 C 34.6578 9.44586, 34.7579 9.15192, 34.8816 8.85061, 35.0057 8.5498, 35.1623 8.27647, 35.3507 8.03012, 35.5391 7.78427, 35.7551 7.58013, 35.9975 7.4177, 36.2399 7.25576, 36.5176 7.1743, 36.8302 7.17381, 37.1001 7.1743, 37.3303 7.23221, 37.5217 7.34704, 37.713 7.46236, 37.8583 7.61546, 37.9579 7.80635, 38.058 7.99774, 38.113 8.21316, 38.1238 8.45362 L 38.1238 8.50858 C 38.1238 8.73431, 38.0781 8.96691, 37.9864 9.20737, 37.8303 9.61614, 37.6752 10.0337, 37.5217 10.4602, 37.3681 10.8871, 37.2483 11.2704, 37.162 11.6104, 37.0756 11.951, 37.0162 12.2881, 36.9838 12.6228, 36.9622 12.7121, 36.949 12.8093, 36.9431 12.9133, 36.9431 13.1179, 36.9784 13.3196, 37.0486 13.5179, 37.0972 13.6965, 37.186 13.8378, 37.3155 13.9424, 37.4451 14.0474, 37.5987 14.0994, 37.7763 14.0989, 38.1213 14.0994, 38.4231 13.9973, 38.6817 13.7932, 38.9408 13.589, 39.167 13.3221, 39.3609 12.9918 L 40.6628 7.92756 C 40.7113 7.73422, 40.8095 7.59191, 40.9577 7.50014, 41.1059 7.40887, 41.2556 7.36274, 41.4062 7.36225, 41.5628 7.36274, 41.6923 7.40985, 41.7944 7.50358, 41.865 7.57228, 41.8999 7.66355, 41.8999 7.77838, 41.8999 7.83629, 41.8945 7.89665, 41.8837 7.95897 Z" stroke="none" fill="#000000" />
			<rect />
		</svg>
	</g>
	<path d="M 0 0 L 45 0, 45 316.881, -536.786 316.881, -536.786 140.786" fill="none" stroke="#000000" stroke-width="1.79999995" stroke-linecap="round" stroke-linejoin="round" marker-end="url(#CustomMarker-04)" transform="matrix(0.555556 0 0 0.555556 432.835 56.6203)" />
	<g transform="matrix(1 0 -0 1 262.539 77.1568)">
		<svg width="50.9999924" height="39.1674385">
			<defs />
			<path d="M 15.6266 3.69557 C 15.5947 3.85849, 15.4951 3.93946, 15.3277 3.93897, 15.0745 3.93946, 14.8346 3.94486, 14.6078 3.95516, 14.3816 3.96596, 14.2172 3.99344, 14.1147 4.0376, 14.0126 4.08226, 13.9316 4.21966, 13.8718 4.44932 L 11.5992 13.298 C 11.5668 13.4138, 11.5506 13.5051, 11.5506 13.5728, 11.5506 13.6361, 11.5668 13.6754, 11.5992 13.6906, 11.6748 13.7382, 11.822 13.7657, 12.0404 13.7735, 12.2587 13.7814, 12.4948 13.7853, 12.748 13.7848, 12.8991 13.7853, 12.9742 13.8481, 12.9742 13.9733, 12.9742 14.0052, 12.9688 14.039, 12.958 14.0753 L 12.9256 14.1931 C 12.9099 14.2618, 12.8736 14.3192, 12.8167 14.3658, 12.7603 14.413, 12.694 14.4365, 12.6184 14.4365, 11.9771 14.4051, 11.3249 14.3894, 10.6614 14.3894, 9.99848 14.3894, 9.33011 14.4051, 8.65586 14.4365, 8.51552 14.4365, 8.44534 14.3688, 8.44534 14.2324 L 8.44534 14.1696, 8.47773 14.0361 C 8.52091 13.8638, 8.62642 13.7799, 8.79326 13.7848, 9.04648 13.7853, 9.28399 13.7814, 9.50481 13.7735, 9.72613 13.7657, 9.89052 13.7382, 9.99799 13.6906, 10.0952 13.6386, 10.1737 13.4973, 10.2326 13.2666 L 12.5051 4.49643, 6.49619 14.2167 C 6.41571 14.3634, 6.29156 14.4365, 6.12422 14.4365 L 6.04375 14.4365 C 5.8769 14.4365, 5.77679 14.3531, 5.7444 14.1853 L 4.7659 4.5828, 2.63911 12.8662 C 2.60672 12.9609, 2.59053 13.0605, 2.59053 13.1646, 2.59053 13.1911, 2.59593 13.22, 2.60672 13.2509, 2.61752 13.377, 2.6607 13.4767, 2.73578 13.5493, 2.83295 13.644, 2.9625 13.7068, 3.12444 13.7382, 3.28638 13.7696, 3.46942 13.7853, 3.67405 13.7848, 3.82519 13.7853, 3.90027 13.8481, 3.90027 13.9733, 3.90027 14.0052, 3.89487 14.039, 3.88408 14.0753 L 3.85218 14.1931 C 3.83598 14.2618, 3.79967 14.3192, 3.74275 14.3658, 3.68631 14.413, 3.61761 14.4365, 3.53664 14.4365, 2.99783 14.4051, 2.45313 14.3894, 1.90303 14.3894, 1.35342 14.3894, 0.795467 14.4051, 0.229174 14.4365, 0.148204 14.4365, 0.0888269 14.413, 0.0510413 14.3658, 0.0137464 14.3295, -0.00539182 14.2903, -0.00539182 14.2481, -0.00539182 14.2172, 6.1281e-006 14.1857, 0.010802 14.1539 L 0.042699 14.0361 C 0.0858826 13.8638, 0.191388 13.7799, 0.358234 13.7848, 0.563356 13.7853, 0.75621 13.7696, 0.936796 13.7382, 1.11738 13.7068, 1.28619 13.6415, 1.44224 13.5414, 1.56639 13.4634, 1.66748 13.3604, 1.74551 13.2318, 1.82353 13.1037, 1.88144 12.9663, 1.91922 12.8191 L 4.08625 4.41791 C 4.11864 4.30309, 4.13483 4.21426, 4.13483 4.15096, 4.13483 4.08864, 4.12159 4.05184, 4.0946 4.04104, 4.01902 3.99442, 3.8723 3.96596, 3.65393 3.95516, 3.43556 3.94486, 3.19952 3.93946, 2.9463 3.93897, 2.80105 3.93946, 2.72254 3.8688, 2.71174 3.72698 L 2.71174 3.67202, 2.74413 3.53069 C 2.8035 3.37415, 2.90852 3.29563, 3.05917 3.29514 L 5.67963 3.29514 C 5.85236 3.29563, 5.94904 3.37955, 5.97063 3.54639 L 6.8927 12.5207, 12.4565 3.51499 C 12.5375 3.36875, 12.6616 3.29563, 12.8285 3.29514 L 15.4489 3.29514 C 15.5245 3.29563, 15.5893 3.32164, 15.6428 3.37366, 15.6644 3.41586, 15.6752 3.45512, 15.6752 3.49143, 15.6752 3.52333, 15.6673 3.55228, 15.6511 3.5778 Z" stroke="none" fill="#000000" />
			<rect />
		</svg>
	</g>
</svg>
