<?xml version="1.0"?>
<svg xmlns="http://www.w3.org/2000/svg" xmlns:xlink="http://www.w3.org/1999/xlink" width="1554.25525" height="996.160339">
	<defs>
		<marker id="CustomMarker-01" markerUnits="strokeWidth" markerWidth="15.000001" markerHeight="9" viewBox="-15 -4.5 15 9" orient="auto-start-reverse">
			<path d="M 0 -0 L -10 -3, -8 -0.5, -8 0.5, -10 3 Z" fill="#000000" stroke="#000000" stroke-linejoin="round" />
		</marker>
		<marker id="CustomMarker-02" markerUnits="strokeWidth" markerWidth="15.000001" markerHeight="9" viewBox="-15 -4.5 15 9" orient="auto-start-reverse">
			<path d="M 0 -0 L -10 -3, -8 -0.5, -8 0.5, -10 3 Z" fill="#000000" stroke="#000000" stroke-linejoin="round" />
		</marker>
	</defs>
	<path d="M 423.6 -126 C 460.277 -2.6968, 300.357 153.672, 66.4088 223.26, -167.539 292.848, -386.923 249.303, -423.6 126, -460.277 2.69678, -300.357 -153.672, -66.4088 -223.26, 167.539 -292.848, 386.923 -249.303, 423.6 -126 Z" stroke="none" fill="#582981" fill-opacity="0.0470588207" transform="matrix(1.66667 0 0 1.66667 777.128 498.08)" />
	<path d="M 423.6 -126 C 460.277 -2.6968, 300.357 153.672, 66.4088 223.26, -167.539 292.848, -386.923 249.303, -423.6 126, -460.277 2.69678, -300.357 -153.672, -66.4088 -223.26, 167.539 -292.848, 386.923 -249.303, 423.6 -126 Z" fill="none" stroke="#000000" stroke-width="0.600000024" stroke-linecap="round" stroke-linejoin="round" transform="matrix(1.66667 0 0 1.66667 777.128 498.08)" />
	<g transform="matrix(1 0 -0 1 310.636 405.963)">
		<svg width="117.083702" height="92.9720764">
			<defs />
			<path d="M 27.7989 7.69911 C 27.7652 7.84224, 27.6895 7.96185, 27.5709 8.06, 27.4534 8.15814, 27.3154 8.20721, 27.1579 8.20619, 26.7991 8.20721, 26.4423 8.25935, 26.0886 8.36261, 25.7348 8.46689, 25.3678 8.61104, 24.9855 8.79506, 24.5131 9.01384, 24.05 9.27045, 23.5951 9.56488, 23.1412 9.85931, 22.6831 10.1977, 22.2221 10.578 L 15.5165 15.9923, 19.5763 26.4938 C 19.7337 26.8986, 19.8911 27.28, 20.0486 27.6398, 20.206 27.9997, 20.3859 28.2563, 20.5873 28.4076, 20.7448 28.5395, 20.9666 28.6243, 21.2529 28.6622, 21.5391 28.701, 21.8735 28.7194, 22.2558 28.7184, 22.5482 28.7194, 22.6934 28.8615, 22.6934 29.1437 L 22.6934 29.2909, 22.6259 29.5853 C 22.5032 29.9125, 22.2844 30.0761, 21.9696 30.0761, 21.0034 30.0106, 20.0486 29.9779, 19.105 29.9779 L 18.3801 29.9779 C 17.1901 30.0004, 15.9715 30.0331, 14.7242 30.0761, 14.4104 30.0761, 14.2529 29.935, 14.2529 29.6508 L 14.2529 29.5036, 14.3541 29.2255 C 14.4216 28.8779, 14.6292 28.7082, 14.9768 28.7184, 15.3816 28.7194, 15.7077 28.698, 15.9551 28.654, 16.2025 28.6111, 16.3927 28.5068, 16.5276 28.3422, 16.6401 28.2123, 16.6953 28.0651, 16.6953 27.9005 L 16.6953 27.8024 C 16.6728 27.6071, 16.6002 27.3342, 16.4765 26.9845 L 13.0057 18.037, 8.42356 21.7011, 6.89005 27.7042 C 6.82258 27.9455, 6.78884 28.1357, 6.78884 28.2767, 6.78884 28.4086, 6.81747 28.4904, 6.8737 28.5221, 7.03114 28.6213, 7.33988 28.6785, 7.79993 28.6949, 8.26101 28.7112, 8.7548 28.7194, 9.28233 28.7184, 9.59721 28.7194, 9.75465 28.8503, 9.75465 29.111, 9.75465 29.1774, 9.7434 29.248, 9.72091 29.3236 L 9.65343 29.569 C 9.58596 29.9084, 9.36718 30.0761, 8.99607 30.0761, 7.5924 30.0106, 6.17748 29.9779, 4.7503 29.9779, 3.34663 29.9779, 1.92558 30.0106, 0.488167 30.0761, 0.319482 30.0761, 0.195779 30.027, 0.117058 29.9288, 0.0393607 29.8532, 0.000511833 29.7714, -0.000510506 29.6835, 0.000511833 29.6191, 0.0117576 29.5536, 0.0332267 29.4872 L 0.100701 29.2418 C 0.134438 29.1008, 0.213158 28.9791, 0.336861 28.8748, 0.460564 28.7716, 0.600625 28.7194, 0.757043 28.7184, 1.28559 28.7194, 1.7804 28.7112, 2.24046 28.6949, 2.70051 28.6785, 3.04913 28.6213, 3.28426 28.5221, 3.48669 28.4137, 3.64413 28.1193, 3.75658 27.6388 L 8.52477 9.20399 C 8.56976 8.99748, 8.59225 8.83391, 8.59225 8.71327, 8.59225 8.55072, 8.55851 8.44746, 8.49104 8.40248, 8.34484 8.3166, 8.04121 8.26242, 7.58115 8.23993, 7.1211 8.21846, 6.62629 8.20721, 6.09774 8.20619, 5.93008 8.20721, 5.80637 8.15303, 5.72765 8.04262, 5.66018 7.97821, 5.62644 7.89642, 5.62644 7.79726, 5.62644 7.73285, 5.64382 7.67253, 5.67654 7.61732 L 5.72765 7.35561 C 5.85136 7.02948, 6.07014 6.86591, 6.38502 6.86488, 7.78971 6.90987, 9.20463 6.93134, 10.6308 6.93031, 12.058 6.93134, 13.4841 6.90987, 14.9103 6.86488, 15.2252 6.86591, 15.3816 7.01312, 15.3816 7.30653 L 15.3816 7.43739, 15.2804 7.71547 C 15.2129 8.04364, 15.0054 8.20721, 14.6568 8.20619, 14.1292 8.20721, 13.6303 8.21846, 13.158 8.23993, 12.6857 8.26242, 12.3432 8.31967, 12.1295 8.41168, 11.9169 8.50471, 11.7482 8.79097, 11.6245 9.26942 L 8.94598 19.6891, 21.2284 9.7765 C 21.4645 9.6252, 21.6271 9.43402, 21.716 9.20399, 21.7958 9.06291, 21.8346 8.9433, 21.8346 8.84413, 21.8346 8.80119, 21.8234 8.76337, 21.8009 8.72963, 21.7446 8.38203, 21.4471 8.20721, 20.9073 8.20619, 20.5935 8.20721, 20.436 8.06, 20.436 7.76454 L 20.436 7.63368, 20.5373 7.35561 C 20.6047 7.02948, 20.8072 6.86591, 21.1435 6.86488, 21.7835 6.88737, 22.4214 6.90475, 23.0563 6.91498, 23.6912 6.92622, 24.3342 6.93134, 24.9855 6.93031 L 26.1816 6.93031 C 26.5864 6.93134, 26.9964 6.90987, 27.4115 6.86488, 27.5801 6.86591, 27.7202 6.92009, 27.8327 7.02846, 27.8776 7.11638, 27.9001 7.19817, 27.9001 7.27382, 27.9001 7.34027, 27.8838 7.40059, 27.849 7.45375 Z" stroke="none" fill="#000000" />
			<path d="M 5.09308 -0.666309 C 5.09308 0.213638, 5.03183 1.08843, 4.90931 1.95865, 4.78679 2.82886, 4.48336 3.64583, 3.99902 4.40842, 3.65322 4.9649, 3.19063 5.39199, 2.6124 5.69084, 2.03416 5.99026, 1.40498 6.13969, 0.725408 6.13969, 0.0716014 6.13969, -0.546136 5.99026, -1.12781 5.69084, -1.70948 5.39199, -2.17378 4.9649, -2.51958 4.40842, -3.00335 3.64583, -3.30678 2.82886, -3.4293 1.95865, -3.55181 1.08843, -3.61364 0.213638, -3.61364 -0.666309, -3.61364 -1.55713, -3.55181 -2.44739, -3.4293 -3.33592, -3.30678 -4.22446, -3.00335 -5.05631, -2.51958 -5.83264, -2.17378 -6.3937, -1.71119 -6.83052, -1.13296 -7.14197, -0.554152 -7.45341, 0.0653038 -7.60914, 0.725408 -7.60971, 1.39868 -7.60914, 2.02558 -7.45341, 2.60725 -7.14197, 3.18892 -6.83052, 3.65322 -6.3937, 3.99902 -5.83264, 4.48336 -5.05631, 4.78679 -4.22446, 4.90931 -3.33592, 5.03183 -2.44739, 5.09308 -1.55713, 5.09308 -0.666309 Z M 3.22499 -0.986915 C 3.22499 -1.37107, 3.22212 -1.77698, 3.21583 -2.20464, 3.2101 -2.63174, 3.19407 -3.05024, 3.16888 -3.45958, 3.14369 -3.86836, 3.09846 -4.2548, 3.03205 -4.61834, 2.96621 -4.98132, 2.88606 -5.29162, 2.7916 -5.54867, 2.60267 -5.96317, 2.32615 -6.30381, 1.96146 -6.56946, 1.59677 -6.8351, 1.18456 -6.96792, 0.725408 -6.9685, 0.27885 -6.96792, -0.124769 -6.83338, -0.486595 -6.56488, -0.847849 -6.2958, -1.12323 -5.95744, -1.31215 -5.54867, -1.40605 -5.29162, -1.4862 -4.98132, -1.55261 -4.61834, -1.61845 -4.2548, -1.66425 -3.86836, -1.68944 -3.45958, -1.71463 -3.05024, -1.73009 -2.63174, -1.73638 -2.20464, -1.74268 -1.77698, -1.74612 -1.37107, -1.74612 -0.986915, -1.74612 -0.558678, -1.74268 -0.108112, -1.73638 0.36478, -1.73009 0.838246, -1.71463 1.29625, -1.68944 1.7388, -1.66425 2.18193, -1.61845 2.60158, -1.55261 2.99833, -1.4862 3.39565, -1.40605 3.72828, -1.31215 3.99621, -1.13582 4.44277, -0.863307 4.80917, -0.495756 5.096, -0.128204 5.3834, 0.27885 5.52653, 0.725408 5.52596, 1.19086 5.52653, 1.60765 5.3834, 1.9752 5.096, 2.34332 4.80917, 2.61526 4.44277, 2.7916 3.99621, 2.88606 3.72828, 2.96621 3.39565, 3.03205 2.99833, 3.09846 2.60158, 3.14369 2.18193, 3.16888 1.7388, 3.19407 1.29625, 3.2101 0.838246, 3.21583 0.36478, 3.22212 -0.108112, 3.22499 -0.558678, 3.22499 -0.986915 Z" stroke="none" fill="#000000" transform="matrix(1.12 0 0 1 31.5863 29.1184)" />
			<rect />
		</svg>
	</g>
	<ellipse cx="1307.8000977039337" cy="605.79997563362122" rx="1.5750000476837158" ry="1.5750000476837158" stroke="none" fill="#000000" transform="matrix(1.66667 0 0 1.66667 -1144.54 -553.586)" />
	<g transform="matrix(1 0 -0 1 1041.57 448.067)">
		<svg width="50.9999924" height="50.9999924">
			<defs />
			<path d="M 15.1071 25.1034 C 14.9732 25.6391, 14.8219 26.2116, 14.6532 26.822, 14.4845 27.4333, 14.2596 27.9997, 13.9784 28.5231, 13.6983 29.0466, 13.3446 29.4995, 12.9173 29.8808, 12.4909 30.2621, 11.9573 30.4523, 11.3163 30.4523, 10.4636 30.4523, 9.78072 30.2161, 9.26955 29.7418, 8.75838 29.2674, 8.46394 28.7849, 8.38522 28.2931, 8.00287 28.7307, 7.43343 29.1999, 6.67485 29.7009, 5.9173 30.2018, 5.11681 30.4523, 4.2744 30.4523, 3.38701 30.4523, 2.64275 30.2294, 2.04161 29.7827, 1.44048 29.3359, 0.972245 28.7736, 0.634873 28.0968, 0.231049 27.2912, 0.01738 26.4243, -0.00511146 25.496 L -0.00511146 25.2506 C -0.00511146 24.3898, 0.11348 23.529, 0.348618 22.6662, 0.618515 21.7184, 0.994736 20.781, 1.47728 19.8537, 1.96085 18.9275, 2.60083 18.0656, 3.39825 17.2682, 4.05051 16.6149, 4.79477 16.0649, 5.63104 15.6171, 6.46732 15.1704, 7.3179 14.9465, 8.1828 14.9454, 8.93524 14.9465, 9.54762 15.1458, 10.0189 15.5435, 10.4912 15.9422, 10.7887 16.2714, 10.9124 16.5321 L 10.845 16.8102 C 10.9237 16.4074, 11.1118 16.1027, 11.4093 15.8952, 11.7078 15.6887, 12.0084 15.5844, 12.311 15.5834, 12.6586 15.5844, 12.951 15.6877, 13.1871 15.8942, 13.3333 16.0588, 13.4121 16.2765, 13.4223 16.5485, 13.4223 16.6476, 13.411 16.757, 13.3885 16.8756 L 10.9625 26.3302 C 10.8501 26.778, 10.7714 27.1982, 10.7264 27.5897, 10.7049 27.787, 10.6937 27.967, 10.6937 28.1295, 10.6937 28.2727, 10.7049 28.425, 10.7264 28.5875, 10.7611 28.8503, 10.8399 29.0466, 10.9625 29.1774, 11.0862 29.3083, 11.26 29.3737, 11.485 29.3727, 11.7211 29.3737, 11.943 29.2756, 12.1505 29.0793, 12.3591 28.883, 12.5502 28.5916, 12.724 28.2042, 12.8978 27.8177, 13.0634 27.3536, 13.2209 26.8138, 13.3783 26.274, 13.5409 25.6882, 13.7085 25.0543, 13.776 24.7722, 13.9672 24.6301, 14.2821 24.629 L 14.6695 24.629 C 14.9619 24.6301, 15.1071 24.7497, 15.1071 24.9889 L 15.1071 25.1034 Z M 10.2888 19.0839 C 10.2438 18.8886, 10.205 18.6841, 10.1712 18.4715, 10.1375 18.2589, 10.0864 18.0493, 10.0189 17.8407, 9.84001 17.3295, 9.58443 16.9012, 9.25319 16.5577, 8.92195 16.2142, 8.50279 16.0424, 7.99776 16.0414, 7.52646 16.0424, 7.06027 16.2121, 6.5992 16.5495, 6.13914 16.8879, 5.71794 17.3234, 5.33559 17.8571, 4.79681 18.6105, 4.39299 19.3936, 4.12309 20.2054, 3.8532 21.0181, 3.60579 21.8657, 3.38087 22.7479, 3.15698 23.621, 2.97194 24.4665, 2.82472 25.2833, 2.73578 25.6984, 2.6908 26.091, 2.6908 26.4611, 2.6908 26.8547, 2.73578 27.236, 2.82472 27.6061, 2.92696 28.1193, 3.10893 28.5426, 3.3727 28.8748, 3.63646 29.2081, 4.0045 29.3737, 4.4758 29.3727, 4.9931 29.3737, 5.51245 29.1938, 6.03487 28.8339, 6.55728 28.4741, 7.04289 28.0324, 7.4917 27.5079, 7.67163 27.2912, 7.84338 27.0816, 8.00594 26.8792, 8.16951 26.6778, 8.31264 26.4621, 8.43532 26.2321 L 10.2888 19.0839 Z" stroke="none" fill="#000000" />
			<rect />
		</svg>
	</g>
	<path d="M 137.897 -0 C 137.897 76.1583, 76.1583 137.897, -0 137.897, -76.1583 137.897, -137.897 76.1583, -137.897 -0, -137.897 -76.1583, -76.1583 -137.897, -0 -137.897, 76.1583 -137.897, 137.897 -76.1583, 137.897 -0 Z" stroke="none" fill="#212478" fill-opacity="0.133333325" transform="matrix(1.66667 0 0 1.66667 1035.13 456.08)" />
	<path d="M 137.897 -0 C 137.897 76.1583, 76.1583 137.897, -0 137.897, -76.1583 137.897, -137.897 76.1583, -137.897 -0, -137.897 -76.1583, -76.1583 -137.897, -0 -137.897, 76.1583 -137.897, 137.897 -76.1583, 137.897 -0 Z" fill="none" stroke="#000000" stroke-width="0.600000024" stroke-linecap="round" stroke-linejoin="round" transform="matrix(1.66667 0 0 1.66667 1035.13 456.08)" />
	<g transform="matrix(1 0 -0 1 966.098 336.062)">
		<svg width="255.055771" height="102.125565">
			<defs />
			<path d="M 23.2735 13.7258 C 23.0834 14.512, 22.7041 15.2481, 22.1367 15.9351, 21.5693 16.6221, 20.915 17.2059, 20.1738 17.6843, 19.5901 18.0779, 18.992 18.3887, 18.3796 18.6177, 17.7672 18.8467, 17.5505 18.9449, 17.7304 18.9111, 17.6977 18.9009, 17.9921 19.041, 18.6158 19.3293, 19.2394 19.6186, 19.7863 20.0132, 20.2576 20.5142, 20.7862 21.0499, 21.1461 21.6929, 21.3362 22.4443, 21.4262 22.8165, 21.4773 23.1815, 21.4875 23.5403, 21.4875 23.9554, 21.4262 24.3868, 21.3025 24.8325, 21.0898 25.6729, 20.6962 26.4754, 20.1237 27.2381, 19.5512 28.0018, 18.8652 28.6663, 18.0678 29.2327, 17.2254 29.844, 16.3298 30.3051, 15.3811 30.6159, 14.4324 30.9267, 13.4857 31.0811, 12.541 31.0811 L 0.478455 31.0811 C 0.309769 31.0811, 0.186066 31.032, 0.107346 30.9338, 0.0296484 30.8582, -0.0102229 30.7764, -0.0102229 30.6885, -0.0102229 30.6241, 0.00102288 30.5586, 0.0235143 30.4922 L 0.0909887 30.2468 C 0.158463 29.888, 0.377244 29.7132, 0.74733 29.7234, 1.27588 29.7244, 1.77069 29.7162, 2.23074 29.6999, 2.6908 29.6835, 3.03941 29.6263, 3.27455 29.5271, 3.47697 29.4187, 3.63442 29.1243, 3.74687 28.6438 L 8.48132 10.209 C 8.5488 9.96977, 8.58151 9.78472, 8.58151 9.65284, 8.58151 9.523, 8.55391 9.44633, 8.49768 9.42384, 8.34024 9.32672, 8.03456 9.26742, 7.57962 9.24493, 7.12468 9.22346, 6.62782 9.21221, 6.08803 9.21119, 5.92036 9.21221, 5.79666 9.15803, 5.71794 9.04762, 5.65047 8.98321, 5.61673 8.90142, 5.61673 8.80226, 5.61673 8.73785, 5.63411 8.67753, 5.66682 8.62232 L 5.71794 8.37696 C 5.75168 8.22566, 5.83347 8.10298, 5.96228 8.00994, 6.0911 7.91793, 6.22911 7.8709, 6.37531 7.86988 L 17.5454 7.86988 C 18.4665 7.8709, 19.3365 8.0079, 20.1564 8.27984, 20.9763 8.5528, 21.6562 8.98321, 22.195 9.57105, 22.7235 10.1068, 23.0946 10.7283, 23.3073 11.4358, 23.3972 11.7967, 23.4422 12.1617, 23.4422 12.5317, 23.4422 12.9253, 23.386 13.323, 23.2735 13.7258 Z M 19.8702 13.6604 C 19.9826 13.2249, 20.0389 12.7894, 20.0389 12.3518 L 20.0389 11.9592 C 19.9939 11.4368, 19.8364 10.9512, 19.5665 10.5034, 19.3314 10.1006, 19.0196 9.78472, 18.6321 9.55572, 18.2447 9.32672, 17.7928 9.21221, 17.2755 9.21119 L 12.8273 9.21119 C 12.2323 9.21221, 11.8898 9.25004, 11.7998 9.32569, 11.6649 9.43611, 11.5361 9.75201, 11.4124 10.2744 L 9.32373 18.4858, 13.9232 18.4858 C 14.5632 18.4869, 15.1981 18.3621, 15.8268 18.1107, 16.4566 17.8602, 17.0567 17.5054, 17.6292 17.0464, 18.8202 16.0874, 19.5676 14.9588, 19.8702 13.6604 Z M 17.7979 24.7344 C 17.9553 24.1793, 18.0341 23.6282, 18.0341 23.0823 L 18.0341 22.7388 C 17.9891 22.1295, 17.8265 21.5672, 17.5454 21.054, 17.298 20.6082, 16.9637 20.2453, 16.5425 19.9672, 16.1213 19.6891, 15.6305 19.5501, 15.0683 19.5491 L 9.0201 19.5491, 6.67792 28.7092 C 6.58795 29.0814, 6.54297 29.3482, 6.54297 29.5108, 6.54297 29.5987, 6.5491 29.6477, 6.56035 29.658, 6.58284 29.6917, 6.87523 29.7132, 7.43649 29.7234 L 11.9348 29.7234 C 12.5523 29.7244, 13.1759 29.5915, 13.8046 29.3237, 14.4344 29.0568, 15.013 28.7051, 15.5406 28.2676, 16.1254 27.7779, 16.6048 27.2279, 16.981 26.6165, 17.3573 26.0062, 17.6302 25.3785, 17.7979 24.7344 Z" stroke="none" fill="#000000" />
			<path d="M 5.00698 -1.20676 C 4.93828 -0.937678, 4.79801 -0.734437, 4.58733 -0.597035, 4.37665 -0.459633, 4.16482 -0.390932, 3.9507 -0.391504, 3.73086 -0.390932, 3.54822 -0.46135, 3.40338 -0.602188, 3.2843 -0.699514, 3.22418 -0.833482, 3.22418 -1.00523, 3.22418 -1.08997, 3.23678 -1.17584, 3.26197 -1.26172, 3.31865 -1.47469, 3.41769 -1.64244, 3.5591 -1.76496, 3.70051 -1.8869, 3.79612 -1.95446, 3.8465 -1.96705, 3.70223 -2.0764, 3.40338 -2.13136, 2.95052 -2.13193, 2.47305 -2.13136, 2.0471 -1.93728, 1.67268 -1.54969, 1.29826 -1.16153, 0.96048 -0.638256, 0.658195 0.0207028 L -0.709531 5.26031 C -0.765636 5.48703, -0.880711 5.65592, -1.05361 5.7687, -1.22651 5.88206, -1.40112 5.93816, -1.57746 5.93816, -1.76581 5.93816, -1.91066 5.87748, -2.01142 5.75496, -2.09271 5.67595, -2.13393 5.56603, -2.13393 5.4252, -2.13393 5.37081, -2.12764 5.30382, -2.11504 5.22367 L -0.662585 -0.446465 C -0.561823 -0.842642, -0.511442 -1.185, -0.511442 -1.4724 L -0.511442 -1.69225 C -0.542358 -1.9848, -0.690065 -2.13136, -0.954565 -2.13193, -1.23109 -2.13136, -1.46238 -1.90808, -1.64787 -1.46267, -1.83337 -1.01668, -2.01428 -0.436732, -2.19061 0.277187, -2.25931 0.442643, -2.37553 0.527946, -2.53927 0.533672 L -2.75625 0.533672 C -2.9074 0.534244, -2.98297 0.4581, -2.98297 0.304668 L -2.98297 0.240547 C -2.9074 -0.0457082, -2.82209 -0.358871, -2.7282 -0.697797, -2.63374 -1.03672, -2.50778 -1.35733, -2.35092 -1.65961, -2.19348 -1.9619, -1.99539 -2.21838, -1.75665 -2.42907, -1.51734 -2.63975, -1.21906 -2.74509, -0.860673 -2.74566, -0.382055 -2.74509, 0.00324416 -2.60883, 0.295224 -2.33746, 0.587777 -2.06552, 0.752659 -1.79873, 0.790445 -1.53652, 1.01086 -1.82908, 1.31773 -2.10388, 1.71047 -2.36037, 2.10321 -2.61685, 2.55435 -2.74509, 3.06388 -2.74566, 3.31579 -2.74509, 3.5717 -2.71876, 3.83276 -2.66723, 4.09383 -2.61513, 4.32283 -2.52983, 4.52092 -2.41075, 4.71901 -2.29166, 4.86557 -2.13422, 4.96003 -1.93957, 5.01671 -1.81705, 5.0482 -1.67965, 5.05393 -1.52736, 5.05393 -1.43519, 5.03847 -1.32813, 5.00698 -1.20676 Z" stroke="none" fill="#000000" transform="matrix(1.12 0 0 1 28.1777 30.1234)" />
			<path d="M 68.8344 26.1084 C 68.6994 26.6441, 68.5481 27.2166, 68.3795 27.827, 68.2118 28.4383, 67.9869 29.0047, 67.7057 29.5281, 67.4256 30.0516, 67.0719 30.5045, 66.6445 30.8858, 66.2182 31.2671, 65.6846 31.4573, 65.0446 31.4573, 64.1909 31.4573, 63.509 31.2211, 62.9979 30.7468, 62.4867 30.2724, 62.1923 29.7899, 62.1135 29.2981, 61.7322 29.7357, 61.1628 30.2049, 60.4042 30.7059, 59.6456 31.2068, 58.8451 31.4573, 58.0027 31.4573, 57.1163 31.4573, 56.3731 31.2344, 55.772 30.7877, 55.1708 30.3409, 54.7026 29.7786, 54.3652 29.1018, 53.9604 28.2962, 53.7467 27.4293, 53.7242 26.501 L 53.7242 26.2556 C 53.7242 25.3948, 53.8428 24.534, 54.078 23.6712, 54.3479 22.7234, 54.7251 21.786, 55.2076 20.8587, 55.6902 19.9325, 56.3302 19.0706, 57.1276 18.2732, 57.7788 17.6199, 58.5231 17.0699, 59.3594 16.6221, 60.1956 16.1754, 61.0462 15.9515, 61.9111 15.9504, 62.6636 15.9515, 63.2759 16.1508, 63.7472 16.5485, 64.2196 16.9472, 64.5171 17.2764, 64.6397 17.5371 L 64.5723 17.8152 C 64.652 17.4124, 64.8401 17.1077, 65.1376 16.9002, 65.4351 16.6937, 65.7357 16.5894, 66.0383 16.5884, 66.3869 16.5894, 66.6793 16.6927, 66.9144 16.8992, 67.0606 17.0638, 67.1394 17.2815, 67.1496 17.5535, 67.1496 17.6526, 67.1383 17.762, 67.1158 17.8806 L 64.6909 27.3352 C 64.5784 27.783, 64.4997 28.2032, 64.4547 28.5947, 64.4322 28.792, 64.421 28.972, 64.421 29.1345, 64.421 29.2777, 64.4322 29.43, 64.4547 29.5925, 64.4884 29.8553, 64.5672 30.0516, 64.6909 30.1824, 64.8146 30.3133, 64.9884 30.3787, 65.2122 30.3777, 65.4484 30.3787, 65.6703 30.2806, 65.8778 30.0843, 66.0863 29.888, 66.2775 29.5966, 66.4513 29.2092, 66.6251 28.8227, 66.7907 28.3586, 66.9482 27.8188, 67.1056 27.279, 67.2682 26.6932, 67.4358 26.0593, 67.5033 25.7772, 67.6945 25.6351, 68.0094 25.634 L 68.3968 25.634 C 68.6892 25.6351, 68.8344 25.7547, 68.8344 25.9939 L 68.8344 26.1084 Z M 64.0171 20.0889 C 63.9722 19.8936, 63.9333 19.6891, 63.8996 19.4765, 63.8658 19.2638, 63.8147 19.0543, 63.7472 18.8457, 63.5673 18.3345, 63.3117 17.9062, 62.9805 17.5627, 62.6492 17.2192, 62.2311 17.0474, 61.7261 17.0464, 61.2548 17.0474, 60.7886 17.2171, 60.3285 17.5545, 59.8685 17.8929, 59.4463 18.3284, 59.0639 18.8621, 58.5262 19.6155, 58.1223 20.3986, 57.8524 21.2104, 57.5825 22.0231, 57.3351 22.8707, 57.1102 23.7529, 56.8863 24.626, 56.7013 25.4715, 56.5541 26.2883, 56.4651 26.7034, 56.4201 27.096, 56.4201 27.4661, 56.4201 27.8597, 56.4651 28.241, 56.5541 28.6111, 56.6563 29.1243, 56.8383 29.5476, 57.102 29.8798, 57.3658 30.2131, 57.7338 30.3787, 58.2051 30.3777, 58.7224 30.3787, 59.2418 30.1988, 59.7632 29.8389, 60.2856 29.4791, 60.7712 29.0374, 61.22 28.5129, 61.3999 28.2962, 61.5717 28.0866, 61.7343 27.8842, 61.8978 27.6828, 62.041 27.4671, 62.1636 27.2371 L 64.0171 20.0889 Z" stroke="none" fill="#000000" />
			<path d="M 2.76197 15.9933 C -8.15903 8.79632, -8.15903 -8.79632, 2.76197 -15.9933 L 4.47717 -15.9933 C -5.37183 -8.79632, -5.37183 8.79632, 4.47717 15.9933" stroke="none" fill="#000000" transform="matrix(1 0 -0 1 47.5288 21.0183)" />
			<path d="M 2.76197 15.9933 C -8.15903 8.79632, -8.15903 -8.79632, 2.76197 -15.9933 L 4.47717 -15.9933 C -5.37183 -8.79632, -5.37183 8.79632, 4.47717 15.9933" stroke="none" fill="#000000" transform="matrix(-1 1.50996e-007 -1.50996e-007 -1 75.0339 21.0183)" />
			<rect />
		</svg>
	</g>
	<g transform="matrix(1 0 -0 1 1258.55 356.067)">
		<svg width="75.111618" height="78.0139389">
			<defs />
			<path d="M 20.8434 15.567 C 20.776 15.8737, 20.5797 16.0312, 20.2536 16.0414 L 19.8835 16.0414 C 19.6258 16.0424, 19.4848 15.9116, 19.4623 15.6488 L 19.4623 15.518 C 19.5747 14.832, 19.6371 14.1726, 19.6473 13.5387, 19.6473 13.1799, 19.6361 12.8149, 19.6136 12.4428, 19.5011 11.4838, 19.2486 10.6363, 18.856 9.90021, 18.4634 9.16412, 17.9349 8.57526, 17.2724 8.13361, 16.6099 7.69196, 15.8002 7.47113, 14.8454 7.47011, 13.6779 7.47113, 12.5042 7.75534, 11.3244 8.32172, 10.1457 8.88911, 9.07837 9.64667, 8.1235 10.5944, 7.0112 11.7189, 6.14119 12.9621, 5.51245 14.3249, 4.88371 15.6887, 4.3889 17.078, 4.02904 18.495, 3.63646 19.9355, 3.41155 21.331, 3.35532 22.6825 L 3.35532 23.1405 C 3.35532 24.3305, 3.59148 25.4152, 4.06278 26.3956, 4.5126 27.3239, 5.16895 28.0713, 6.03384 28.6376, 6.89874 29.205, 7.92722 29.4882, 9.11722 29.4872, 10.0833 29.4882, 11.0321 29.2817, 11.9644 28.8666, 12.8968 28.4526, 13.7535 27.8934, 14.5346 27.19, 15.3157 26.4866, 15.9976 25.6718, 16.5813 24.7446, 17.1661 23.8183, 17.5873 22.8359, 17.8449 21.7992, 17.9124 21.4946, 18.1097 21.3422, 18.4348 21.3412 L 18.8049 21.3412 C 19.086 21.3422, 19.2374 21.4618, 19.2598 21.7011, 19.2598 21.7675, 19.2435 21.8278, 19.2097 21.881, 18.9071 23.0812, 18.4072 24.2211, 17.71 25.3007, 17.0138 26.3803, 16.1857 27.327, 15.2247 28.1387, 14.2647 28.9515, 13.2117 29.5997, 12.0656 30.0842, 10.9206 30.5699, 9.74084 30.8121, 8.52733 30.8121, 6.97746 30.8121, 5.59935 30.4881, 4.39197 29.8399, 3.18459 29.1917, 2.20416 28.2941, 1.45172 27.1481, 0.665543 25.9172, 0.204468 24.5534, 0.0695195 23.0587, 0.0245366 22.6559, 0.00204515 22.2368, 0.00204515 21.7992, 0.00204515 20.6992, 0.143128 19.5756, 0.423249 18.4296, 0.850586 16.8276, 1.5284 15.2818, 2.45464 13.7933, 3.38088 12.3047, 4.54021 10.9501, 5.93263 9.72743, 7.24736 8.61615, 8.67148 7.73285, 10.205 7.07855, 11.7385 6.42426, 13.274 6.09711, 14.8116 6.09608, 16.0364 6.09711, 17.0843 6.367, 17.9543 6.9068, 18.8253 7.44659, 19.4684 8.09782, 19.8835 8.86049 L 22.1582 6.32509 C 22.2481 6.17378, 22.3994 6.09711, 22.6131 6.09608 L 22.747 6.09608 C 23.0169 6.09711, 23.1519 6.22797, 23.1519 6.48866 L 23.1519 6.61952 Z" stroke="none" fill="#000000" />
			<rect />
		</svg>
	</g>
	<g transform="matrix(1 0 -0 1 902.177 206.067)">
		<svg width="86.9441757" height="78.0139389">
			<defs />
			<path d="M 27.7989 7.69911 C 27.7652 7.84224, 27.6895 7.96185, 27.5709 8.06, 27.4534 8.15814, 27.3154 8.20721, 27.1579 8.20619, 26.7991 8.20721, 26.4423 8.25935, 26.0886 8.36261, 25.7348 8.46689, 25.3678 8.61104, 24.9855 8.79506, 24.5131 9.01384, 24.05 9.27045, 23.5951 9.56488, 23.1412 9.85931, 22.6831 10.1977, 22.2221 10.578 L 15.5165 15.9923, 19.5763 26.4938 C 19.7337 26.8986, 19.8911 27.28, 20.0486 27.6398, 20.206 27.9997, 20.3859 28.2563, 20.5873 28.4076, 20.7448 28.5395, 20.9666 28.6243, 21.2529 28.6622, 21.5391 28.701, 21.8735 28.7194, 22.2558 28.7184, 22.5482 28.7194, 22.6934 28.8615, 22.6934 29.1437 L 22.6934 29.2909, 22.6259 29.5853 C 22.5032 29.9125, 22.2844 30.0761, 21.9696 30.0761, 21.0034 30.0106, 20.0486 29.9779, 19.105 29.9779 L 18.3801 29.9779 C 17.1901 30.0004, 15.9715 30.0331, 14.7242 30.0761, 14.4104 30.0761, 14.2529 29.935, 14.2529 29.6508 L 14.2529 29.5036, 14.3541 29.2255 C 14.4216 28.8779, 14.6292 28.7082, 14.9768 28.7184, 15.3816 28.7194, 15.7077 28.698, 15.9551 28.654, 16.2025 28.6111, 16.3927 28.5068, 16.5276 28.3422, 16.6401 28.2123, 16.6953 28.0651, 16.6953 27.9005 L 16.6953 27.8024 C 16.6728 27.6071, 16.6002 27.3342, 16.4765 26.9845 L 13.0057 18.037, 8.42356 21.7011, 6.89005 27.7042 C 6.82258 27.9455, 6.78884 28.1357, 6.78884 28.2767, 6.78884 28.4086, 6.81747 28.4904, 6.8737 28.5221, 7.03114 28.6213, 7.33988 28.6785, 7.79993 28.6949, 8.26101 28.7112, 8.7548 28.7194, 9.28233 28.7184, 9.59721 28.7194, 9.75465 28.8503, 9.75465 29.111, 9.75465 29.1774, 9.7434 29.248, 9.72091 29.3236 L 9.65343 29.569 C 9.58596 29.9084, 9.36718 30.0761, 8.99607 30.0761, 7.5924 30.0106, 6.17748 29.9779, 4.7503 29.9779, 3.34663 29.9779, 1.92558 30.0106, 0.488167 30.0761, 0.319482 30.0761, 0.195779 30.027, 0.117058 29.9288, 0.0393607 29.8532, 0.000511833 29.7714, -0.000510506 29.6835, 0.000511833 29.6191, 0.0117576 29.5536, 0.0332267 29.4872 L 0.100701 29.2418 C 0.134438 29.1008, 0.213158 28.9791, 0.336861 28.8748, 0.460564 28.7716, 0.600625 28.7194, 0.757043 28.7184, 1.28559 28.7194, 1.7804 28.7112, 2.24046 28.6949, 2.70051 28.6785, 3.04913 28.6213, 3.28426 28.5221, 3.48669 28.4137, 3.64413 28.1193, 3.75658 27.6388 L 8.52477 9.20399 C 8.56976 8.99748, 8.59225 8.83391, 8.59225 8.71327, 8.59225 8.55072, 8.55851 8.44746, 8.49104 8.40248, 8.34484 8.3166, 8.04121 8.26242, 7.58115 8.23993, 7.1211 8.21846, 6.62629 8.20721, 6.09774 8.20619, 5.93008 8.20721, 5.80637 8.15303, 5.72765 8.04262, 5.66018 7.97821, 5.62644 7.89642, 5.62644 7.79726, 5.62644 7.73285, 5.64382 7.67253, 5.67654 7.61732 L 5.72765 7.35561 C 5.85136 7.02948, 6.07014 6.86591, 6.38502 6.86488, 7.78971 6.90987, 9.20463 6.93134, 10.6308 6.93031, 12.058 6.93134, 13.4841 6.90987, 14.9103 6.86488, 15.2252 6.86591, 15.3816 7.01312, 15.3816 7.30653 L 15.3816 7.43739, 15.2804 7.71547 C 15.2129 8.04364, 15.0054 8.20721, 14.6568 8.20619, 14.1292 8.20721, 13.6303 8.21846, 13.158 8.23993, 12.6857 8.26242, 12.3432 8.31967, 12.1295 8.41168, 11.9169 8.50471, 11.7482 8.79097, 11.6245 9.26942 L 8.94598 19.6891, 21.2284 9.7765 C 21.4645 9.6252, 21.6271 9.43402, 21.716 9.20399, 21.7958 9.06291, 21.8346 8.9433, 21.8346 8.84413, 21.8346 8.80119, 21.8234 8.76337, 21.8009 8.72963, 21.7446 8.38203, 21.4471 8.20721, 20.9073 8.20619, 20.5935 8.20721, 20.436 8.06, 20.436 7.76454 L 20.436 7.63368, 20.5373 7.35561 C 20.6047 7.02948, 20.8072 6.86591, 21.1435 6.86488, 21.7835 6.88737, 22.4214 6.90475, 23.0563 6.91498, 23.6912 6.92622, 24.3342 6.93134, 24.9855 6.93031 L 26.1816 6.93031 C 26.5864 6.93134, 26.9964 6.90987, 27.4115 6.86488, 27.5801 6.86591, 27.7202 6.92009, 27.8327 7.02846, 27.8776 7.11638, 27.9001 7.19817, 27.9001 7.27382, 27.9001 7.34027, 27.8838 7.40059, 27.849 7.45375 Z" stroke="none" fill="#000000" />
			<rect />
		</svg>
	</g>
	<ellipse cx="1256.2000000476837" cy="659.79997563362122" rx="1.5750000476837158" ry="1.5750000476837158" stroke="none" fill="#000000" transform="matrix(1.66667 0 0 1.66667 -1144.54 -553.586)" />
	<g transform="matrix(1 0 -0 1 908.984 542.067)">
		<svg width="48.0976677" height="50.9999924">
			<defs />
			<path d="M 14.2172 15.6161 C 13.5659 16.7734, 12.7941 17.8448, 11.9005 18.8314, 11.008 19.8189, 10.0726 20.7697, 9.09524 21.6857, 8.11788 22.6017, 7.14155 23.5126, 6.16419 24.4174, 5.18684 25.3232, 4.38941 26.1349, 3.7709 26.8537, 3.73818 26.8659, 3.86189 26.871, 4.14201 26.87, 4.57957 26.871, 4.9701 26.9283, 5.31258 27.0428, 5.65609 27.1573, 5.98119 27.2881, 6.28994 27.4354, 6.59869 27.5826, 6.9105 27.7083, 7.22538 27.8116, 7.54026 27.9159, 7.85412 27.967, 8.16798 27.966, 8.56158 27.967, 8.95722 27.8934, 9.35593 27.7462, 9.75465 27.5989, 10.1114 27.3924, 10.4263 27.1246, 10.7412 26.8577, 11.0213 26.547, 11.2687 26.1922, 11.5161 25.8385, 11.695 25.4694, 11.8075 25.0871, 11.875 24.7824, 12.0662 24.6301, 12.38 24.629 L 12.7685 24.629 C 13.0609 24.6301, 13.2061 24.7497, 13.2061 24.9889, 13.2061 25.0554, 13.1897 25.1157, 13.156 25.1688, 12.9985 25.8242, 12.7491 26.4652, 12.4066 27.0919, 12.0641 27.7196, 11.6511 28.2778, 11.1675 28.7685, 10.685 29.2592, 10.1431 29.663, 9.542 29.9779, 8.94086 30.2948, 8.30395 30.4523, 7.6292 30.4523, 7.07919 30.4523, 6.64776 30.3132, 6.33288 30.0352, 6.018 29.7581, 5.74606 29.4555, 5.51501 29.1284, 5.28498 28.8012, 5.05495 28.5211, 4.82391 28.2859, 4.59388 28.0518, 4.29331 27.9343, 3.92323 27.9332, 3.44068 27.9343, 2.97961 28.1469, 2.54102 28.5722, 2.10346 28.9975, 1.70986 29.5158, 1.36227 30.1251, 1.23856 30.3327, 1.05863 30.4421, 0.822472 30.4523 L 0.333794 30.4523 C 0.109902 30.3439, -0.00153318 30.2069, -0.00255552 30.0434, -0.00153318 29.9677, 0.02607 29.8859, 0.0812763 29.798, 0.733528 28.6755, 1.50028 27.6184, 2.38154 26.6257, 3.26279 25.634, 4.18085 24.6791, 5.13572 23.7631, 6.09058 22.8471, 7.05669 21.9454, 8.03405 21.056, 9.01141 20.1676, 9.84257 19.3303, 10.5275 18.5441 L 10.6952 18.5441 C 10.2576 18.5451, 9.86813 18.4827, 9.52462 18.357, 9.18214 18.2323, 8.85397 18.1014, 8.53909 17.9644, 8.22523 17.8284, 7.91341 17.7027, 7.60467 17.5882, 7.29592 17.4737, 6.97797 17.4164, 6.65185 17.4154, 6.09058 17.4164, 5.57941 17.5718, 5.11936 17.8826, 4.65931 18.1934, 4.36692 18.5727, 4.24322 19.0184, 4.17574 19.3251, 3.97945 19.4826, 3.65333 19.4928 L 3.26586 19.4928 C 2.99596 19.4938, 2.86102 19.3579, 2.86102 19.0839 L 2.86102 18.9694 C 2.98574 18.447, 3.18203 17.9511, 3.45193 17.4819, 3.72182 17.0136, 4.04693 16.5904, 4.42826 16.2142, 4.81062 15.838, 5.23693 15.5333, 5.70925 15.2982, 6.18157 15.064, 6.68047 14.9465, 7.208 14.9454, 7.75904 14.9465, 8.18842 15.0886, 8.49717 15.3718, 8.80592 15.656, 9.08195 15.9555, 9.32322 16.2714, 9.56449 16.5883, 9.79758 16.8685, 10.0225 17.1138, 10.2474 17.3592, 10.5388 17.4819, 10.8976 17.4809, 11.235 17.4819, 11.5611 17.2805, 11.876 16.8766, 12.1909 16.4738, 12.5436 15.933, 12.9362 15.2562, 13.0834 15.0497, 13.2572 14.9465, 13.4586 14.9454 L 13.8297 14.9454 C 14.0096 14.9465, 14.1384 15.0231, 14.2172 15.1745, 14.2396 15.2297, 14.2621 15.29, 14.2846 15.3544, 14.2846 15.4321, 14.2621 15.519, 14.2172 15.6161 Z" stroke="none" fill="#000000" />
			<rect />
		</svg>
	</g>
	<ellipse cx="1307.8000977039337" cy="743.69694828987122" rx="1.5750000476837158" ry="1.5750000476837158" stroke="none" fill="#000000" transform="matrix(1.66667 0 0 1.66667 -1144.54 -553.586)" />
	<g transform="matrix(1 0 -0 1 1015.68 695.067)">
		<svg width="48.0976677" height="95.8744049">
			<defs />
			<path d="M 14.8551 10.2018 C 14.7764 10.5085, 14.5576 10.7426, 14.1977 10.9062, 13.8389 11.0698, 13.4596 11.174, 13.0609 11.217, 12.6622 11.2609, 12.2716 11.2824, 11.8893 11.2814 L 11.098 11.2814 C 10.3456 11.2824, 9.76078 11.0585, 9.34571 10.6107, 8.60452 10.9501, 7.91955 11.4951, 7.28979 12.2475, 6.66105 12.9999, 6.2286 13.8291, 5.99244 14.7328, 5.87998 15.1704, 5.81864 15.5957, 5.8074 16.0087, 5.8074 16.3256, 5.85851 16.6313, 5.9587 16.9247, 6.1049 17.5913, 6.38604 18.1198, 6.80111 18.5114, 7.57604 18.2507, 8.39596 18.1198, 9.26086 18.1188 L 10.0695 18.1188 C 10.4519 18.1198, 10.8261 18.1443, 11.191 18.1934, 11.556 18.2425, 11.8729 18.3376, 12.1418 18.4787, 12.4005 18.6218, 12.5354 18.8232, 12.5467 19.0839, 12.5467 19.1391, 12.5354 19.2158, 12.5129 19.3129, 12.4352 19.6298, 12.2164 19.868, 11.8566 20.0255, 11.4967 20.1839, 11.1236 20.2851, 10.7361 20.3281, 10.3486 20.372, 9.95196 20.3935, 9.54711 20.3925 L 8.75582 20.3925 C 8.26203 20.3935, 7.78767 20.3557, 7.33273 20.279, 6.87778 20.2033, 6.45965 20.1042, 6.07729 19.9835, 5.16741 20.4426, 4.35363 21.0969, 3.6339 21.9474, 2.9152 22.798, 2.42141 23.7355, 2.15151 24.7599, 2.08404 25.0226, 2.0503 25.268, 2.0503 25.496, 2.0503 26.0532, 2.23637 26.5326, 2.60645 26.9354, 3.11149 27.558, 3.79134 28.0324, 4.645 28.3585 L 10.777 30.6649 C 11.3505 30.8725, 11.783 31.1781, 12.0754 31.5809, 12.3677 31.9848, 12.5354 32.4315, 12.5804 32.9223 L 12.5804 33.1676 C 12.5804 33.55, 12.5078 33.9313, 12.3616 34.3126, 12.1817 34.8034, 11.921 35.2481, 11.5785 35.6458, 11.236 36.0445, 10.823 36.3655, 10.3394 36.6109, 9.85688 36.8562, 9.33958 36.9789, 8.78956 36.9789, 8.02587 36.9789, 7.33273 36.848, 6.7091 36.5863, 6.08547 36.3246, 5.51603 35.9975, 4.99873 35.6049, 4.89854 35.5394, 4.83617 35.4362, 4.81368 35.2941 L 4.81368 35.1959 C 4.84742 35.0651, 4.91796 34.9485, 5.02428 34.8443, 5.13061 34.741, 5.26249 34.6725, 5.41993 34.6398 L 5.50376 34.6398 C 5.606 34.6398, 5.71232 34.6725, 5.82375 34.7379, 6.27358 35.0876, 6.76022 35.3656, 7.28161 35.5722, 7.80402 35.7797, 8.37449 35.8829, 8.99198 35.8829, 9.25063 35.8829, 9.50315 35.7684, 9.75056 35.5394, 9.99796 35.3104, 10.1718 35.0436, 10.2719 34.7379, 10.2944 34.6183, 10.3057 34.4823, 10.3057 34.329, 10.3057 34.1552, 10.2781 33.9691, 10.2219 33.7728, 10.0982 33.4897, 9.80576 33.2555, 9.34571 33.0695 L 3.46522 30.8612 C 2.90395 30.6649, 2.38154 30.393, 1.89899 30.0434, 1.41645 29.6958, 1.0116 29.2838, 0.685478 28.8094, 0.360375 28.335, 0.151818 27.8085, 0.0618517 27.2299, 0.0168688 27.0234, -0.00562263 26.8005, -0.00562263 26.5592, -0.00562263 26.1891, 0.0393603 25.8027, 0.129326 25.3978, 0.466698 24.0903, 1.07703 22.9023, 1.95829 21.8329, 2.83955 20.7646, 3.79748 19.9518, 4.83004 19.3947, 4.11134 19.0031, 3.53883 18.3928, 3.11149 17.5626, 2.84261 17.0617, 2.7138 16.5117, 2.72402 15.9105, 2.72402 15.519, 2.78025 15.1049, 2.89271 14.6674, 3.06139 14.0029, 3.33334 13.3874, 3.70956 12.82, 4.08578 12.2536, 4.53867 11.7517, 5.0662 11.3151, 5.59373 10.8796, 6.1785 10.5003, 6.81849 10.1783, 7.45847 9.85727, 8.07597 9.61906, 8.67097 9.46571, 8.57078 9.16106, 8.51966 8.77461, 8.51966 8.30434, 8.51966 7.86882, 8.57589 7.41081, 8.68835 6.93031, 8.72208 6.75652, 8.81205 6.62668, 8.95824 6.53876, 9.10444 6.45186, 9.2445 6.4079, 9.37945 6.40688, 9.53689 6.4079, 9.6657 6.45697, 9.76691 6.55409, 9.84563 6.63179, 9.88448 6.73505, 9.88448 6.86488 L 9.88448 6.97939 C 9.77203 7.38423, 9.7158 7.77068, 9.7158 8.14076 L 9.74953 8.17348 C 9.74953 8.62126, 9.78941 8.95454, 9.86813 9.17128, 10.1043 9.13959, 10.3711 9.10483, 10.6686 9.06598, 10.9661 9.02815, 11.283 9.00873, 11.6194 9.00771 L 12.4117 9.00771 C 12.7941 9.00873, 13.1672 9.03122, 13.5322 9.07416, 13.8982 9.11812, 14.2212 9.21626, 14.5014 9.36757, 14.76 9.54341, 14.8888 9.74481, 14.8888 9.97279, 14.8888 10.028, 14.8776 10.1047, 14.8551 10.2018 Z M 13.659 10.1527 C 13.659 10.1977, 13.5526 10.1916, 13.3379 10.1364, 13.0241 10.0934, 12.378 10.072, 11.4006 10.0709, 11.0868 10.072, 10.8455 10.0996, 10.6768 10.1527, 10.7443 10.1977, 10.9518 10.2192, 11.2994 10.2182, 12.2543 10.2192, 12.8871 10.1946, 13.1958 10.1456, 13.5046 10.0965, 13.659 10.0996, 13.659 10.1527 Z M 11.3168 19.2638 C 11.3168 19.3088, 11.2105 19.3027, 10.9968 19.2475, 10.6819 19.2045, 10.0368 19.183, 9.05946 19.182, 8.56464 19.183, 8.23954 19.2045, 8.0821 19.2475, 8.16082 19.2812, 8.45321 19.2975, 8.95824 19.2965, 9.91311 19.2975, 10.5449 19.2791, 10.8537 19.2403, 11.1624 19.2025, 11.3168 19.2106, 11.3168 19.2638 Z" stroke="none" fill="#000000" />
			<rect />
		</svg>
	</g>
	<path d="M 25.8 -27.0001 L -25.8 27.0001" fill="none" stroke="#000000" stroke-width="0.600000024" stroke-linecap="round" stroke-linejoin="round" marker-end="url(#CustomMarker-01)" transform="matrix(1.66667 0 0 1.66667 992.128 501.08)" />
	<path d="M 0 -68.9487 L 0 68.9487" fill="none" stroke="#000000" stroke-width="0.600000024" stroke-linecap="round" stroke-linejoin="round" marker-end="url(#CustomMarker-02)" transform="matrix(1.66667 0 0 1.66667 1035.13 570.994)" />
</svg>
