<?xml version="1.0" standalone="no"?><!DOCTYPE svg PUBLIC "-//W3C//DTD SVG 1.1//EN" "http://www.w3.org/Graphics/SVG/1.1/DTD/svg11.dtd"><svg t="1727532791721" class="icon" viewBox="0 0 1024 1024" version="1.1" xmlns="http://www.w3.org/2000/svg" p-id="4517" xmlns:xlink="http://www.w3.org/1999/xlink" width="256" height="256"><path d="M36.864 993.28H20.48c-6.144 0-10.24 4.096-10.24 10.24s4.096 10.24 10.24 10.24h16.384c6.144 0 10.24-4.096 10.24-10.24s-4.096-10.24-10.24-10.24zM1003.52 993.28h-26.624c-6.144 0-10.24 4.096-10.24 10.24s4.096 10.24 10.24 10.24H1003.52c6.144 0 10.24-4.096 10.24-10.24s-5.12-10.24-10.24-10.24z" p-id="4518" fill="#e6e6e6"></path><path d="M836.608 625.664m-15.36 0a15.36 15.36 0 1 0 30.72 0 15.36 15.36 0 1 0-30.72 0Z" p-id="4519" fill="#e6e6e6"></path><path d="M840.704 739.328m-15.36 0a15.36 15.36 0 1 0 30.72 0 15.36 15.36 0 1 0-30.72 0Z" p-id="4520" fill="#e6e6e6"></path><path d="M749.568 882.688m-15.36 0a15.36 15.36 0 1 0 30.72 0 15.36 15.36 0 1 0-30.72 0Z" p-id="4521" fill="#e6e6e6"></path><path d="M840.704 897.024m-15.36 0a15.36 15.36 0 1 0 30.72 0 15.36 15.36 0 1 0-30.72 0Z" p-id="4522" fill="#e6e6e6"></path><path d="M791.552 940.032m-15.36 0a15.36 15.36 0 1 0 30.72 0 15.36 15.36 0 1 0-30.72 0Z" p-id="4523" fill="#e6e6e6"></path><path d="M936.96 993.28h-84.992c23.552-18.432 38.912-46.08 38.912-77.824V532.48c0-6.144-4.096-10.24-10.24-10.24-5.12 0-10.24 4.096-10.24 10.24v17.408c-28.672 11.264-52.224 11.264-71.68-1.024-33.792-24.576-62.464-20.48-83.968-9.216v-75.776H870.4v20.48c0 5.12 5.12 10.24 10.24 10.24 6.144 0 10.24-5.12 10.24-10.24v-20.48h5.12c15.36 0 28.672-12.288 28.672-28.672v-91.136c0-15.36-12.288-27.648-28.672-27.648H688.128c-15.36 0-27.648 12.288-27.648 27.648v91.136c0 15.36 12.288 28.672 27.648 28.672h5.12v451.584c0 31.744 15.36 60.416 38.912 77.824H605.184c3.072-5.12 6.144-10.24 8.192-15.36 33.792-101.376-7.168-163.84-15.36-175.104-21.504-32.768-58.368-65.536-99.328-96.256 119.808-81.92 186.368-251.904 56.32-396.288-16.384-18.432-34.816-34.816-52.224-49.152 1.024 0 2.048-1.024 2.048-2.048C632.832 169.984 624.64 67.584 623.616 56.32 619.52 27.648 593.92 7.168 565.248 10.24c-28.672 4.096-47.104 28.672-46.08 53.248h-235.52c1.024-24.576-17.408-49.152-46.08-53.248-28.672-3.072-54.272 17.408-58.368 45.056-1.024 11.264-10.24 113.664 118.784 203.776 1.024 1.024 2.048 1.024 2.048 2.048-55.296 43.008-101.376 99.328-117.76 167.936-12.288 51.2-6.144 104.448 18.432 156.672 5.12 10.24 10.24 19.456 15.36 28.672 3.072 5.12 9.216 6.144 14.336 3.072 5.12-3.072 6.144-9.216 3.072-14.336-5.12-8.192-10.24-17.408-14.336-26.624-22.528-48.128-28.672-96.256-17.408-143.36C219.136 368.64 266.24 314.368 319.488 273.408c9.216 5.12 19.456 10.24 29.696 15.36 8.192 4.096 19.456 9.216 33.792 17.408-23.552 15.36-49.152 35.84-70.656 60.416-24.576 26.624-45.056 60.416-49.152 96.256-2.048 13.312-1.024 27.648 1.024 40.96 1.024 7.168 3.072 13.312 5.12 20.48 2.048 8.192 5.12 15.36 9.216 23.552 0 1.024 1.024 2.048 1.024 3.072 3.072 6.144 6.144 12.288 9.216 17.408 19.456 32.768 47.104 60.416 81.92 79.872 4.096 2.048 8.192 4.096 12.288 7.168-19.456 12.288-39.936 24.576-59.392 38.912-15.36-10.24-29.696-21.504-43.008-33.792-4.096-4.096-10.24-4.096-14.336 0-4.096 4.096-4.096 10.24 0 14.336 12.288 11.264 25.6 22.528 38.912 31.744-40.96 29.696-76.8 63.488-98.304 95.232-6.144 8.192-28.672 43.008-28.672 99.328 0 22.528 3.072 48.128 13.312 75.776 2.048 5.12 5.12 11.264 8.192 15.36H79.872c-6.144 0-10.24 4.096-10.24 10.24 0 5.12 4.096 10.24 10.24 10.24h856.064c6.144 0 10.24-5.12 10.24-10.24 1.024-5.12-4.096-9.216-9.216-9.216zM539.648 65.536v-2.048c-1.024-15.36 10.24-30.72 27.648-32.768 17.408-2.048 32.768 9.216 35.84 27.648 1.024 10.24 8.192 101.376-110.592 185.344-3.072 2.048-5.12 4.096-8.192 5.12-21.504-16.384-43.008-28.672-60.416-38.912 53.248-26.624 118.784-86.016 115.712-144.384zM409.6 194.56c-2.048 1.024-5.12 2.048-8.192 4.096-3.072-1.024-5.12-3.072-8.192-4.096-35.84-16.384-66.56-41.984-84.992-66.56h186.368c-18.432 24.576-49.152 50.176-84.992 66.56zM517.12 83.968c-2.048 6.144-4.096 14.336-9.216 23.552H294.912c-5.12-9.216-8.192-17.408-9.216-23.552h231.424z m-190.464 296.96c22.528-25.6 50.176-46.08 74.752-62.464 24.576 15.36 52.224 36.864 75.776 62.464l15.36 18.432H311.296c4.096-6.144 9.216-12.288 15.36-18.432zM297.984 419.84h206.848c4.096 8.192 7.168 15.36 10.24 23.552H287.744c3.072-8.192 6.144-16.384 10.24-23.552z m-14.336 84.992c-3.072-14.336-3.072-27.648-1.024-40.96h236.544c2.048 13.312 2.048 27.648-1.024 40.96H283.648zM296.96 542.72c-3.072-6.144-5.12-11.264-7.168-17.408h224.256c-2.048 6.144-4.096 11.264-7.168 17.408l-3.072 6.144h-204.8c-1.024-3.072-1.024-5.12-2.048-6.144z m82.944 88.064c-27.648-15.36-51.2-36.864-68.608-62.464H491.52c-17.408 25.6-39.936 46.08-68.608 62.464-7.168 4.096-14.336 8.192-21.504 13.312-7.168-5.12-14.336-9.216-21.504-13.312zM275.456 849.92c0 1.024-1.024 1.024-2.048 2.048-1.024 2.048-5.12 8.192-7.168 16.384-2.048 6.144-3.072 14.336-4.096 23.552v20.48c1.024 11.264 3.072 23.552 8.192 37.888 5.12 16.384-4.096 34.816-20.48 39.936s-34.816-3.072-39.936-20.48c-30.72-91.136 5.12-146.432 13.312-156.672 36.864-56.32 121.856-112.64 178.176-146.432 31.744-18.432 122.88-62.464 138.24-162.816 4.096-20.48 2.048-41.984-3.072-61.44-16.384-56.32-66.56-103.424-115.712-136.192-18.432-12.288-39.936-24.576-63.488-35.84-113.664-54.272-164.864-150.528-157.696-211.968 2.048-16.384 16.384-27.648 31.744-27.648h4.096c16.384 2.048 28.672 16.384 27.648 32.768v2.048c0 2.048 0 8.192 2.048 18.432 1.024 6.144 3.072 14.336 7.168 23.552 3.072 6.144 6.144 13.312 11.264 20.48 36.864 58.368 100.352 83.968 117.76 93.184 87.04 45.056 176.128 117.76 198.656 212.992 23.552 98.304-32.768 203.776-119.808 260.096-18.432 12.288-160.768 89.088-204.8 154.624v1.024z m26.624-1.024c19.456-23.552 54.272-52.224 100.352-81.92 46.08 30.72 80.896 58.368 100.352 81.92H302.08z m212.992 20.48c2.048 5.12 4.096 12.288 5.12 23.552H282.624c1.024-11.264 3.072-18.432 5.12-23.552h227.328zM281.6 993.28c10.24-13.312 14.336-30.72 8.192-48.128-4.096-12.288-6.144-22.528-7.168-31.744h238.592c-1.024 9.216-3.072 19.456-7.168 31.744-6.144 17.408-2.048 34.816 8.192 48.128H281.6z m271.36-2.048c-16.384-5.12-25.6-23.552-20.48-39.936 5.12-14.336 7.168-27.648 8.192-38.912 7.168-74.752-58.368-115.712-120.832-158.72 17.408-11.264 35.84-21.504 55.296-32.768 2.048-1.024 3.072-2.048 4.096-3.072 41.984 29.696 78.848 63.488 101.376 96.256 7.168 10.24 43.008 65.536 13.312 156.672-6.144 17.408-23.552 26.624-40.96 20.48z m313.344-655.36h28.672c4.096 0 8.192 3.072 8.192 7.168v91.136c0 4.096-3.072 8.192-8.192 8.192h-28.672V335.872z m-64.512 0h44.032v106.496h-44.032V335.872z m-64.512 0h44.032v106.496H737.28V335.872z m-49.152 106.496c-4.096 0-7.168-3.072-7.168-8.192v-91.136c0-4.096 3.072-7.168 7.168-7.168H716.8v106.496h-28.672z m25.6 183.296h79.872c1.024 0 2.048 1.024 2.048 2.048v200.704c0 1.024-1.024 2.048-2.048 2.048h-79.872v-204.8zM791.552 993.28c-43.008 0-77.824-34.816-77.824-77.824v-64.512h79.872c12.288 0 22.528-10.24 22.528-22.528V627.712c0-12.288-10.24-22.528-22.528-22.528h-79.872v-43.008c26.624-16.384 47.104-15.36 72.704 3.072 14.336 9.216 28.672 13.312 45.056 13.312 12.288 0 24.576-2.048 37.888-7.168v344.064c0 43.008-34.816 77.824-77.824 77.824z" p-id="4524" fill="#e6e6e6"></path></svg>