<?xml version="1.0" standalone="no"?><!DOCTYPE svg PUBLIC "-//W3C//DTD SVG 1.1//EN" "http://www.w3.org/Graphics/SVG/1.1/DTD/svg11.dtd"><svg t="1727532656348" class="icon" viewBox="0 0 1024 1024" version="1.1" xmlns="http://www.w3.org/2000/svg" p-id="4573" xmlns:xlink="http://www.w3.org/1999/xlink" width="256" height="256"><path d="M576.48 107.292a137.5 137.5 0 0 0-127.96 0L160.287 258.81a87.5 87.5 0 0 0-46.786 77.45v354.205a87.5 87.5 0 0 0 46.786 77.45l288.235 151.52a137.5 137.5 0 0 0 127.958 0l288.235-151.52a87.5 87.5 0 0 0 46.786-77.45V336.261a87.5 87.5 0 0 0-46.786-77.45L576.48 107.29z m11.632-22.129l288.235 151.519c36.99 19.444 60.153 57.79 60.153 99.58v354.204c0 41.79-23.164 80.135-60.153 99.58L588.112 941.564a162.5 162.5 0 0 1-151.224 0L148.653 790.046c-36.99-19.445-60.153-57.79-60.153-99.58V336.261c0-41.789 23.164-80.135 60.153-99.58L436.888 85.164a162.5 162.5 0 0 1 151.224 0z" fill="#e6e6e6" p-id="4574"></path><path d="M513 563.5c-28.443 0-51.5-23.057-51.5-51.5s23.057-51.5 51.5-51.5 51.5 23.057 51.5 51.5-23.057 51.5-51.5 51.5z m0-25c14.636 0 26.5-11.864 26.5-26.5s-11.864-26.5-26.5-26.5-26.5 11.864-26.5 26.5 11.864 26.5 26.5 26.5z" fill="#e6e6e6" p-id="4575"></path><path d="M394.367 675.151c-9.191-24.75-16.29-52.536-20.875-82.395-23.566-18.9-44.08-38.94-60.918-59.275-26.404 40.407-34.637 78.745-19.178 105.519 15.458 26.774 52.775 38.814 100.97 36.151z m10.172 24.342c-61.416 5.24-110.95-10.158-132.794-47.993-21.844-37.835-10.412-88.432 24.834-139-35.246-50.568-46.678-101.165-24.834-139 21.844-37.835 71.378-53.234 132.794-47.993C430.71 269.699 468.812 234.5 512.5 234.5s81.791 35.199 107.96 91.007c61.417-5.24 110.951 10.158 132.795 47.993 21.844 37.835 10.412 88.432-24.834 139 35.246 50.568 46.678 101.165 24.834 139-21.844 37.835-71.378 53.234-132.794 47.993C594.29 755.301 556.188 790.5 512.5 790.5s-81.791-35.199-107.96-91.007zM712.426 491.52c26.404-40.407 34.637-78.745 19.178-105.519-15.458-26.774-52.775-38.814-100.97-36.151 9.19 24.75 16.288 52.536 20.874 82.395 23.566 18.9 44.08 38.94 60.918 59.275z m-343.182-22.793c-15.877 14.353-29.784 29.092-41.465 43.774 11.681 14.682 25.588 29.42 41.465 43.774A545.641 545.641 0 0 1 367.5 512.5c0-14.881 0.595-29.503 1.744-43.774z m4.248-36.482c4.586-29.86 11.684-57.645 20.875-82.395-48.196-2.663-85.513 9.377-100.971 36.151-15.459 26.774-7.226 65.112 19.178 105.52 16.838-20.335 37.352-40.375 60.918-59.276z m282.264 124.03c15.877-14.353 29.784-29.092 41.465-43.774-11.681-14.682-25.588-29.42-41.465-43.774A545.641 545.641 0 0 1 657.5 512.5c0 14.881-0.595 29.503-1.744 43.774z m-4.248 36.482c-4.586 29.86-11.684 57.645-20.875 82.395 48.196 2.663 85.513-9.377 100.971-36.151 15.459-26.774 7.226-65.112-19.178-105.52-16.838 20.335-37.352 40.375-60.918 59.276zM420.14 672.473c18.556-2.775 38.274-7.45 58.643-14.022A545.641 545.641 0 0 1 440 638.074a545.641 545.641 0 0 1-37.038-23.398c4.493 20.927 10.303 40.34 17.177 57.797z m10.568 23.659c21.791 43.07 50.877 69.368 81.793 69.368 30.916 0 60.002-26.298 81.793-69.368-26.03-4.415-53.641-12.161-81.793-23.12-28.152 10.959-55.764 18.705-81.793 23.12z m-33.862-250.406c-2.825 21.243-4.345 43.626-4.345 66.774 0 23.148 1.52 45.531 4.345 66.774 16.984 13.067 35.608 25.575 55.655 37.149 20.047 11.574 40.191 21.45 60 29.624 19.809-8.175 39.953-18.05 60-29.624 20.047-11.574 38.671-24.082 55.655-37.15 2.825-21.242 4.345-43.625 4.345-66.773 0-23.148-1.52-45.531-4.345-66.774-16.984-13.067-35.608-25.575-55.655-37.149-20.047-11.574-40.191-21.45-60-29.624-19.809 8.175-39.953 18.05-60 29.624-20.047 11.574-38.671 24.082-55.655 37.15z m6.117-35.402A545.641 545.641 0 0 1 440 386.926a545.642 545.642 0 0 1 38.782-20.377c-20.37-6.572-40.087-11.247-58.643-14.022-6.874 17.457-12.685 36.87-17.177 57.797z m219.076 204.352A545.641 545.641 0 0 1 585 638.074a545.642 545.642 0 0 1-38.782 20.377c20.37 6.572 40.087 11.247 58.643 14.022 6.874-17.457 12.685-36.87 17.177-57.797z m-27.745-285.808c-21.791-43.07-50.877-69.368-81.793-69.368-30.916 0-60.002 26.298-81.793 69.368 26.03 4.415 53.641 12.161 81.793 23.12 28.152-10.959 55.764-18.705 81.793-23.12z m10.568 23.659c-18.556 2.775-38.274 7.45-58.643 14.022A545.641 545.641 0 0 1 585 386.926a545.641 545.641 0 0 1 37.038 23.398c-4.493-20.927-10.303-40.34-17.177-57.797z" fill="#e6e6e6" p-id="4576"></path></svg>